%TF.GenerationSoftware,KiCad,Pcbnew,6.0.11+dfsg-1~bpo11+1*%
%TF.CreationDate,2023-06-07T14:08:49+08:00*%
%TF.ProjectId,MiniSNH v1.0 - Front,4d696e69-534e-4482-9076-312e30202d20,rev?*%
%TF.SameCoordinates,Original*%
%TF.FileFunction,Drillmap*%
%TF.FilePolarity,Positive*%
%FSLAX45Y45*%
G04 Gerber Fmt 4.5, Leading zero omitted, Abs format (unit mm)*
G04 Created by KiCad (PCBNEW 6.0.11+dfsg-1~bpo11+1) date 2023-06-07 14:08:49*
%MOMM*%
%LPD*%
G01*
G04 APERTURE LIST*
%ADD10C,0.100000*%
%ADD11C,0.200000*%
%ADD12C,0.373500*%
%ADD13C,0.700000*%
G04 APERTURE END LIST*
D10*
X11000000Y-17750000D02*
X11000000Y-4900000D01*
X13000000Y-17750000D02*
X13000000Y-4900000D01*
X11000000Y-4900000D02*
X13000000Y-4900000D01*
X13000000Y-17750000D02*
X11000000Y-17750000D01*
D11*
D12*
X11310750Y-6674552D02*
X11684250Y-7048052D01*
X11684250Y-6674552D02*
X11310750Y-7048052D01*
X11315756Y-15963241D02*
X11689256Y-16336741D01*
X11689256Y-15963241D02*
X11315756Y-16336741D01*
X11315756Y-10013241D02*
X11689256Y-10386741D01*
X11689256Y-10013241D02*
X11315756Y-10386741D01*
X11813250Y-14501453D02*
X12186750Y-14874953D01*
X12186750Y-14501453D02*
X11813250Y-14874953D01*
X12315750Y-6674552D02*
X12689250Y-7048052D01*
X12689250Y-6674552D02*
X12315750Y-7048052D01*
X12315750Y-10005282D02*
X12689250Y-10378782D01*
X12689250Y-10005282D02*
X12315750Y-10378782D01*
X12315750Y-15963241D02*
X12689250Y-16336741D01*
X12689250Y-15963241D02*
X12315750Y-16336741D01*
D13*
X12350000Y-8240000D02*
G75*
G03*
X12350000Y-8240000I-350000J0D01*
G01*
X12350000Y-13170000D02*
G75*
G03*
X12350000Y-13170000I-350000J0D01*
G01*
D11*
X11252619Y-18065476D02*
X11252619Y-17865476D01*
X11300238Y-17865476D01*
X11328809Y-17875000D01*
X11347857Y-17894048D01*
X11357381Y-17913095D01*
X11366905Y-17951190D01*
X11366905Y-17979762D01*
X11357381Y-18017857D01*
X11347857Y-18036905D01*
X11328809Y-18055952D01*
X11300238Y-18065476D01*
X11252619Y-18065476D01*
X11452619Y-18065476D02*
X11452619Y-17932143D01*
X11452619Y-17970238D02*
X11462143Y-17951190D01*
X11471667Y-17941667D01*
X11490714Y-17932143D01*
X11509762Y-17932143D01*
X11576428Y-18065476D02*
X11576428Y-17932143D01*
X11576428Y-17865476D02*
X11566905Y-17875000D01*
X11576428Y-17884524D01*
X11585952Y-17875000D01*
X11576428Y-17865476D01*
X11576428Y-17884524D01*
X11700238Y-18065476D02*
X11681190Y-18055952D01*
X11671667Y-18036905D01*
X11671667Y-17865476D01*
X11805000Y-18065476D02*
X11785952Y-18055952D01*
X11776428Y-18036905D01*
X11776428Y-17865476D01*
X12033571Y-18065476D02*
X12033571Y-17865476D01*
X12100238Y-18008333D01*
X12166905Y-17865476D01*
X12166905Y-18065476D01*
X12347857Y-18065476D02*
X12347857Y-17960714D01*
X12338333Y-17941667D01*
X12319286Y-17932143D01*
X12281190Y-17932143D01*
X12262143Y-17941667D01*
X12347857Y-18055952D02*
X12328809Y-18065476D01*
X12281190Y-18065476D01*
X12262143Y-18055952D01*
X12252619Y-18036905D01*
X12252619Y-18017857D01*
X12262143Y-17998810D01*
X12281190Y-17989286D01*
X12328809Y-17989286D01*
X12347857Y-17979762D01*
X12443095Y-17932143D02*
X12443095Y-18132143D01*
X12443095Y-17941667D02*
X12462143Y-17932143D01*
X12500238Y-17932143D01*
X12519286Y-17941667D01*
X12528809Y-17951190D01*
X12538333Y-17970238D01*
X12538333Y-18027381D01*
X12528809Y-18046429D01*
X12519286Y-18055952D01*
X12500238Y-18065476D01*
X12462143Y-18065476D01*
X12443095Y-18055952D01*
X12624048Y-18046429D02*
X12633571Y-18055952D01*
X12624048Y-18065476D01*
X12614524Y-18055952D01*
X12624048Y-18046429D01*
X12624048Y-18065476D01*
X12624048Y-17941667D02*
X12633571Y-17951190D01*
X12624048Y-17960714D01*
X12614524Y-17951190D01*
X12624048Y-17941667D01*
X12624048Y-17960714D01*
X10795000Y-18295000D02*
X10995000Y-18495000D01*
X10995000Y-18295000D02*
X10795000Y-18495000D01*
X11233571Y-18285476D02*
X11357381Y-18285476D01*
X11290714Y-18361667D01*
X11319286Y-18361667D01*
X11338333Y-18371190D01*
X11347857Y-18380714D01*
X11357381Y-18399762D01*
X11357381Y-18447381D01*
X11347857Y-18466429D01*
X11338333Y-18475952D01*
X11319286Y-18485476D01*
X11262143Y-18485476D01*
X11243095Y-18475952D01*
X11233571Y-18466429D01*
X11443095Y-18466429D02*
X11452619Y-18475952D01*
X11443095Y-18485476D01*
X11433571Y-18475952D01*
X11443095Y-18466429D01*
X11443095Y-18485476D01*
X11519286Y-18285476D02*
X11652619Y-18285476D01*
X11566905Y-18485476D01*
X11709762Y-18285476D02*
X11833571Y-18285476D01*
X11766905Y-18361667D01*
X11795476Y-18361667D01*
X11814524Y-18371190D01*
X11824048Y-18380714D01*
X11833571Y-18399762D01*
X11833571Y-18447381D01*
X11824048Y-18466429D01*
X11814524Y-18475952D01*
X11795476Y-18485476D01*
X11738333Y-18485476D01*
X11719286Y-18475952D01*
X11709762Y-18466429D01*
X12014524Y-18285476D02*
X11919286Y-18285476D01*
X11909762Y-18380714D01*
X11919286Y-18371190D01*
X11938333Y-18361667D01*
X11985952Y-18361667D01*
X12005000Y-18371190D01*
X12014524Y-18380714D01*
X12024048Y-18399762D01*
X12024048Y-18447381D01*
X12014524Y-18466429D01*
X12005000Y-18475952D01*
X11985952Y-18485476D01*
X11938333Y-18485476D01*
X11919286Y-18475952D01*
X11909762Y-18466429D01*
X12109762Y-18485476D02*
X12109762Y-18352143D01*
X12109762Y-18371190D02*
X12119286Y-18361667D01*
X12138333Y-18352143D01*
X12166905Y-18352143D01*
X12185952Y-18361667D01*
X12195476Y-18380714D01*
X12195476Y-18485476D01*
X12195476Y-18380714D02*
X12205000Y-18361667D01*
X12224048Y-18352143D01*
X12252619Y-18352143D01*
X12271667Y-18361667D01*
X12281190Y-18380714D01*
X12281190Y-18485476D01*
X12376428Y-18485476D02*
X12376428Y-18352143D01*
X12376428Y-18371190D02*
X12385952Y-18361667D01*
X12405000Y-18352143D01*
X12433571Y-18352143D01*
X12452619Y-18361667D01*
X12462143Y-18380714D01*
X12462143Y-18485476D01*
X12462143Y-18380714D02*
X12471667Y-18361667D01*
X12490714Y-18352143D01*
X12519286Y-18352143D01*
X12538333Y-18361667D01*
X12547857Y-18380714D01*
X12547857Y-18485476D01*
X12938333Y-18275952D02*
X12766905Y-18533095D01*
X13195476Y-18285476D02*
X13214524Y-18285476D01*
X13233571Y-18295000D01*
X13243095Y-18304524D01*
X13252619Y-18323571D01*
X13262143Y-18361667D01*
X13262143Y-18409286D01*
X13252619Y-18447381D01*
X13243095Y-18466429D01*
X13233571Y-18475952D01*
X13214524Y-18485476D01*
X13195476Y-18485476D01*
X13176428Y-18475952D01*
X13166905Y-18466429D01*
X13157381Y-18447381D01*
X13147857Y-18409286D01*
X13147857Y-18361667D01*
X13157381Y-18323571D01*
X13166905Y-18304524D01*
X13176428Y-18295000D01*
X13195476Y-18285476D01*
X13347857Y-18466429D02*
X13357381Y-18475952D01*
X13347857Y-18485476D01*
X13338333Y-18475952D01*
X13347857Y-18466429D01*
X13347857Y-18485476D01*
X13547857Y-18485476D02*
X13433571Y-18485476D01*
X13490714Y-18485476D02*
X13490714Y-18285476D01*
X13471667Y-18314048D01*
X13452619Y-18333095D01*
X13433571Y-18342619D01*
X13719286Y-18352143D02*
X13719286Y-18485476D01*
X13671667Y-18275952D02*
X13624048Y-18418810D01*
X13747857Y-18418810D01*
X13805000Y-18285476D02*
X13938333Y-18285476D01*
X13852619Y-18485476D01*
X14052619Y-18285476D02*
X14071667Y-18285476D01*
X14090714Y-18295000D01*
X14100238Y-18304524D01*
X14109762Y-18323571D01*
X14119286Y-18361667D01*
X14119286Y-18409286D01*
X14109762Y-18447381D01*
X14100238Y-18466429D01*
X14090714Y-18475952D01*
X14071667Y-18485476D01*
X14052619Y-18485476D01*
X14033571Y-18475952D01*
X14024048Y-18466429D01*
X14014524Y-18447381D01*
X14005000Y-18409286D01*
X14005000Y-18361667D01*
X14014524Y-18323571D01*
X14024048Y-18304524D01*
X14033571Y-18295000D01*
X14052619Y-18285476D01*
X14195476Y-18285476D02*
X14195476Y-18323571D01*
X14271667Y-18285476D02*
X14271667Y-18323571D01*
X14566905Y-18561667D02*
X14557381Y-18552143D01*
X14538333Y-18523571D01*
X14528809Y-18504524D01*
X14519286Y-18475952D01*
X14509762Y-18428333D01*
X14509762Y-18390238D01*
X14519286Y-18342619D01*
X14528809Y-18314048D01*
X14538333Y-18295000D01*
X14557381Y-18266429D01*
X14566905Y-18256905D01*
X14624048Y-18285476D02*
X14757381Y-18285476D01*
X14671667Y-18485476D01*
X14985952Y-18485476D02*
X14985952Y-18285476D01*
X15071667Y-18485476D02*
X15071667Y-18380714D01*
X15062143Y-18361667D01*
X15043095Y-18352143D01*
X15014524Y-18352143D01*
X14995476Y-18361667D01*
X14985952Y-18371190D01*
X15195476Y-18485476D02*
X15176428Y-18475952D01*
X15166905Y-18466429D01*
X15157381Y-18447381D01*
X15157381Y-18390238D01*
X15166905Y-18371190D01*
X15176428Y-18361667D01*
X15195476Y-18352143D01*
X15224048Y-18352143D01*
X15243095Y-18361667D01*
X15252619Y-18371190D01*
X15262143Y-18390238D01*
X15262143Y-18447381D01*
X15252619Y-18466429D01*
X15243095Y-18475952D01*
X15224048Y-18485476D01*
X15195476Y-18485476D01*
X15376428Y-18485476D02*
X15357381Y-18475952D01*
X15347857Y-18456905D01*
X15347857Y-18285476D01*
X15528809Y-18475952D02*
X15509762Y-18485476D01*
X15471667Y-18485476D01*
X15452619Y-18475952D01*
X15443095Y-18456905D01*
X15443095Y-18380714D01*
X15452619Y-18361667D01*
X15471667Y-18352143D01*
X15509762Y-18352143D01*
X15528809Y-18361667D01*
X15538333Y-18380714D01*
X15538333Y-18399762D01*
X15443095Y-18418810D01*
X15614524Y-18475952D02*
X15633571Y-18485476D01*
X15671667Y-18485476D01*
X15690714Y-18475952D01*
X15700238Y-18456905D01*
X15700238Y-18447381D01*
X15690714Y-18428333D01*
X15671667Y-18418810D01*
X15643095Y-18418810D01*
X15624048Y-18409286D01*
X15614524Y-18390238D01*
X15614524Y-18380714D01*
X15624048Y-18361667D01*
X15643095Y-18352143D01*
X15671667Y-18352143D01*
X15690714Y-18361667D01*
X15766905Y-18561667D02*
X15776428Y-18552143D01*
X15795476Y-18523571D01*
X15805000Y-18504524D01*
X15814524Y-18475952D01*
X15824048Y-18428333D01*
X15824048Y-18390238D01*
X15814524Y-18342619D01*
X15805000Y-18314048D01*
X15795476Y-18295000D01*
X15776428Y-18266429D01*
X15766905Y-18256905D01*
X10995000Y-18715000D02*
G75*
G03*
X10995000Y-18715000I-100000J0D01*
G01*
X11233571Y-18605476D02*
X11366905Y-18605476D01*
X11281190Y-18805476D01*
X11443095Y-18786429D02*
X11452619Y-18795952D01*
X11443095Y-18805476D01*
X11433571Y-18795952D01*
X11443095Y-18786429D01*
X11443095Y-18805476D01*
X11576428Y-18605476D02*
X11595476Y-18605476D01*
X11614524Y-18615000D01*
X11624048Y-18624524D01*
X11633571Y-18643571D01*
X11643095Y-18681667D01*
X11643095Y-18729286D01*
X11633571Y-18767381D01*
X11624048Y-18786429D01*
X11614524Y-18795952D01*
X11595476Y-18805476D01*
X11576428Y-18805476D01*
X11557381Y-18795952D01*
X11547857Y-18786429D01*
X11538333Y-18767381D01*
X11528809Y-18729286D01*
X11528809Y-18681667D01*
X11538333Y-18643571D01*
X11547857Y-18624524D01*
X11557381Y-18615000D01*
X11576428Y-18605476D01*
X11766905Y-18605476D02*
X11785952Y-18605476D01*
X11805000Y-18615000D01*
X11814524Y-18624524D01*
X11824048Y-18643571D01*
X11833571Y-18681667D01*
X11833571Y-18729286D01*
X11824048Y-18767381D01*
X11814524Y-18786429D01*
X11805000Y-18795952D01*
X11785952Y-18805476D01*
X11766905Y-18805476D01*
X11747857Y-18795952D01*
X11738333Y-18786429D01*
X11728809Y-18767381D01*
X11719286Y-18729286D01*
X11719286Y-18681667D01*
X11728809Y-18643571D01*
X11738333Y-18624524D01*
X11747857Y-18615000D01*
X11766905Y-18605476D01*
X11957381Y-18605476D02*
X11976428Y-18605476D01*
X11995476Y-18615000D01*
X12005000Y-18624524D01*
X12014524Y-18643571D01*
X12024048Y-18681667D01*
X12024048Y-18729286D01*
X12014524Y-18767381D01*
X12005000Y-18786429D01*
X11995476Y-18795952D01*
X11976428Y-18805476D01*
X11957381Y-18805476D01*
X11938333Y-18795952D01*
X11928809Y-18786429D01*
X11919286Y-18767381D01*
X11909762Y-18729286D01*
X11909762Y-18681667D01*
X11919286Y-18643571D01*
X11928809Y-18624524D01*
X11938333Y-18615000D01*
X11957381Y-18605476D01*
X12109762Y-18805476D02*
X12109762Y-18672143D01*
X12109762Y-18691190D02*
X12119286Y-18681667D01*
X12138333Y-18672143D01*
X12166905Y-18672143D01*
X12185952Y-18681667D01*
X12195476Y-18700714D01*
X12195476Y-18805476D01*
X12195476Y-18700714D02*
X12205000Y-18681667D01*
X12224048Y-18672143D01*
X12252619Y-18672143D01*
X12271667Y-18681667D01*
X12281190Y-18700714D01*
X12281190Y-18805476D01*
X12376428Y-18805476D02*
X12376428Y-18672143D01*
X12376428Y-18691190D02*
X12385952Y-18681667D01*
X12405000Y-18672143D01*
X12433571Y-18672143D01*
X12452619Y-18681667D01*
X12462143Y-18700714D01*
X12462143Y-18805476D01*
X12462143Y-18700714D02*
X12471667Y-18681667D01*
X12490714Y-18672143D01*
X12519286Y-18672143D01*
X12538333Y-18681667D01*
X12547857Y-18700714D01*
X12547857Y-18805476D01*
X12938333Y-18595952D02*
X12766905Y-18853095D01*
X13195476Y-18605476D02*
X13214524Y-18605476D01*
X13233571Y-18615000D01*
X13243095Y-18624524D01*
X13252619Y-18643571D01*
X13262143Y-18681667D01*
X13262143Y-18729286D01*
X13252619Y-18767381D01*
X13243095Y-18786429D01*
X13233571Y-18795952D01*
X13214524Y-18805476D01*
X13195476Y-18805476D01*
X13176428Y-18795952D01*
X13166905Y-18786429D01*
X13157381Y-18767381D01*
X13147857Y-18729286D01*
X13147857Y-18681667D01*
X13157381Y-18643571D01*
X13166905Y-18624524D01*
X13176428Y-18615000D01*
X13195476Y-18605476D01*
X13347857Y-18786429D02*
X13357381Y-18795952D01*
X13347857Y-18805476D01*
X13338333Y-18795952D01*
X13347857Y-18786429D01*
X13347857Y-18805476D01*
X13433571Y-18624524D02*
X13443095Y-18615000D01*
X13462143Y-18605476D01*
X13509762Y-18605476D01*
X13528809Y-18615000D01*
X13538333Y-18624524D01*
X13547857Y-18643571D01*
X13547857Y-18662619D01*
X13538333Y-18691190D01*
X13424048Y-18805476D01*
X13547857Y-18805476D01*
X13614524Y-18605476D02*
X13747857Y-18605476D01*
X13662143Y-18805476D01*
X13919286Y-18605476D02*
X13824048Y-18605476D01*
X13814524Y-18700714D01*
X13824048Y-18691190D01*
X13843095Y-18681667D01*
X13890714Y-18681667D01*
X13909762Y-18691190D01*
X13919286Y-18700714D01*
X13928809Y-18719762D01*
X13928809Y-18767381D01*
X13919286Y-18786429D01*
X13909762Y-18795952D01*
X13890714Y-18805476D01*
X13843095Y-18805476D01*
X13824048Y-18795952D01*
X13814524Y-18786429D01*
X14100238Y-18605476D02*
X14062143Y-18605476D01*
X14043095Y-18615000D01*
X14033571Y-18624524D01*
X14014524Y-18653095D01*
X14005000Y-18691190D01*
X14005000Y-18767381D01*
X14014524Y-18786429D01*
X14024048Y-18795952D01*
X14043095Y-18805476D01*
X14081190Y-18805476D01*
X14100238Y-18795952D01*
X14109762Y-18786429D01*
X14119286Y-18767381D01*
X14119286Y-18719762D01*
X14109762Y-18700714D01*
X14100238Y-18691190D01*
X14081190Y-18681667D01*
X14043095Y-18681667D01*
X14024048Y-18691190D01*
X14014524Y-18700714D01*
X14005000Y-18719762D01*
X14195476Y-18605476D02*
X14195476Y-18643571D01*
X14271667Y-18605476D02*
X14271667Y-18643571D01*
X14566905Y-18881667D02*
X14557381Y-18872143D01*
X14538333Y-18843571D01*
X14528809Y-18824524D01*
X14519286Y-18795952D01*
X14509762Y-18748333D01*
X14509762Y-18710238D01*
X14519286Y-18662619D01*
X14528809Y-18634048D01*
X14538333Y-18615000D01*
X14557381Y-18586429D01*
X14566905Y-18576905D01*
X14633571Y-18624524D02*
X14643095Y-18615000D01*
X14662143Y-18605476D01*
X14709762Y-18605476D01*
X14728809Y-18615000D01*
X14738333Y-18624524D01*
X14747857Y-18643571D01*
X14747857Y-18662619D01*
X14738333Y-18691190D01*
X14624048Y-18805476D01*
X14747857Y-18805476D01*
X14985952Y-18805476D02*
X14985952Y-18605476D01*
X15071667Y-18805476D02*
X15071667Y-18700714D01*
X15062143Y-18681667D01*
X15043095Y-18672143D01*
X15014524Y-18672143D01*
X14995476Y-18681667D01*
X14985952Y-18691190D01*
X15195476Y-18805476D02*
X15176428Y-18795952D01*
X15166905Y-18786429D01*
X15157381Y-18767381D01*
X15157381Y-18710238D01*
X15166905Y-18691190D01*
X15176428Y-18681667D01*
X15195476Y-18672143D01*
X15224048Y-18672143D01*
X15243095Y-18681667D01*
X15252619Y-18691190D01*
X15262143Y-18710238D01*
X15262143Y-18767381D01*
X15252619Y-18786429D01*
X15243095Y-18795952D01*
X15224048Y-18805476D01*
X15195476Y-18805476D01*
X15376428Y-18805476D02*
X15357381Y-18795952D01*
X15347857Y-18776905D01*
X15347857Y-18605476D01*
X15528809Y-18795952D02*
X15509762Y-18805476D01*
X15471667Y-18805476D01*
X15452619Y-18795952D01*
X15443095Y-18776905D01*
X15443095Y-18700714D01*
X15452619Y-18681667D01*
X15471667Y-18672143D01*
X15509762Y-18672143D01*
X15528809Y-18681667D01*
X15538333Y-18700714D01*
X15538333Y-18719762D01*
X15443095Y-18738810D01*
X15614524Y-18795952D02*
X15633571Y-18805476D01*
X15671667Y-18805476D01*
X15690714Y-18795952D01*
X15700238Y-18776905D01*
X15700238Y-18767381D01*
X15690714Y-18748333D01*
X15671667Y-18738810D01*
X15643095Y-18738810D01*
X15624048Y-18729286D01*
X15614524Y-18710238D01*
X15614524Y-18700714D01*
X15624048Y-18681667D01*
X15643095Y-18672143D01*
X15671667Y-18672143D01*
X15690714Y-18681667D01*
X15766905Y-18881667D02*
X15776428Y-18872143D01*
X15795476Y-18843571D01*
X15805000Y-18824524D01*
X15814524Y-18795952D01*
X15824048Y-18748333D01*
X15824048Y-18710238D01*
X15814524Y-18662619D01*
X15805000Y-18634048D01*
X15795476Y-18615000D01*
X15776428Y-18586429D01*
X15766905Y-18576905D01*
M02*
