%TF.GenerationSoftware,KiCad,Pcbnew,6.0.11+dfsg-1~bpo11+1*%
%TF.CreationDate,2023-06-07T14:08:47+08:00*%
%TF.ProjectId,MiniSNH v1.0 - Front,4d696e69-534e-4482-9076-312e30202d20,rev?*%
%TF.SameCoordinates,Original*%
%TF.FileFunction,Soldermask,Top*%
%TF.FilePolarity,Negative*%
%FSLAX46Y46*%
G04 Gerber Fmt 4.6, Leading zero omitted, Abs format (unit mm)*
G04 Created by KiCad (PCBNEW 6.0.11+dfsg-1~bpo11+1) date 2023-06-07 14:08:47*
%MOMM*%
%LPD*%
G01*
G04 APERTURE LIST*
%ADD10C,0.010000*%
%ADD11C,4.200000*%
%ADD12C,8.000000*%
G04 APERTURE END LIST*
%TO.C,G\u002A\u002A\u002A*%
G36*
X113312004Y-141306086D02*
G01*
X113507139Y-141375486D01*
X113693514Y-141481769D01*
X113867970Y-141623965D01*
X114027345Y-141801102D01*
X114103843Y-141907650D01*
X114244610Y-142155359D01*
X114360693Y-142437385D01*
X114452068Y-142753639D01*
X114518713Y-143104028D01*
X114560603Y-143488463D01*
X114574374Y-143751167D01*
X114571267Y-144278855D01*
X114528666Y-144815988D01*
X114447383Y-145359077D01*
X114328234Y-145904633D01*
X114172033Y-146449168D01*
X113979593Y-146989193D01*
X113751731Y-147521220D01*
X113640565Y-147751667D01*
X113476624Y-148064379D01*
X113315126Y-148339959D01*
X113152810Y-148583219D01*
X112986413Y-148798975D01*
X112812672Y-148992040D01*
X112772835Y-149032250D01*
X112621016Y-149171336D01*
X112480708Y-149274441D01*
X112346677Y-149344465D01*
X112213686Y-149384308D01*
X112116319Y-149395900D01*
X112000505Y-149394836D01*
X111907932Y-149380182D01*
X111887832Y-149373753D01*
X111768230Y-149310249D01*
X111659084Y-149212357D01*
X111560043Y-149079168D01*
X111470752Y-148909773D01*
X111390858Y-148703262D01*
X111320010Y-148458726D01*
X111257853Y-148175257D01*
X111204035Y-147851945D01*
X111159273Y-147497667D01*
X111148476Y-147372041D01*
X111139301Y-147210722D01*
X111131778Y-147020316D01*
X111125936Y-146807434D01*
X111121802Y-146578683D01*
X111119406Y-146340672D01*
X111118777Y-146100011D01*
X111119943Y-145863308D01*
X111122934Y-145637171D01*
X111127777Y-145428210D01*
X111134503Y-145243033D01*
X111143140Y-145088249D01*
X111148469Y-145021167D01*
X111198437Y-144538642D01*
X111257283Y-144095673D01*
X111325502Y-143690320D01*
X111403594Y-143320643D01*
X111492055Y-142984701D01*
X111591384Y-142680554D01*
X111702077Y-142406264D01*
X111824632Y-142159888D01*
X111925663Y-141990661D01*
X112013165Y-141870349D01*
X112120806Y-141745687D01*
X112239102Y-141626033D01*
X112358572Y-141520746D01*
X112469733Y-141439186D01*
X112507095Y-141416765D01*
X112705656Y-141328910D01*
X112908102Y-141281827D01*
X113111271Y-141274543D01*
X113312004Y-141306086D01*
G37*
D10*
X113312004Y-141306086D02*
X113507139Y-141375486D01*
X113693514Y-141481769D01*
X113867970Y-141623965D01*
X114027345Y-141801102D01*
X114103843Y-141907650D01*
X114244610Y-142155359D01*
X114360693Y-142437385D01*
X114452068Y-142753639D01*
X114518713Y-143104028D01*
X114560603Y-143488463D01*
X114574374Y-143751167D01*
X114571267Y-144278855D01*
X114528666Y-144815988D01*
X114447383Y-145359077D01*
X114328234Y-145904633D01*
X114172033Y-146449168D01*
X113979593Y-146989193D01*
X113751731Y-147521220D01*
X113640565Y-147751667D01*
X113476624Y-148064379D01*
X113315126Y-148339959D01*
X113152810Y-148583219D01*
X112986413Y-148798975D01*
X112812672Y-148992040D01*
X112772835Y-149032250D01*
X112621016Y-149171336D01*
X112480708Y-149274441D01*
X112346677Y-149344465D01*
X112213686Y-149384308D01*
X112116319Y-149395900D01*
X112000505Y-149394836D01*
X111907932Y-149380182D01*
X111887832Y-149373753D01*
X111768230Y-149310249D01*
X111659084Y-149212357D01*
X111560043Y-149079168D01*
X111470752Y-148909773D01*
X111390858Y-148703262D01*
X111320010Y-148458726D01*
X111257853Y-148175257D01*
X111204035Y-147851945D01*
X111159273Y-147497667D01*
X111148476Y-147372041D01*
X111139301Y-147210722D01*
X111131778Y-147020316D01*
X111125936Y-146807434D01*
X111121802Y-146578683D01*
X111119406Y-146340672D01*
X111118777Y-146100011D01*
X111119943Y-145863308D01*
X111122934Y-145637171D01*
X111127777Y-145428210D01*
X111134503Y-145243033D01*
X111143140Y-145088249D01*
X111148469Y-145021167D01*
X111198437Y-144538642D01*
X111257283Y-144095673D01*
X111325502Y-143690320D01*
X111403594Y-143320643D01*
X111492055Y-142984701D01*
X111591384Y-142680554D01*
X111702077Y-142406264D01*
X111824632Y-142159888D01*
X111925663Y-141990661D01*
X112013165Y-141870349D01*
X112120806Y-141745687D01*
X112239102Y-141626033D01*
X112358572Y-141520746D01*
X112469733Y-141439186D01*
X112507095Y-141416765D01*
X112705656Y-141328910D01*
X112908102Y-141281827D01*
X113111271Y-141274543D01*
X113312004Y-141306086D01*
G36*
X127162070Y-141290319D02*
G01*
X127346293Y-141338883D01*
X127521218Y-141422769D01*
X127692166Y-141544387D01*
X127823556Y-141664389D01*
X127992622Y-141855748D01*
X128145953Y-142077831D01*
X128284186Y-142332195D01*
X128407960Y-142620400D01*
X128517915Y-142944004D01*
X128614688Y-143304565D01*
X128698918Y-143703642D01*
X128729319Y-143874871D01*
X128794125Y-144302222D01*
X128843795Y-144730258D01*
X128878893Y-145167361D01*
X128899984Y-145621916D01*
X128907634Y-146102306D01*
X128904936Y-146481667D01*
X128892819Y-146919632D01*
X128870840Y-147318068D01*
X128838742Y-147678671D01*
X128796265Y-148003141D01*
X128743153Y-148293177D01*
X128679146Y-148550478D01*
X128603988Y-148776742D01*
X128530341Y-148947583D01*
X128443806Y-149105665D01*
X128354556Y-149225257D01*
X128257856Y-149310155D01*
X128148970Y-149364152D01*
X128023165Y-149391044D01*
X127972304Y-149394844D01*
X127887900Y-149395715D01*
X127813138Y-149391515D01*
X127765094Y-149383362D01*
X127633122Y-149325002D01*
X127488788Y-149233749D01*
X127338216Y-149114796D01*
X127187530Y-148973335D01*
X127042856Y-148814557D01*
X126938843Y-148683000D01*
X126720845Y-148363276D01*
X126512137Y-148007726D01*
X126315175Y-147622298D01*
X126132416Y-147212944D01*
X125966316Y-146785616D01*
X125819332Y-146346263D01*
X125693921Y-145900836D01*
X125592539Y-145455286D01*
X125580086Y-145391583D01*
X125538751Y-145163868D01*
X125506783Y-144957699D01*
X125483159Y-144761712D01*
X125466854Y-144564543D01*
X125456846Y-144354826D01*
X125452109Y-144121197D01*
X125451372Y-143962833D01*
X125452793Y-143733893D01*
X125457770Y-143538483D01*
X125467234Y-143367883D01*
X125482115Y-143213370D01*
X125503344Y-143066224D01*
X125531852Y-142917724D01*
X125568570Y-142759147D01*
X125588072Y-142681970D01*
X125676036Y-142397973D01*
X125785458Y-142141791D01*
X125914615Y-141915189D01*
X126061782Y-141719931D01*
X126225236Y-141557781D01*
X126403252Y-141430504D01*
X126594107Y-141339863D01*
X126796076Y-141287624D01*
X126963228Y-141274667D01*
X127162070Y-141290319D01*
G37*
X127162070Y-141290319D02*
X127346293Y-141338883D01*
X127521218Y-141422769D01*
X127692166Y-141544387D01*
X127823556Y-141664389D01*
X127992622Y-141855748D01*
X128145953Y-142077831D01*
X128284186Y-142332195D01*
X128407960Y-142620400D01*
X128517915Y-142944004D01*
X128614688Y-143304565D01*
X128698918Y-143703642D01*
X128729319Y-143874871D01*
X128794125Y-144302222D01*
X128843795Y-144730258D01*
X128878893Y-145167361D01*
X128899984Y-145621916D01*
X128907634Y-146102306D01*
X128904936Y-146481667D01*
X128892819Y-146919632D01*
X128870840Y-147318068D01*
X128838742Y-147678671D01*
X128796265Y-148003141D01*
X128743153Y-148293177D01*
X128679146Y-148550478D01*
X128603988Y-148776742D01*
X128530341Y-148947583D01*
X128443806Y-149105665D01*
X128354556Y-149225257D01*
X128257856Y-149310155D01*
X128148970Y-149364152D01*
X128023165Y-149391044D01*
X127972304Y-149394844D01*
X127887900Y-149395715D01*
X127813138Y-149391515D01*
X127765094Y-149383362D01*
X127633122Y-149325002D01*
X127488788Y-149233749D01*
X127338216Y-149114796D01*
X127187530Y-148973335D01*
X127042856Y-148814557D01*
X126938843Y-148683000D01*
X126720845Y-148363276D01*
X126512137Y-148007726D01*
X126315175Y-147622298D01*
X126132416Y-147212944D01*
X125966316Y-146785616D01*
X125819332Y-146346263D01*
X125693921Y-145900836D01*
X125592539Y-145455286D01*
X125580086Y-145391583D01*
X125538751Y-145163868D01*
X125506783Y-144957699D01*
X125483159Y-144761712D01*
X125466854Y-144564543D01*
X125456846Y-144354826D01*
X125452109Y-144121197D01*
X125451372Y-143962833D01*
X125452793Y-143733893D01*
X125457770Y-143538483D01*
X125467234Y-143367883D01*
X125482115Y-143213370D01*
X125503344Y-143066224D01*
X125531852Y-142917724D01*
X125568570Y-142759147D01*
X125588072Y-142681970D01*
X125676036Y-142397973D01*
X125785458Y-142141791D01*
X125914615Y-141915189D01*
X126061782Y-141719931D01*
X126225236Y-141557781D01*
X126403252Y-141430504D01*
X126594107Y-141339863D01*
X126796076Y-141287624D01*
X126963228Y-141274667D01*
X127162070Y-141290319D01*
G36*
X127468892Y-108116091D02*
G01*
X127705400Y-108146298D01*
X127939375Y-108200630D01*
X128159659Y-108277500D01*
X128217763Y-108303030D01*
X128468501Y-108441201D01*
X128693000Y-108611968D01*
X128891343Y-108815475D01*
X129063613Y-109051867D01*
X129209892Y-109321289D01*
X129330262Y-109623887D01*
X129424804Y-109959804D01*
X129493602Y-110329187D01*
X129526776Y-110610881D01*
X129537529Y-110774670D01*
X129543094Y-110967652D01*
X129543748Y-111179431D01*
X129539769Y-111399609D01*
X129531436Y-111617789D01*
X129519027Y-111823573D01*
X129502820Y-112006565D01*
X129485906Y-112138750D01*
X129421897Y-112498488D01*
X129345463Y-112826248D01*
X129254119Y-113131200D01*
X129145384Y-113422515D01*
X129125426Y-113470315D01*
X128962225Y-113814510D01*
X128776678Y-114131662D01*
X128570772Y-114420141D01*
X128346493Y-114678317D01*
X128105827Y-114904561D01*
X127850762Y-115097243D01*
X127583284Y-115254733D01*
X127305379Y-115375402D01*
X127019035Y-115457620D01*
X126726237Y-115499757D01*
X126646334Y-115504050D01*
X126531646Y-115505774D01*
X126416195Y-115503732D01*
X126315998Y-115498386D01*
X126264385Y-115493048D01*
X126119556Y-115465715D01*
X125955899Y-115423516D01*
X125791768Y-115371824D01*
X125645517Y-115316012D01*
X125617619Y-115303738D01*
X125429201Y-115203165D01*
X125249260Y-115078479D01*
X125086356Y-114937047D01*
X124949044Y-114786238D01*
X124852302Y-114644885D01*
X124779118Y-114501326D01*
X124730411Y-114365139D01*
X124702401Y-114221516D01*
X124691308Y-114055647D01*
X124690748Y-114012000D01*
X124692869Y-113896740D01*
X124701241Y-113783905D01*
X124717171Y-113669134D01*
X124741968Y-113548067D01*
X124776938Y-113416345D01*
X124823390Y-113269609D01*
X124882631Y-113103499D01*
X124955968Y-112913655D01*
X125044708Y-112695718D01*
X125150161Y-112445328D01*
X125185243Y-112363248D01*
X125294052Y-112106635D01*
X125387266Y-111879374D01*
X125467074Y-111674024D01*
X125535662Y-111483142D01*
X125595216Y-111299288D01*
X125647923Y-111115019D01*
X125695971Y-110922893D01*
X125741546Y-110715469D01*
X125786834Y-110485304D01*
X125834022Y-110224958D01*
X125863479Y-110055126D01*
X125893207Y-109885185D01*
X125923626Y-109717572D01*
X125953251Y-109560020D01*
X125980598Y-109420262D01*
X126004181Y-109306031D01*
X126022517Y-109225057D01*
X126024016Y-109219043D01*
X126106079Y-108957565D01*
X126211501Y-108731339D01*
X126340409Y-108540229D01*
X126492931Y-108384097D01*
X126669193Y-108262808D01*
X126869324Y-108176225D01*
X127032912Y-108134406D01*
X127241010Y-108111598D01*
X127468892Y-108116091D01*
G37*
X127468892Y-108116091D02*
X127705400Y-108146298D01*
X127939375Y-108200630D01*
X128159659Y-108277500D01*
X128217763Y-108303030D01*
X128468501Y-108441201D01*
X128693000Y-108611968D01*
X128891343Y-108815475D01*
X129063613Y-109051867D01*
X129209892Y-109321289D01*
X129330262Y-109623887D01*
X129424804Y-109959804D01*
X129493602Y-110329187D01*
X129526776Y-110610881D01*
X129537529Y-110774670D01*
X129543094Y-110967652D01*
X129543748Y-111179431D01*
X129539769Y-111399609D01*
X129531436Y-111617789D01*
X129519027Y-111823573D01*
X129502820Y-112006565D01*
X129485906Y-112138750D01*
X129421897Y-112498488D01*
X129345463Y-112826248D01*
X129254119Y-113131200D01*
X129145384Y-113422515D01*
X129125426Y-113470315D01*
X128962225Y-113814510D01*
X128776678Y-114131662D01*
X128570772Y-114420141D01*
X128346493Y-114678317D01*
X128105827Y-114904561D01*
X127850762Y-115097243D01*
X127583284Y-115254733D01*
X127305379Y-115375402D01*
X127019035Y-115457620D01*
X126726237Y-115499757D01*
X126646334Y-115504050D01*
X126531646Y-115505774D01*
X126416195Y-115503732D01*
X126315998Y-115498386D01*
X126264385Y-115493048D01*
X126119556Y-115465715D01*
X125955899Y-115423516D01*
X125791768Y-115371824D01*
X125645517Y-115316012D01*
X125617619Y-115303738D01*
X125429201Y-115203165D01*
X125249260Y-115078479D01*
X125086356Y-114937047D01*
X124949044Y-114786238D01*
X124852302Y-114644885D01*
X124779118Y-114501326D01*
X124730411Y-114365139D01*
X124702401Y-114221516D01*
X124691308Y-114055647D01*
X124690748Y-114012000D01*
X124692869Y-113896740D01*
X124701241Y-113783905D01*
X124717171Y-113669134D01*
X124741968Y-113548067D01*
X124776938Y-113416345D01*
X124823390Y-113269609D01*
X124882631Y-113103499D01*
X124955968Y-112913655D01*
X125044708Y-112695718D01*
X125150161Y-112445328D01*
X125185243Y-112363248D01*
X125294052Y-112106635D01*
X125387266Y-111879374D01*
X125467074Y-111674024D01*
X125535662Y-111483142D01*
X125595216Y-111299288D01*
X125647923Y-111115019D01*
X125695971Y-110922893D01*
X125741546Y-110715469D01*
X125786834Y-110485304D01*
X125834022Y-110224958D01*
X125863479Y-110055126D01*
X125893207Y-109885185D01*
X125923626Y-109717572D01*
X125953251Y-109560020D01*
X125980598Y-109420262D01*
X126004181Y-109306031D01*
X126022517Y-109225057D01*
X126024016Y-109219043D01*
X126106079Y-108957565D01*
X126211501Y-108731339D01*
X126340409Y-108540229D01*
X126492931Y-108384097D01*
X126669193Y-108262808D01*
X126869324Y-108176225D01*
X127032912Y-108134406D01*
X127241010Y-108111598D01*
X127468892Y-108116091D01*
%TD*%
D11*
%TO.C,*%
X114974998Y-68613020D03*
%TD*%
%TO.C,*%
X115025064Y-161499910D03*
%TD*%
%TO.C,*%
X115025065Y-101999905D03*
%TD*%
%TO.C,*%
X119999999Y-146882027D03*
%TD*%
D12*
%TO.C,*%
X120000000Y-131700000D03*
%TD*%
D11*
%TO.C,*%
X125024997Y-68613022D03*
%TD*%
%TO.C,*%
X125024997Y-101920315D03*
%TD*%
%TO.C,*%
X125024999Y-161499910D03*
%TD*%
D12*
%TO.C,*%
X120000000Y-82400000D03*
%TD*%
M02*
