%TF.GenerationSoftware,KiCad,Pcbnew,6.0.11+dfsg-1~bpo11+1*%
%TF.CreationDate,2023-06-07T14:08:49+08:00*%
%TF.ProjectId,MiniSNH v1.0 - Front,4d696e69-534e-4482-9076-312e30202d20,rev?*%
%TF.SameCoordinates,Original*%
%TF.FileFunction,Drillmap*%
%TF.FilePolarity,Positive*%
%FSLAX45Y45*%
G04 Gerber Fmt 4.5, Leading zero omitted, Abs format (unit mm)*
G04 Created by KiCad (PCBNEW 6.0.11+dfsg-1~bpo11+1) date 2023-06-07 14:08:49*
%MOMM*%
%LPD*%
G01*
G04 APERTURE LIST*
%ADD10C,0.100000*%
%ADD11C,0.200000*%
G04 APERTURE END LIST*
D10*
X11000000Y-17750000D02*
X11000000Y-4900000D01*
X13000000Y-17750000D02*
X13000000Y-4900000D01*
X11000000Y-4900000D02*
X13000000Y-4900000D01*
X13000000Y-17750000D02*
X11000000Y-17750000D01*
D11*
X11252619Y-18065476D02*
X11252619Y-17865476D01*
X11300238Y-17865476D01*
X11328809Y-17875000D01*
X11347857Y-17894048D01*
X11357381Y-17913095D01*
X11366905Y-17951190D01*
X11366905Y-17979762D01*
X11357381Y-18017857D01*
X11347857Y-18036905D01*
X11328809Y-18055952D01*
X11300238Y-18065476D01*
X11252619Y-18065476D01*
X11452619Y-18065476D02*
X11452619Y-17932143D01*
X11452619Y-17970238D02*
X11462143Y-17951190D01*
X11471667Y-17941667D01*
X11490714Y-17932143D01*
X11509762Y-17932143D01*
X11576428Y-18065476D02*
X11576428Y-17932143D01*
X11576428Y-17865476D02*
X11566905Y-17875000D01*
X11576428Y-17884524D01*
X11585952Y-17875000D01*
X11576428Y-17865476D01*
X11576428Y-17884524D01*
X11700238Y-18065476D02*
X11681190Y-18055952D01*
X11671667Y-18036905D01*
X11671667Y-17865476D01*
X11805000Y-18065476D02*
X11785952Y-18055952D01*
X11776428Y-18036905D01*
X11776428Y-17865476D01*
X12033571Y-18065476D02*
X12033571Y-17865476D01*
X12100238Y-18008333D01*
X12166905Y-17865476D01*
X12166905Y-18065476D01*
X12347857Y-18065476D02*
X12347857Y-17960714D01*
X12338333Y-17941667D01*
X12319286Y-17932143D01*
X12281190Y-17932143D01*
X12262143Y-17941667D01*
X12347857Y-18055952D02*
X12328809Y-18065476D01*
X12281190Y-18065476D01*
X12262143Y-18055952D01*
X12252619Y-18036905D01*
X12252619Y-18017857D01*
X12262143Y-17998810D01*
X12281190Y-17989286D01*
X12328809Y-17989286D01*
X12347857Y-17979762D01*
X12443095Y-17932143D02*
X12443095Y-18132143D01*
X12443095Y-17941667D02*
X12462143Y-17932143D01*
X12500238Y-17932143D01*
X12519286Y-17941667D01*
X12528809Y-17951190D01*
X12538333Y-17970238D01*
X12538333Y-18027381D01*
X12528809Y-18046429D01*
X12519286Y-18055952D01*
X12500238Y-18065476D01*
X12462143Y-18065476D01*
X12443095Y-18055952D01*
X12624048Y-18046429D02*
X12633571Y-18055952D01*
X12624048Y-18065476D01*
X12614524Y-18055952D01*
X12624048Y-18046429D01*
X12624048Y-18065476D01*
X12624048Y-17941667D02*
X12633571Y-17951190D01*
X12624048Y-17960714D01*
X12614524Y-17951190D01*
X12624048Y-17941667D01*
X12624048Y-17960714D01*
M02*
