%TF.GenerationSoftware,KiCad,Pcbnew,6.0.11+dfsg-1~bpo11+1*%
%TF.CreationDate,2023-06-07T14:09:25+08:00*%
%TF.ProjectId,MiniSNH v1.0 - Main,4d696e69-534e-4482-9076-312e30202d20,rev?*%
%TF.SameCoordinates,Original*%
%TF.FileFunction,Legend,Bot*%
%TF.FilePolarity,Positive*%
%FSLAX46Y46*%
G04 Gerber Fmt 4.6, Leading zero omitted, Abs format (unit mm)*
G04 Created by KiCad (PCBNEW 6.0.11+dfsg-1~bpo11+1) date 2023-06-07 14:09:25*
%MOMM*%
%LPD*%
G01*
G04 APERTURE LIST*
%ADD10C,0.150000*%
%ADD11C,0.180000*%
%ADD12C,0.120000*%
G04 APERTURE END LIST*
D10*
%TO.C,C17*%
X147167857Y-73187142D02*
X147215476Y-73234761D01*
X147358333Y-73282380D01*
X147453571Y-73282380D01*
X147596428Y-73234761D01*
X147691666Y-73139523D01*
X147739285Y-73044285D01*
X147786904Y-72853809D01*
X147786904Y-72710952D01*
X147739285Y-72520476D01*
X147691666Y-72425238D01*
X147596428Y-72330000D01*
X147453571Y-72282380D01*
X147358333Y-72282380D01*
X147215476Y-72330000D01*
X147167857Y-72377619D01*
X146215476Y-73282380D02*
X146786904Y-73282380D01*
X146501190Y-73282380D02*
X146501190Y-72282380D01*
X146596428Y-72425238D01*
X146691666Y-72520476D01*
X146786904Y-72568095D01*
X145882142Y-72282380D02*
X145215476Y-72282380D01*
X145644047Y-73282380D01*
%TO.C,C4*%
X136291666Y-93432142D02*
X136339285Y-93479761D01*
X136482142Y-93527380D01*
X136577380Y-93527380D01*
X136720238Y-93479761D01*
X136815476Y-93384523D01*
X136863095Y-93289285D01*
X136910714Y-93098809D01*
X136910714Y-92955952D01*
X136863095Y-92765476D01*
X136815476Y-92670238D01*
X136720238Y-92575000D01*
X136577380Y-92527380D01*
X136482142Y-92527380D01*
X136339285Y-92575000D01*
X136291666Y-92622619D01*
X135434523Y-92860714D02*
X135434523Y-93527380D01*
X135672619Y-92479761D02*
X135910714Y-93194047D01*
X135291666Y-93194047D01*
%TO.C,R22*%
X154242857Y-159902380D02*
X154576190Y-159426190D01*
X154814285Y-159902380D02*
X154814285Y-158902380D01*
X154433333Y-158902380D01*
X154338095Y-158950000D01*
X154290476Y-158997619D01*
X154242857Y-159092857D01*
X154242857Y-159235714D01*
X154290476Y-159330952D01*
X154338095Y-159378571D01*
X154433333Y-159426190D01*
X154814285Y-159426190D01*
X153861904Y-158997619D02*
X153814285Y-158950000D01*
X153719047Y-158902380D01*
X153480952Y-158902380D01*
X153385714Y-158950000D01*
X153338095Y-158997619D01*
X153290476Y-159092857D01*
X153290476Y-159188095D01*
X153338095Y-159330952D01*
X153909523Y-159902380D01*
X153290476Y-159902380D01*
X152909523Y-158997619D02*
X152861904Y-158950000D01*
X152766666Y-158902380D01*
X152528571Y-158902380D01*
X152433333Y-158950000D01*
X152385714Y-158997619D01*
X152338095Y-159092857D01*
X152338095Y-159188095D01*
X152385714Y-159330952D01*
X152957142Y-159902380D01*
X152338095Y-159902380D01*
%TO.C,C2*%
X144766666Y-81007142D02*
X144814285Y-81054761D01*
X144957142Y-81102380D01*
X145052380Y-81102380D01*
X145195238Y-81054761D01*
X145290476Y-80959523D01*
X145338095Y-80864285D01*
X145385714Y-80673809D01*
X145385714Y-80530952D01*
X145338095Y-80340476D01*
X145290476Y-80245238D01*
X145195238Y-80150000D01*
X145052380Y-80102380D01*
X144957142Y-80102380D01*
X144814285Y-80150000D01*
X144766666Y-80197619D01*
X144385714Y-80197619D02*
X144338095Y-80150000D01*
X144242857Y-80102380D01*
X144004761Y-80102380D01*
X143909523Y-80150000D01*
X143861904Y-80197619D01*
X143814285Y-80292857D01*
X143814285Y-80388095D01*
X143861904Y-80530952D01*
X144433333Y-81102380D01*
X143814285Y-81102380D01*
%TO.C,R13*%
X152792857Y-132827380D02*
X153126190Y-132351190D01*
X153364285Y-132827380D02*
X153364285Y-131827380D01*
X152983333Y-131827380D01*
X152888095Y-131875000D01*
X152840476Y-131922619D01*
X152792857Y-132017857D01*
X152792857Y-132160714D01*
X152840476Y-132255952D01*
X152888095Y-132303571D01*
X152983333Y-132351190D01*
X153364285Y-132351190D01*
X151840476Y-132827380D02*
X152411904Y-132827380D01*
X152126190Y-132827380D02*
X152126190Y-131827380D01*
X152221428Y-131970238D01*
X152316666Y-132065476D01*
X152411904Y-132113095D01*
X151507142Y-131827380D02*
X150888095Y-131827380D01*
X151221428Y-132208333D01*
X151078571Y-132208333D01*
X150983333Y-132255952D01*
X150935714Y-132303571D01*
X150888095Y-132398809D01*
X150888095Y-132636904D01*
X150935714Y-132732142D01*
X150983333Y-132779761D01*
X151078571Y-132827380D01*
X151364285Y-132827380D01*
X151459523Y-132779761D01*
X151507142Y-132732142D01*
%TO.C,U1*%
X147361904Y-80452380D02*
X147361904Y-81261904D01*
X147314285Y-81357142D01*
X147266666Y-81404761D01*
X147171428Y-81452380D01*
X146980952Y-81452380D01*
X146885714Y-81404761D01*
X146838095Y-81357142D01*
X146790476Y-81261904D01*
X146790476Y-80452380D01*
X145790476Y-81452380D02*
X146361904Y-81452380D01*
X146076190Y-81452380D02*
X146076190Y-80452380D01*
X146171428Y-80595238D01*
X146266666Y-80690476D01*
X146361904Y-80738095D01*
X143477380Y-82030952D02*
X143477380Y-82602380D01*
X144477380Y-82316666D02*
X143477380Y-82316666D01*
X144477380Y-83411904D02*
X144477380Y-82935714D01*
X143477380Y-82935714D01*
X143477380Y-83935714D02*
X143477380Y-84030952D01*
X143525000Y-84126190D01*
X143572619Y-84173809D01*
X143667857Y-84221428D01*
X143858333Y-84269047D01*
X144096428Y-84269047D01*
X144286904Y-84221428D01*
X144382142Y-84173809D01*
X144429761Y-84126190D01*
X144477380Y-84030952D01*
X144477380Y-83935714D01*
X144429761Y-83840476D01*
X144382142Y-83792857D01*
X144286904Y-83745238D01*
X144096428Y-83697619D01*
X143858333Y-83697619D01*
X143667857Y-83745238D01*
X143572619Y-83792857D01*
X143525000Y-83840476D01*
X143477380Y-83935714D01*
X143477380Y-84602380D02*
X143477380Y-85269047D01*
X144477380Y-84840476D01*
X143572619Y-85602380D02*
X143525000Y-85650000D01*
X143477380Y-85745238D01*
X143477380Y-85983333D01*
X143525000Y-86078571D01*
X143572619Y-86126190D01*
X143667857Y-86173809D01*
X143763095Y-86173809D01*
X143905952Y-86126190D01*
X144477380Y-85554761D01*
X144477380Y-86173809D01*
%TO.C,U3*%
X143752380Y-160688095D02*
X144561904Y-160688095D01*
X144657142Y-160735714D01*
X144704761Y-160783333D01*
X144752380Y-160878571D01*
X144752380Y-161069047D01*
X144704761Y-161164285D01*
X144657142Y-161211904D01*
X144561904Y-161259523D01*
X143752380Y-161259523D01*
X143752380Y-161640476D02*
X143752380Y-162259523D01*
X144133333Y-161926190D01*
X144133333Y-162069047D01*
X144180952Y-162164285D01*
X144228571Y-162211904D01*
X144323809Y-162259523D01*
X144561904Y-162259523D01*
X144657142Y-162211904D01*
X144704761Y-162164285D01*
X144752380Y-162069047D01*
X144752380Y-161783333D01*
X144704761Y-161688095D01*
X144657142Y-161640476D01*
X145152380Y-159180952D02*
X145152380Y-159752380D01*
X146152380Y-159466666D02*
X145152380Y-159466666D01*
X146152380Y-160561904D02*
X146152380Y-160085714D01*
X145152380Y-160085714D01*
X145152380Y-161085714D02*
X145152380Y-161180952D01*
X145200000Y-161276190D01*
X145247619Y-161323809D01*
X145342857Y-161371428D01*
X145533333Y-161419047D01*
X145771428Y-161419047D01*
X145961904Y-161371428D01*
X146057142Y-161323809D01*
X146104761Y-161276190D01*
X146152380Y-161180952D01*
X146152380Y-161085714D01*
X146104761Y-160990476D01*
X146057142Y-160942857D01*
X145961904Y-160895238D01*
X145771428Y-160847619D01*
X145533333Y-160847619D01*
X145342857Y-160895238D01*
X145247619Y-160942857D01*
X145200000Y-160990476D01*
X145152380Y-161085714D01*
X145152380Y-161752380D02*
X145152380Y-162419047D01*
X146152380Y-161990476D01*
X145247619Y-162752380D02*
X145200000Y-162800000D01*
X145152380Y-162895238D01*
X145152380Y-163133333D01*
X145200000Y-163228571D01*
X145247619Y-163276190D01*
X145342857Y-163323809D01*
X145438095Y-163323809D01*
X145580952Y-163276190D01*
X146152380Y-162704761D01*
X146152380Y-163323809D01*
%TO.C,R10*%
X152792857Y-134352380D02*
X153126190Y-133876190D01*
X153364285Y-134352380D02*
X153364285Y-133352380D01*
X152983333Y-133352380D01*
X152888095Y-133400000D01*
X152840476Y-133447619D01*
X152792857Y-133542857D01*
X152792857Y-133685714D01*
X152840476Y-133780952D01*
X152888095Y-133828571D01*
X152983333Y-133876190D01*
X153364285Y-133876190D01*
X151840476Y-134352380D02*
X152411904Y-134352380D01*
X152126190Y-134352380D02*
X152126190Y-133352380D01*
X152221428Y-133495238D01*
X152316666Y-133590476D01*
X152411904Y-133638095D01*
X151221428Y-133352380D02*
X151126190Y-133352380D01*
X151030952Y-133400000D01*
X150983333Y-133447619D01*
X150935714Y-133542857D01*
X150888095Y-133733333D01*
X150888095Y-133971428D01*
X150935714Y-134161904D01*
X150983333Y-134257142D01*
X151030952Y-134304761D01*
X151126190Y-134352380D01*
X151221428Y-134352380D01*
X151316666Y-134304761D01*
X151364285Y-134257142D01*
X151411904Y-134161904D01*
X151459523Y-133971428D01*
X151459523Y-133733333D01*
X151411904Y-133542857D01*
X151364285Y-133447619D01*
X151316666Y-133400000D01*
X151221428Y-133352380D01*
%TO.C,J2*%
X136633333Y-129702380D02*
X136633333Y-130416666D01*
X136680952Y-130559523D01*
X136776190Y-130654761D01*
X136919047Y-130702380D01*
X137014285Y-130702380D01*
X136204761Y-129797619D02*
X136157142Y-129750000D01*
X136061904Y-129702380D01*
X135823809Y-129702380D01*
X135728571Y-129750000D01*
X135680952Y-129797619D01*
X135633333Y-129892857D01*
X135633333Y-129988095D01*
X135680952Y-130130952D01*
X136252380Y-130702380D01*
X135633333Y-130702380D01*
%TO.C,C11*%
X145757142Y-118532142D02*
X145804761Y-118484523D01*
X145852380Y-118341666D01*
X145852380Y-118246428D01*
X145804761Y-118103571D01*
X145709523Y-118008333D01*
X145614285Y-117960714D01*
X145423809Y-117913095D01*
X145280952Y-117913095D01*
X145090476Y-117960714D01*
X144995238Y-118008333D01*
X144900000Y-118103571D01*
X144852380Y-118246428D01*
X144852380Y-118341666D01*
X144900000Y-118484523D01*
X144947619Y-118532142D01*
X145852380Y-119484523D02*
X145852380Y-118913095D01*
X145852380Y-119198809D02*
X144852380Y-119198809D01*
X144995238Y-119103571D01*
X145090476Y-119008333D01*
X145138095Y-118913095D01*
X145852380Y-120436904D02*
X145852380Y-119865476D01*
X145852380Y-120151190D02*
X144852380Y-120151190D01*
X144995238Y-120055952D01*
X145090476Y-119960714D01*
X145138095Y-119865476D01*
%TO.C,R4*%
X150552380Y-80383333D02*
X150076190Y-80050000D01*
X150552380Y-79811904D02*
X149552380Y-79811904D01*
X149552380Y-80192857D01*
X149600000Y-80288095D01*
X149647619Y-80335714D01*
X149742857Y-80383333D01*
X149885714Y-80383333D01*
X149980952Y-80335714D01*
X150028571Y-80288095D01*
X150076190Y-80192857D01*
X150076190Y-79811904D01*
X149885714Y-81240476D02*
X150552380Y-81240476D01*
X149504761Y-81002380D02*
X150219047Y-80764285D01*
X150219047Y-81383333D01*
%TO.C,R15*%
X137142857Y-163052380D02*
X137476190Y-162576190D01*
X137714285Y-163052380D02*
X137714285Y-162052380D01*
X137333333Y-162052380D01*
X137238095Y-162100000D01*
X137190476Y-162147619D01*
X137142857Y-162242857D01*
X137142857Y-162385714D01*
X137190476Y-162480952D01*
X137238095Y-162528571D01*
X137333333Y-162576190D01*
X137714285Y-162576190D01*
X136190476Y-163052380D02*
X136761904Y-163052380D01*
X136476190Y-163052380D02*
X136476190Y-162052380D01*
X136571428Y-162195238D01*
X136666666Y-162290476D01*
X136761904Y-162338095D01*
X135285714Y-162052380D02*
X135761904Y-162052380D01*
X135809523Y-162528571D01*
X135761904Y-162480952D01*
X135666666Y-162433333D01*
X135428571Y-162433333D01*
X135333333Y-162480952D01*
X135285714Y-162528571D01*
X135238095Y-162623809D01*
X135238095Y-162861904D01*
X135285714Y-162957142D01*
X135333333Y-163004761D01*
X135428571Y-163052380D01*
X135666666Y-163052380D01*
X135761904Y-163004761D01*
X135809523Y-162957142D01*
%TO.C,U4*%
X136922380Y-133013095D02*
X137731904Y-133013095D01*
X137827142Y-133060714D01*
X137874761Y-133108333D01*
X137922380Y-133203571D01*
X137922380Y-133394047D01*
X137874761Y-133489285D01*
X137827142Y-133536904D01*
X137731904Y-133584523D01*
X136922380Y-133584523D01*
X137255714Y-134489285D02*
X137922380Y-134489285D01*
X136874761Y-134251190D02*
X137589047Y-134013095D01*
X137589047Y-134632142D01*
%TO.C,R23*%
X153692857Y-73132380D02*
X154026190Y-72656190D01*
X154264285Y-73132380D02*
X154264285Y-72132380D01*
X153883333Y-72132380D01*
X153788095Y-72180000D01*
X153740476Y-72227619D01*
X153692857Y-72322857D01*
X153692857Y-72465714D01*
X153740476Y-72560952D01*
X153788095Y-72608571D01*
X153883333Y-72656190D01*
X154264285Y-72656190D01*
X153311904Y-72227619D02*
X153264285Y-72180000D01*
X153169047Y-72132380D01*
X152930952Y-72132380D01*
X152835714Y-72180000D01*
X152788095Y-72227619D01*
X152740476Y-72322857D01*
X152740476Y-72418095D01*
X152788095Y-72560952D01*
X153359523Y-73132380D01*
X152740476Y-73132380D01*
X152407142Y-72132380D02*
X151788095Y-72132380D01*
X152121428Y-72513333D01*
X151978571Y-72513333D01*
X151883333Y-72560952D01*
X151835714Y-72608571D01*
X151788095Y-72703809D01*
X151788095Y-72941904D01*
X151835714Y-73037142D01*
X151883333Y-73084761D01*
X151978571Y-73132380D01*
X152264285Y-73132380D01*
X152359523Y-73084761D01*
X152407142Y-73037142D01*
%TO.C,C14*%
X147342857Y-166807142D02*
X147390476Y-166854761D01*
X147533333Y-166902380D01*
X147628571Y-166902380D01*
X147771428Y-166854761D01*
X147866666Y-166759523D01*
X147914285Y-166664285D01*
X147961904Y-166473809D01*
X147961904Y-166330952D01*
X147914285Y-166140476D01*
X147866666Y-166045238D01*
X147771428Y-165950000D01*
X147628571Y-165902380D01*
X147533333Y-165902380D01*
X147390476Y-165950000D01*
X147342857Y-165997619D01*
X146390476Y-166902380D02*
X146961904Y-166902380D01*
X146676190Y-166902380D02*
X146676190Y-165902380D01*
X146771428Y-166045238D01*
X146866666Y-166140476D01*
X146961904Y-166188095D01*
X145533333Y-166235714D02*
X145533333Y-166902380D01*
X145771428Y-165854761D02*
X146009523Y-166569047D01*
X145390476Y-166569047D01*
%TO.C,D5*%
X143202380Y-63061904D02*
X142202380Y-63061904D01*
X142202380Y-63300000D01*
X142250000Y-63442857D01*
X142345238Y-63538095D01*
X142440476Y-63585714D01*
X142630952Y-63633333D01*
X142773809Y-63633333D01*
X142964285Y-63585714D01*
X143059523Y-63538095D01*
X143154761Y-63442857D01*
X143202380Y-63300000D01*
X143202380Y-63061904D01*
X142202380Y-64538095D02*
X142202380Y-64061904D01*
X142678571Y-64014285D01*
X142630952Y-64061904D01*
X142583333Y-64157142D01*
X142583333Y-64395238D01*
X142630952Y-64490476D01*
X142678571Y-64538095D01*
X142773809Y-64585714D01*
X143011904Y-64585714D01*
X143107142Y-64538095D01*
X143154761Y-64490476D01*
X143202380Y-64395238D01*
X143202380Y-64157142D01*
X143154761Y-64061904D01*
X143107142Y-64014285D01*
%TO.C,R8*%
X140802380Y-139083333D02*
X140326190Y-138750000D01*
X140802380Y-138511904D02*
X139802380Y-138511904D01*
X139802380Y-138892857D01*
X139850000Y-138988095D01*
X139897619Y-139035714D01*
X139992857Y-139083333D01*
X140135714Y-139083333D01*
X140230952Y-139035714D01*
X140278571Y-138988095D01*
X140326190Y-138892857D01*
X140326190Y-138511904D01*
X140230952Y-139654761D02*
X140183333Y-139559523D01*
X140135714Y-139511904D01*
X140040476Y-139464285D01*
X139992857Y-139464285D01*
X139897619Y-139511904D01*
X139850000Y-139559523D01*
X139802380Y-139654761D01*
X139802380Y-139845238D01*
X139850000Y-139940476D01*
X139897619Y-139988095D01*
X139992857Y-140035714D01*
X140040476Y-140035714D01*
X140135714Y-139988095D01*
X140183333Y-139940476D01*
X140230952Y-139845238D01*
X140230952Y-139654761D01*
X140278571Y-139559523D01*
X140326190Y-139511904D01*
X140421428Y-139464285D01*
X140611904Y-139464285D01*
X140707142Y-139511904D01*
X140754761Y-139559523D01*
X140802380Y-139654761D01*
X140802380Y-139845238D01*
X140754761Y-139940476D01*
X140707142Y-139988095D01*
X140611904Y-140035714D01*
X140421428Y-140035714D01*
X140326190Y-139988095D01*
X140278571Y-139940476D01*
X140230952Y-139845238D01*
%TO.C,R19*%
X137042857Y-159852380D02*
X137376190Y-159376190D01*
X137614285Y-159852380D02*
X137614285Y-158852380D01*
X137233333Y-158852380D01*
X137138095Y-158900000D01*
X137090476Y-158947619D01*
X137042857Y-159042857D01*
X137042857Y-159185714D01*
X137090476Y-159280952D01*
X137138095Y-159328571D01*
X137233333Y-159376190D01*
X137614285Y-159376190D01*
X136090476Y-159852380D02*
X136661904Y-159852380D01*
X136376190Y-159852380D02*
X136376190Y-158852380D01*
X136471428Y-158995238D01*
X136566666Y-159090476D01*
X136661904Y-159138095D01*
X135614285Y-159852380D02*
X135423809Y-159852380D01*
X135328571Y-159804761D01*
X135280952Y-159757142D01*
X135185714Y-159614285D01*
X135138095Y-159423809D01*
X135138095Y-159042857D01*
X135185714Y-158947619D01*
X135233333Y-158900000D01*
X135328571Y-158852380D01*
X135519047Y-158852380D01*
X135614285Y-158900000D01*
X135661904Y-158947619D01*
X135709523Y-159042857D01*
X135709523Y-159280952D01*
X135661904Y-159376190D01*
X135614285Y-159423809D01*
X135519047Y-159471428D01*
X135328571Y-159471428D01*
X135233333Y-159423809D01*
X135185714Y-159376190D01*
X135138095Y-159280952D01*
%TO.C,D1*%
X153888095Y-127352380D02*
X153888095Y-126352380D01*
X153650000Y-126352380D01*
X153507142Y-126400000D01*
X153411904Y-126495238D01*
X153364285Y-126590476D01*
X153316666Y-126780952D01*
X153316666Y-126923809D01*
X153364285Y-127114285D01*
X153411904Y-127209523D01*
X153507142Y-127304761D01*
X153650000Y-127352380D01*
X153888095Y-127352380D01*
X152364285Y-127352380D02*
X152935714Y-127352380D01*
X152650000Y-127352380D02*
X152650000Y-126352380D01*
X152745238Y-126495238D01*
X152840476Y-126590476D01*
X152935714Y-126638095D01*
%TO.C,C15*%
X136357142Y-138607142D02*
X136404761Y-138559523D01*
X136452380Y-138416666D01*
X136452380Y-138321428D01*
X136404761Y-138178571D01*
X136309523Y-138083333D01*
X136214285Y-138035714D01*
X136023809Y-137988095D01*
X135880952Y-137988095D01*
X135690476Y-138035714D01*
X135595238Y-138083333D01*
X135500000Y-138178571D01*
X135452380Y-138321428D01*
X135452380Y-138416666D01*
X135500000Y-138559523D01*
X135547619Y-138607142D01*
X136452380Y-139559523D02*
X136452380Y-138988095D01*
X136452380Y-139273809D02*
X135452380Y-139273809D01*
X135595238Y-139178571D01*
X135690476Y-139083333D01*
X135738095Y-138988095D01*
X135452380Y-140464285D02*
X135452380Y-139988095D01*
X135928571Y-139940476D01*
X135880952Y-139988095D01*
X135833333Y-140083333D01*
X135833333Y-140321428D01*
X135880952Y-140416666D01*
X135928571Y-140464285D01*
X136023809Y-140511904D01*
X136261904Y-140511904D01*
X136357142Y-140464285D01*
X136404761Y-140416666D01*
X136452380Y-140321428D01*
X136452380Y-140083333D01*
X136404761Y-139988095D01*
X136357142Y-139940476D01*
%TO.C,Q3*%
X136647619Y-67904761D02*
X136600000Y-67809523D01*
X136504761Y-67714285D01*
X136361904Y-67571428D01*
X136314285Y-67476190D01*
X136314285Y-67380952D01*
X136552380Y-67428571D02*
X136504761Y-67333333D01*
X136409523Y-67238095D01*
X136219047Y-67190476D01*
X135885714Y-67190476D01*
X135695238Y-67238095D01*
X135600000Y-67333333D01*
X135552380Y-67428571D01*
X135552380Y-67619047D01*
X135600000Y-67714285D01*
X135695238Y-67809523D01*
X135885714Y-67857142D01*
X136219047Y-67857142D01*
X136409523Y-67809523D01*
X136504761Y-67714285D01*
X136552380Y-67619047D01*
X136552380Y-67428571D01*
X135552380Y-68190476D02*
X135552380Y-68809523D01*
X135933333Y-68476190D01*
X135933333Y-68619047D01*
X135980952Y-68714285D01*
X136028571Y-68761904D01*
X136123809Y-68809523D01*
X136361904Y-68809523D01*
X136457142Y-68761904D01*
X136504761Y-68714285D01*
X136552380Y-68619047D01*
X136552380Y-68333333D01*
X136504761Y-68238095D01*
X136457142Y-68190476D01*
%TO.C,C3*%
X152007142Y-80333333D02*
X152054761Y-80285714D01*
X152102380Y-80142857D01*
X152102380Y-80047619D01*
X152054761Y-79904761D01*
X151959523Y-79809523D01*
X151864285Y-79761904D01*
X151673809Y-79714285D01*
X151530952Y-79714285D01*
X151340476Y-79761904D01*
X151245238Y-79809523D01*
X151150000Y-79904761D01*
X151102380Y-80047619D01*
X151102380Y-80142857D01*
X151150000Y-80285714D01*
X151197619Y-80333333D01*
X151102380Y-80666666D02*
X151102380Y-81285714D01*
X151483333Y-80952380D01*
X151483333Y-81095238D01*
X151530952Y-81190476D01*
X151578571Y-81238095D01*
X151673809Y-81285714D01*
X151911904Y-81285714D01*
X152007142Y-81238095D01*
X152054761Y-81190476D01*
X152102380Y-81095238D01*
X152102380Y-80809523D01*
X152054761Y-80714285D01*
X152007142Y-80666666D01*
%TO.C,C1*%
X152021779Y-88207142D02*
X152069398Y-88254761D01*
X152212255Y-88302380D01*
X152307493Y-88302380D01*
X152450351Y-88254761D01*
X152545589Y-88159523D01*
X152593208Y-88064285D01*
X152640827Y-87873809D01*
X152640827Y-87730952D01*
X152593208Y-87540476D01*
X152545589Y-87445238D01*
X152450351Y-87350000D01*
X152307493Y-87302380D01*
X152212255Y-87302380D01*
X152069398Y-87350000D01*
X152021779Y-87397619D01*
X151069398Y-88302380D02*
X151640827Y-88302380D01*
X151355113Y-88302380D02*
X151355113Y-87302380D01*
X151450351Y-87445238D01*
X151545589Y-87540476D01*
X151640827Y-87588095D01*
X148697619Y-93452380D02*
X149269047Y-93452380D01*
X148983333Y-93452380D02*
X148983333Y-92452380D01*
X149078571Y-92595238D01*
X149173809Y-92690476D01*
X149269047Y-92738095D01*
X148078571Y-92452380D02*
X147983333Y-92452380D01*
X147888095Y-92500000D01*
X147840476Y-92547619D01*
X147792857Y-92642857D01*
X147745238Y-92833333D01*
X147745238Y-93071428D01*
X147792857Y-93261904D01*
X147840476Y-93357142D01*
X147888095Y-93404761D01*
X147983333Y-93452380D01*
X148078571Y-93452380D01*
X148173809Y-93404761D01*
X148221428Y-93357142D01*
X148269047Y-93261904D01*
X148316666Y-93071428D01*
X148316666Y-92833333D01*
X148269047Y-92642857D01*
X148221428Y-92547619D01*
X148173809Y-92500000D01*
X148078571Y-92452380D01*
X147126190Y-92452380D02*
X147030952Y-92452380D01*
X146935714Y-92500000D01*
X146888095Y-92547619D01*
X146840476Y-92642857D01*
X146792857Y-92833333D01*
X146792857Y-93071428D01*
X146840476Y-93261904D01*
X146888095Y-93357142D01*
X146935714Y-93404761D01*
X147030952Y-93452380D01*
X147126190Y-93452380D01*
X147221428Y-93404761D01*
X147269047Y-93357142D01*
X147316666Y-93261904D01*
X147364285Y-93071428D01*
X147364285Y-92833333D01*
X147316666Y-92642857D01*
X147269047Y-92547619D01*
X147221428Y-92500000D01*
X147126190Y-92452380D01*
X145935714Y-92785714D02*
X145935714Y-93452380D01*
X146364285Y-92785714D02*
X146364285Y-93309523D01*
X146316666Y-93404761D01*
X146221428Y-93452380D01*
X146078571Y-93452380D01*
X145983333Y-93404761D01*
X145935714Y-93357142D01*
X145126190Y-92928571D02*
X145459523Y-92928571D01*
X145459523Y-93452380D02*
X145459523Y-92452380D01*
X144983333Y-92452380D01*
%TO.C,R27*%
X153877380Y-99857142D02*
X153401190Y-99523809D01*
X153877380Y-99285714D02*
X152877380Y-99285714D01*
X152877380Y-99666666D01*
X152925000Y-99761904D01*
X152972619Y-99809523D01*
X153067857Y-99857142D01*
X153210714Y-99857142D01*
X153305952Y-99809523D01*
X153353571Y-99761904D01*
X153401190Y-99666666D01*
X153401190Y-99285714D01*
X152972619Y-100238095D02*
X152925000Y-100285714D01*
X152877380Y-100380952D01*
X152877380Y-100619047D01*
X152925000Y-100714285D01*
X152972619Y-100761904D01*
X153067857Y-100809523D01*
X153163095Y-100809523D01*
X153305952Y-100761904D01*
X153877380Y-100190476D01*
X153877380Y-100809523D01*
X152877380Y-101142857D02*
X152877380Y-101809523D01*
X153877380Y-101380952D01*
%TO.C,R2*%
X144766666Y-79552380D02*
X145100000Y-79076190D01*
X145338095Y-79552380D02*
X145338095Y-78552380D01*
X144957142Y-78552380D01*
X144861904Y-78600000D01*
X144814285Y-78647619D01*
X144766666Y-78742857D01*
X144766666Y-78885714D01*
X144814285Y-78980952D01*
X144861904Y-79028571D01*
X144957142Y-79076190D01*
X145338095Y-79076190D01*
X144385714Y-78647619D02*
X144338095Y-78600000D01*
X144242857Y-78552380D01*
X144004761Y-78552380D01*
X143909523Y-78600000D01*
X143861904Y-78647619D01*
X143814285Y-78742857D01*
X143814285Y-78838095D01*
X143861904Y-78980952D01*
X144433333Y-79552380D01*
X143814285Y-79552380D01*
%TO.C,U5*%
X144136904Y-70702380D02*
X144136904Y-71511904D01*
X144089285Y-71607142D01*
X144041666Y-71654761D01*
X143946428Y-71702380D01*
X143755952Y-71702380D01*
X143660714Y-71654761D01*
X143613095Y-71607142D01*
X143565476Y-71511904D01*
X143565476Y-70702380D01*
X142613095Y-70702380D02*
X143089285Y-70702380D01*
X143136904Y-71178571D01*
X143089285Y-71130952D01*
X142994047Y-71083333D01*
X142755952Y-71083333D01*
X142660714Y-71130952D01*
X142613095Y-71178571D01*
X142565476Y-71273809D01*
X142565476Y-71511904D01*
X142613095Y-71607142D01*
X142660714Y-71654761D01*
X142755952Y-71702380D01*
X142994047Y-71702380D01*
X143089285Y-71654761D01*
X143136904Y-71607142D01*
%TO.C,R14*%
X143842857Y-166902380D02*
X144176190Y-166426190D01*
X144414285Y-166902380D02*
X144414285Y-165902380D01*
X144033333Y-165902380D01*
X143938095Y-165950000D01*
X143890476Y-165997619D01*
X143842857Y-166092857D01*
X143842857Y-166235714D01*
X143890476Y-166330952D01*
X143938095Y-166378571D01*
X144033333Y-166426190D01*
X144414285Y-166426190D01*
X142890476Y-166902380D02*
X143461904Y-166902380D01*
X143176190Y-166902380D02*
X143176190Y-165902380D01*
X143271428Y-166045238D01*
X143366666Y-166140476D01*
X143461904Y-166188095D01*
X142033333Y-166235714D02*
X142033333Y-166902380D01*
X142271428Y-165854761D02*
X142509523Y-166569047D01*
X141890476Y-166569047D01*
%TO.C,R20*%
X153767857Y-67652380D02*
X154101190Y-67176190D01*
X154339285Y-67652380D02*
X154339285Y-66652380D01*
X153958333Y-66652380D01*
X153863095Y-66700000D01*
X153815476Y-66747619D01*
X153767857Y-66842857D01*
X153767857Y-66985714D01*
X153815476Y-67080952D01*
X153863095Y-67128571D01*
X153958333Y-67176190D01*
X154339285Y-67176190D01*
X153386904Y-66747619D02*
X153339285Y-66700000D01*
X153244047Y-66652380D01*
X153005952Y-66652380D01*
X152910714Y-66700000D01*
X152863095Y-66747619D01*
X152815476Y-66842857D01*
X152815476Y-66938095D01*
X152863095Y-67080952D01*
X153434523Y-67652380D01*
X152815476Y-67652380D01*
X152196428Y-66652380D02*
X152101190Y-66652380D01*
X152005952Y-66700000D01*
X151958333Y-66747619D01*
X151910714Y-66842857D01*
X151863095Y-67033333D01*
X151863095Y-67271428D01*
X151910714Y-67461904D01*
X151958333Y-67557142D01*
X152005952Y-67604761D01*
X152101190Y-67652380D01*
X152196428Y-67652380D01*
X152291666Y-67604761D01*
X152339285Y-67557142D01*
X152386904Y-67461904D01*
X152434523Y-67271428D01*
X152434523Y-67033333D01*
X152386904Y-66842857D01*
X152339285Y-66747619D01*
X152291666Y-66700000D01*
X152196428Y-66652380D01*
%TO.C,R29*%
X147452380Y-110207142D02*
X146976190Y-109873809D01*
X147452380Y-109635714D02*
X146452380Y-109635714D01*
X146452380Y-110016666D01*
X146500000Y-110111904D01*
X146547619Y-110159523D01*
X146642857Y-110207142D01*
X146785714Y-110207142D01*
X146880952Y-110159523D01*
X146928571Y-110111904D01*
X146976190Y-110016666D01*
X146976190Y-109635714D01*
X146547619Y-110588095D02*
X146500000Y-110635714D01*
X146452380Y-110730952D01*
X146452380Y-110969047D01*
X146500000Y-111064285D01*
X146547619Y-111111904D01*
X146642857Y-111159523D01*
X146738095Y-111159523D01*
X146880952Y-111111904D01*
X147452380Y-110540476D01*
X147452380Y-111159523D01*
X147452380Y-111635714D02*
X147452380Y-111826190D01*
X147404761Y-111921428D01*
X147357142Y-111969047D01*
X147214285Y-112064285D01*
X147023809Y-112111904D01*
X146642857Y-112111904D01*
X146547619Y-112064285D01*
X146500000Y-112016666D01*
X146452380Y-111921428D01*
X146452380Y-111730952D01*
X146500000Y-111635714D01*
X146547619Y-111588095D01*
X146642857Y-111540476D01*
X146880952Y-111540476D01*
X146976190Y-111588095D01*
X147023809Y-111635714D01*
X147071428Y-111730952D01*
X147071428Y-111921428D01*
X147023809Y-112016666D01*
X146976190Y-112064285D01*
X146880952Y-112111904D01*
%TO.C,R9*%
X153466666Y-129352380D02*
X153800000Y-128876190D01*
X154038095Y-129352380D02*
X154038095Y-128352380D01*
X153657142Y-128352380D01*
X153561904Y-128400000D01*
X153514285Y-128447619D01*
X153466666Y-128542857D01*
X153466666Y-128685714D01*
X153514285Y-128780952D01*
X153561904Y-128828571D01*
X153657142Y-128876190D01*
X154038095Y-128876190D01*
X152990476Y-129352380D02*
X152800000Y-129352380D01*
X152704761Y-129304761D01*
X152657142Y-129257142D01*
X152561904Y-129114285D01*
X152514285Y-128923809D01*
X152514285Y-128542857D01*
X152561904Y-128447619D01*
X152609523Y-128400000D01*
X152704761Y-128352380D01*
X152895238Y-128352380D01*
X152990476Y-128400000D01*
X153038095Y-128447619D01*
X153085714Y-128542857D01*
X153085714Y-128780952D01*
X153038095Y-128876190D01*
X152990476Y-128923809D01*
X152895238Y-128971428D01*
X152704761Y-128971428D01*
X152609523Y-128923809D01*
X152561904Y-128876190D01*
X152514285Y-128780952D01*
%TO.C,C8*%
X144316666Y-106507142D02*
X144364285Y-106554761D01*
X144507142Y-106602380D01*
X144602380Y-106602380D01*
X144745238Y-106554761D01*
X144840476Y-106459523D01*
X144888095Y-106364285D01*
X144935714Y-106173809D01*
X144935714Y-106030952D01*
X144888095Y-105840476D01*
X144840476Y-105745238D01*
X144745238Y-105650000D01*
X144602380Y-105602380D01*
X144507142Y-105602380D01*
X144364285Y-105650000D01*
X144316666Y-105697619D01*
X143745238Y-106030952D02*
X143840476Y-105983333D01*
X143888095Y-105935714D01*
X143935714Y-105840476D01*
X143935714Y-105792857D01*
X143888095Y-105697619D01*
X143840476Y-105650000D01*
X143745238Y-105602380D01*
X143554761Y-105602380D01*
X143459523Y-105650000D01*
X143411904Y-105697619D01*
X143364285Y-105792857D01*
X143364285Y-105840476D01*
X143411904Y-105935714D01*
X143459523Y-105983333D01*
X143554761Y-106030952D01*
X143745238Y-106030952D01*
X143840476Y-106078571D01*
X143888095Y-106126190D01*
X143935714Y-106221428D01*
X143935714Y-106411904D01*
X143888095Y-106507142D01*
X143840476Y-106554761D01*
X143745238Y-106602380D01*
X143554761Y-106602380D01*
X143459523Y-106554761D01*
X143411904Y-106507142D01*
X143364285Y-106411904D01*
X143364285Y-106221428D01*
X143411904Y-106126190D01*
X143459523Y-106078571D01*
X143554761Y-106030952D01*
%TO.C,TP1*%
X138361904Y-100204380D02*
X137790476Y-100204380D01*
X138076190Y-101204380D02*
X138076190Y-100204380D01*
X137457142Y-101204380D02*
X137457142Y-100204380D01*
X137076190Y-100204380D01*
X136980952Y-100252000D01*
X136933333Y-100299619D01*
X136885714Y-100394857D01*
X136885714Y-100537714D01*
X136933333Y-100632952D01*
X136980952Y-100680571D01*
X137076190Y-100728190D01*
X137457142Y-100728190D01*
X135933333Y-101204380D02*
X136504761Y-101204380D01*
X136219047Y-101204380D02*
X136219047Y-100204380D01*
X136314285Y-100347238D01*
X136409523Y-100442476D01*
X136504761Y-100490095D01*
%TO.C,R5*%
X149002380Y-80383333D02*
X148526190Y-80050000D01*
X149002380Y-79811904D02*
X148002380Y-79811904D01*
X148002380Y-80192857D01*
X148050000Y-80288095D01*
X148097619Y-80335714D01*
X148192857Y-80383333D01*
X148335714Y-80383333D01*
X148430952Y-80335714D01*
X148478571Y-80288095D01*
X148526190Y-80192857D01*
X148526190Y-79811904D01*
X148002380Y-81288095D02*
X148002380Y-80811904D01*
X148478571Y-80764285D01*
X148430952Y-80811904D01*
X148383333Y-80907142D01*
X148383333Y-81145238D01*
X148430952Y-81240476D01*
X148478571Y-81288095D01*
X148573809Y-81335714D01*
X148811904Y-81335714D01*
X148907142Y-81288095D01*
X148954761Y-81240476D01*
X149002380Y-81145238D01*
X149002380Y-80907142D01*
X148954761Y-80811904D01*
X148907142Y-80764285D01*
%TO.C,C12*%
X154257142Y-117407142D02*
X154304761Y-117359523D01*
X154352380Y-117216666D01*
X154352380Y-117121428D01*
X154304761Y-116978571D01*
X154209523Y-116883333D01*
X154114285Y-116835714D01*
X153923809Y-116788095D01*
X153780952Y-116788095D01*
X153590476Y-116835714D01*
X153495238Y-116883333D01*
X153400000Y-116978571D01*
X153352380Y-117121428D01*
X153352380Y-117216666D01*
X153400000Y-117359523D01*
X153447619Y-117407142D01*
X154352380Y-118359523D02*
X154352380Y-117788095D01*
X154352380Y-118073809D02*
X153352380Y-118073809D01*
X153495238Y-117978571D01*
X153590476Y-117883333D01*
X153638095Y-117788095D01*
X153447619Y-118740476D02*
X153400000Y-118788095D01*
X153352380Y-118883333D01*
X153352380Y-119121428D01*
X153400000Y-119216666D01*
X153447619Y-119264285D01*
X153542857Y-119311904D01*
X153638095Y-119311904D01*
X153780952Y-119264285D01*
X154352380Y-118692857D01*
X154352380Y-119311904D01*
%TO.C,C18*%
X137807142Y-71857142D02*
X137854761Y-71809523D01*
X137902380Y-71666666D01*
X137902380Y-71571428D01*
X137854761Y-71428571D01*
X137759523Y-71333333D01*
X137664285Y-71285714D01*
X137473809Y-71238095D01*
X137330952Y-71238095D01*
X137140476Y-71285714D01*
X137045238Y-71333333D01*
X136950000Y-71428571D01*
X136902380Y-71571428D01*
X136902380Y-71666666D01*
X136950000Y-71809523D01*
X136997619Y-71857142D01*
X137902380Y-72809523D02*
X137902380Y-72238095D01*
X137902380Y-72523809D02*
X136902380Y-72523809D01*
X137045238Y-72428571D01*
X137140476Y-72333333D01*
X137188095Y-72238095D01*
X137330952Y-73380952D02*
X137283333Y-73285714D01*
X137235714Y-73238095D01*
X137140476Y-73190476D01*
X137092857Y-73190476D01*
X136997619Y-73238095D01*
X136950000Y-73285714D01*
X136902380Y-73380952D01*
X136902380Y-73571428D01*
X136950000Y-73666666D01*
X136997619Y-73714285D01*
X137092857Y-73761904D01*
X137140476Y-73761904D01*
X137235714Y-73714285D01*
X137283333Y-73666666D01*
X137330952Y-73571428D01*
X137330952Y-73380952D01*
X137378571Y-73285714D01*
X137426190Y-73238095D01*
X137521428Y-73190476D01*
X137711904Y-73190476D01*
X137807142Y-73238095D01*
X137854761Y-73285714D01*
X137902380Y-73380952D01*
X137902380Y-73571428D01*
X137854761Y-73666666D01*
X137807142Y-73714285D01*
X137711904Y-73761904D01*
X137521428Y-73761904D01*
X137426190Y-73714285D01*
X137378571Y-73666666D01*
X137330952Y-73571428D01*
%TO.C,R1*%
X144766666Y-77952380D02*
X145100000Y-77476190D01*
X145338095Y-77952380D02*
X145338095Y-76952380D01*
X144957142Y-76952380D01*
X144861904Y-77000000D01*
X144814285Y-77047619D01*
X144766666Y-77142857D01*
X144766666Y-77285714D01*
X144814285Y-77380952D01*
X144861904Y-77428571D01*
X144957142Y-77476190D01*
X145338095Y-77476190D01*
X143814285Y-77952380D02*
X144385714Y-77952380D01*
X144100000Y-77952380D02*
X144100000Y-76952380D01*
X144195238Y-77095238D01*
X144290476Y-77190476D01*
X144385714Y-77238095D01*
%TO.C,U6*%
X146661904Y-98652380D02*
X146661904Y-99461904D01*
X146614285Y-99557142D01*
X146566666Y-99604761D01*
X146471428Y-99652380D01*
X146280952Y-99652380D01*
X146185714Y-99604761D01*
X146138095Y-99557142D01*
X146090476Y-99461904D01*
X146090476Y-98652380D01*
X145185714Y-98652380D02*
X145376190Y-98652380D01*
X145471428Y-98700000D01*
X145519047Y-98747619D01*
X145614285Y-98890476D01*
X145661904Y-99080952D01*
X145661904Y-99461904D01*
X145614285Y-99557142D01*
X145566666Y-99604761D01*
X145471428Y-99652380D01*
X145280952Y-99652380D01*
X145185714Y-99604761D01*
X145138095Y-99557142D01*
X145090476Y-99461904D01*
X145090476Y-99223809D01*
X145138095Y-99128571D01*
X145185714Y-99080952D01*
X145280952Y-99033333D01*
X145471428Y-99033333D01*
X145566666Y-99080952D01*
X145614285Y-99128571D01*
X145661904Y-99223809D01*
%TO.C,R21*%
X154242857Y-161402380D02*
X154576190Y-160926190D01*
X154814285Y-161402380D02*
X154814285Y-160402380D01*
X154433333Y-160402380D01*
X154338095Y-160450000D01*
X154290476Y-160497619D01*
X154242857Y-160592857D01*
X154242857Y-160735714D01*
X154290476Y-160830952D01*
X154338095Y-160878571D01*
X154433333Y-160926190D01*
X154814285Y-160926190D01*
X153861904Y-160497619D02*
X153814285Y-160450000D01*
X153719047Y-160402380D01*
X153480952Y-160402380D01*
X153385714Y-160450000D01*
X153338095Y-160497619D01*
X153290476Y-160592857D01*
X153290476Y-160688095D01*
X153338095Y-160830952D01*
X153909523Y-161402380D01*
X153290476Y-161402380D01*
X152338095Y-161402380D02*
X152909523Y-161402380D01*
X152623809Y-161402380D02*
X152623809Y-160402380D01*
X152719047Y-160545238D01*
X152814285Y-160640476D01*
X152909523Y-160688095D01*
%TO.C,Q1*%
X136145238Y-76197619D02*
X136240476Y-76150000D01*
X136335714Y-76054761D01*
X136478571Y-75911904D01*
X136573809Y-75864285D01*
X136669047Y-75864285D01*
X136621428Y-76102380D02*
X136716666Y-76054761D01*
X136811904Y-75959523D01*
X136859523Y-75769047D01*
X136859523Y-75435714D01*
X136811904Y-75245238D01*
X136716666Y-75150000D01*
X136621428Y-75102380D01*
X136430952Y-75102380D01*
X136335714Y-75150000D01*
X136240476Y-75245238D01*
X136192857Y-75435714D01*
X136192857Y-75769047D01*
X136240476Y-75959523D01*
X136335714Y-76054761D01*
X136430952Y-76102380D01*
X136621428Y-76102380D01*
X135240476Y-76102380D02*
X135811904Y-76102380D01*
X135526190Y-76102380D02*
X135526190Y-75102380D01*
X135621428Y-75245238D01*
X135716666Y-75340476D01*
X135811904Y-75388095D01*
%TO.C,R3*%
X150327380Y-86258333D02*
X149851190Y-85925000D01*
X150327380Y-85686904D02*
X149327380Y-85686904D01*
X149327380Y-86067857D01*
X149375000Y-86163095D01*
X149422619Y-86210714D01*
X149517857Y-86258333D01*
X149660714Y-86258333D01*
X149755952Y-86210714D01*
X149803571Y-86163095D01*
X149851190Y-86067857D01*
X149851190Y-85686904D01*
X149327380Y-86591666D02*
X149327380Y-87210714D01*
X149708333Y-86877380D01*
X149708333Y-87020238D01*
X149755952Y-87115476D01*
X149803571Y-87163095D01*
X149898809Y-87210714D01*
X150136904Y-87210714D01*
X150232142Y-87163095D01*
X150279761Y-87115476D01*
X150327380Y-87020238D01*
X150327380Y-86734523D01*
X150279761Y-86639285D01*
X150232142Y-86591666D01*
%TO.C,RV1*%
X136577380Y-88479761D02*
X136101190Y-88146428D01*
X136577380Y-87908333D02*
X135577380Y-87908333D01*
X135577380Y-88289285D01*
X135625000Y-88384523D01*
X135672619Y-88432142D01*
X135767857Y-88479761D01*
X135910714Y-88479761D01*
X136005952Y-88432142D01*
X136053571Y-88384523D01*
X136101190Y-88289285D01*
X136101190Y-87908333D01*
X135577380Y-88765476D02*
X136577380Y-89098809D01*
X135577380Y-89432142D01*
X136577380Y-90289285D02*
X136577380Y-89717857D01*
X136577380Y-90003571D02*
X135577380Y-90003571D01*
X135720238Y-89908333D01*
X135815476Y-89813095D01*
X135863095Y-89717857D01*
X139702380Y-84478571D02*
X139702380Y-83907142D01*
X139702380Y-84192857D02*
X138702380Y-84192857D01*
X138845238Y-84097619D01*
X138940476Y-84002380D01*
X138988095Y-83907142D01*
X138702380Y-85097619D02*
X138702380Y-85192857D01*
X138750000Y-85288095D01*
X138797619Y-85335714D01*
X138892857Y-85383333D01*
X139083333Y-85430952D01*
X139321428Y-85430952D01*
X139511904Y-85383333D01*
X139607142Y-85335714D01*
X139654761Y-85288095D01*
X139702380Y-85192857D01*
X139702380Y-85097619D01*
X139654761Y-85002380D01*
X139607142Y-84954761D01*
X139511904Y-84907142D01*
X139321428Y-84859523D01*
X139083333Y-84859523D01*
X138892857Y-84907142D01*
X138797619Y-84954761D01*
X138750000Y-85002380D01*
X138702380Y-85097619D01*
X138702380Y-86050000D02*
X138702380Y-86145238D01*
X138750000Y-86240476D01*
X138797619Y-86288095D01*
X138892857Y-86335714D01*
X139083333Y-86383333D01*
X139321428Y-86383333D01*
X139511904Y-86335714D01*
X139607142Y-86288095D01*
X139654761Y-86240476D01*
X139702380Y-86145238D01*
X139702380Y-86050000D01*
X139654761Y-85954761D01*
X139607142Y-85907142D01*
X139511904Y-85859523D01*
X139321428Y-85811904D01*
X139083333Y-85811904D01*
X138892857Y-85859523D01*
X138797619Y-85907142D01*
X138750000Y-85954761D01*
X138702380Y-86050000D01*
X139702380Y-86811904D02*
X138702380Y-86811904D01*
X139321428Y-86907142D02*
X139702380Y-87192857D01*
X139035714Y-87192857D02*
X139416666Y-86811904D01*
%TO.C,R7*%
X136241666Y-91977380D02*
X136575000Y-91501190D01*
X136813095Y-91977380D02*
X136813095Y-90977380D01*
X136432142Y-90977380D01*
X136336904Y-91025000D01*
X136289285Y-91072619D01*
X136241666Y-91167857D01*
X136241666Y-91310714D01*
X136289285Y-91405952D01*
X136336904Y-91453571D01*
X136432142Y-91501190D01*
X136813095Y-91501190D01*
X135908333Y-90977380D02*
X135241666Y-90977380D01*
X135670238Y-91977380D01*
%TO.C,R16*%
X147542857Y-156872380D02*
X147876190Y-156396190D01*
X148114285Y-156872380D02*
X148114285Y-155872380D01*
X147733333Y-155872380D01*
X147638095Y-155920000D01*
X147590476Y-155967619D01*
X147542857Y-156062857D01*
X147542857Y-156205714D01*
X147590476Y-156300952D01*
X147638095Y-156348571D01*
X147733333Y-156396190D01*
X148114285Y-156396190D01*
X146590476Y-156872380D02*
X147161904Y-156872380D01*
X146876190Y-156872380D02*
X146876190Y-155872380D01*
X146971428Y-156015238D01*
X147066666Y-156110476D01*
X147161904Y-156158095D01*
X145733333Y-155872380D02*
X145923809Y-155872380D01*
X146019047Y-155920000D01*
X146066666Y-155967619D01*
X146161904Y-156110476D01*
X146209523Y-156300952D01*
X146209523Y-156681904D01*
X146161904Y-156777142D01*
X146114285Y-156824761D01*
X146019047Y-156872380D01*
X145828571Y-156872380D01*
X145733333Y-156824761D01*
X145685714Y-156777142D01*
X145638095Y-156681904D01*
X145638095Y-156443809D01*
X145685714Y-156348571D01*
X145733333Y-156300952D01*
X145828571Y-156253333D01*
X146019047Y-156253333D01*
X146114285Y-156300952D01*
X146161904Y-156348571D01*
X146209523Y-156443809D01*
%TO.C,C10*%
X143642857Y-88157142D02*
X143690476Y-88204761D01*
X143833333Y-88252380D01*
X143928571Y-88252380D01*
X144071428Y-88204761D01*
X144166666Y-88109523D01*
X144214285Y-88014285D01*
X144261904Y-87823809D01*
X144261904Y-87680952D01*
X144214285Y-87490476D01*
X144166666Y-87395238D01*
X144071428Y-87300000D01*
X143928571Y-87252380D01*
X143833333Y-87252380D01*
X143690476Y-87300000D01*
X143642857Y-87347619D01*
X142690476Y-88252380D02*
X143261904Y-88252380D01*
X142976190Y-88252380D02*
X142976190Y-87252380D01*
X143071428Y-87395238D01*
X143166666Y-87490476D01*
X143261904Y-87538095D01*
X142071428Y-87252380D02*
X141976190Y-87252380D01*
X141880952Y-87300000D01*
X141833333Y-87347619D01*
X141785714Y-87442857D01*
X141738095Y-87633333D01*
X141738095Y-87871428D01*
X141785714Y-88061904D01*
X141833333Y-88157142D01*
X141880952Y-88204761D01*
X141976190Y-88252380D01*
X142071428Y-88252380D01*
X142166666Y-88204761D01*
X142214285Y-88157142D01*
X142261904Y-88061904D01*
X142309523Y-87871428D01*
X142309523Y-87633333D01*
X142261904Y-87442857D01*
X142214285Y-87347619D01*
X142166666Y-87300000D01*
X142071428Y-87252380D01*
%TO.C,Q2*%
X146395238Y-125397619D02*
X146490476Y-125350000D01*
X146585714Y-125254761D01*
X146728571Y-125111904D01*
X146823809Y-125064285D01*
X146919047Y-125064285D01*
X146871428Y-125302380D02*
X146966666Y-125254761D01*
X147061904Y-125159523D01*
X147109523Y-124969047D01*
X147109523Y-124635714D01*
X147061904Y-124445238D01*
X146966666Y-124350000D01*
X146871428Y-124302380D01*
X146680952Y-124302380D01*
X146585714Y-124350000D01*
X146490476Y-124445238D01*
X146442857Y-124635714D01*
X146442857Y-124969047D01*
X146490476Y-125159523D01*
X146585714Y-125254761D01*
X146680952Y-125302380D01*
X146871428Y-125302380D01*
X146061904Y-124397619D02*
X146014285Y-124350000D01*
X145919047Y-124302380D01*
X145680952Y-124302380D01*
X145585714Y-124350000D01*
X145538095Y-124397619D01*
X145490476Y-124492857D01*
X145490476Y-124588095D01*
X145538095Y-124730952D01*
X146109523Y-125302380D01*
X145490476Y-125302380D01*
%TO.C,C9*%
X147332142Y-75608333D02*
X147379761Y-75560714D01*
X147427380Y-75417857D01*
X147427380Y-75322619D01*
X147379761Y-75179761D01*
X147284523Y-75084523D01*
X147189285Y-75036904D01*
X146998809Y-74989285D01*
X146855952Y-74989285D01*
X146665476Y-75036904D01*
X146570238Y-75084523D01*
X146475000Y-75179761D01*
X146427380Y-75322619D01*
X146427380Y-75417857D01*
X146475000Y-75560714D01*
X146522619Y-75608333D01*
X147427380Y-76084523D02*
X147427380Y-76275000D01*
X147379761Y-76370238D01*
X147332142Y-76417857D01*
X147189285Y-76513095D01*
X146998809Y-76560714D01*
X146617857Y-76560714D01*
X146522619Y-76513095D01*
X146475000Y-76465476D01*
X146427380Y-76370238D01*
X146427380Y-76179761D01*
X146475000Y-76084523D01*
X146522619Y-76036904D01*
X146617857Y-75989285D01*
X146855952Y-75989285D01*
X146951190Y-76036904D01*
X146998809Y-76084523D01*
X147046428Y-76179761D01*
X147046428Y-76370238D01*
X146998809Y-76465476D01*
X146951190Y-76513095D01*
X146855952Y-76560714D01*
%TO.C,R17*%
X154242857Y-163102380D02*
X154576190Y-162626190D01*
X154814285Y-163102380D02*
X154814285Y-162102380D01*
X154433333Y-162102380D01*
X154338095Y-162150000D01*
X154290476Y-162197619D01*
X154242857Y-162292857D01*
X154242857Y-162435714D01*
X154290476Y-162530952D01*
X154338095Y-162578571D01*
X154433333Y-162626190D01*
X154814285Y-162626190D01*
X153290476Y-163102380D02*
X153861904Y-163102380D01*
X153576190Y-163102380D02*
X153576190Y-162102380D01*
X153671428Y-162245238D01*
X153766666Y-162340476D01*
X153861904Y-162388095D01*
X152957142Y-162102380D02*
X152290476Y-162102380D01*
X152719047Y-163102380D01*
D11*
%TO.C,R24*%
X138092857Y-65352380D02*
X138426190Y-64876190D01*
X138664285Y-65352380D02*
X138664285Y-64352380D01*
X138283333Y-64352380D01*
X138188095Y-64400000D01*
X138140476Y-64447619D01*
X138092857Y-64542857D01*
X138092857Y-64685714D01*
X138140476Y-64780952D01*
X138188095Y-64828571D01*
X138283333Y-64876190D01*
X138664285Y-64876190D01*
X137711904Y-64447619D02*
X137664285Y-64400000D01*
X137569047Y-64352380D01*
X137330952Y-64352380D01*
X137235714Y-64400000D01*
X137188095Y-64447619D01*
X137140476Y-64542857D01*
X137140476Y-64638095D01*
X137188095Y-64780952D01*
X137759523Y-65352380D01*
X137140476Y-65352380D01*
X136283333Y-64685714D02*
X136283333Y-65352380D01*
X136521428Y-64304761D02*
X136759523Y-65019047D01*
X136140476Y-65019047D01*
D10*
%TO.C,R28*%
X152792857Y-131252380D02*
X153126190Y-130776190D01*
X153364285Y-131252380D02*
X153364285Y-130252380D01*
X152983333Y-130252380D01*
X152888095Y-130300000D01*
X152840476Y-130347619D01*
X152792857Y-130442857D01*
X152792857Y-130585714D01*
X152840476Y-130680952D01*
X152888095Y-130728571D01*
X152983333Y-130776190D01*
X153364285Y-130776190D01*
X152411904Y-130347619D02*
X152364285Y-130300000D01*
X152269047Y-130252380D01*
X152030952Y-130252380D01*
X151935714Y-130300000D01*
X151888095Y-130347619D01*
X151840476Y-130442857D01*
X151840476Y-130538095D01*
X151888095Y-130680952D01*
X152459523Y-131252380D01*
X151840476Y-131252380D01*
X151269047Y-130680952D02*
X151364285Y-130633333D01*
X151411904Y-130585714D01*
X151459523Y-130490476D01*
X151459523Y-130442857D01*
X151411904Y-130347619D01*
X151364285Y-130300000D01*
X151269047Y-130252380D01*
X151078571Y-130252380D01*
X150983333Y-130300000D01*
X150935714Y-130347619D01*
X150888095Y-130442857D01*
X150888095Y-130490476D01*
X150935714Y-130585714D01*
X150983333Y-130633333D01*
X151078571Y-130680952D01*
X151269047Y-130680952D01*
X151364285Y-130728571D01*
X151411904Y-130776190D01*
X151459523Y-130871428D01*
X151459523Y-131061904D01*
X151411904Y-131157142D01*
X151364285Y-131204761D01*
X151269047Y-131252380D01*
X151078571Y-131252380D01*
X150983333Y-131204761D01*
X150935714Y-131157142D01*
X150888095Y-131061904D01*
X150888095Y-130871428D01*
X150935714Y-130776190D01*
X150983333Y-130728571D01*
X151078571Y-130680952D01*
%TO.C,R11*%
X138302380Y-105432142D02*
X137826190Y-105098809D01*
X138302380Y-104860714D02*
X137302380Y-104860714D01*
X137302380Y-105241666D01*
X137350000Y-105336904D01*
X137397619Y-105384523D01*
X137492857Y-105432142D01*
X137635714Y-105432142D01*
X137730952Y-105384523D01*
X137778571Y-105336904D01*
X137826190Y-105241666D01*
X137826190Y-104860714D01*
X138302380Y-106384523D02*
X138302380Y-105813095D01*
X138302380Y-106098809D02*
X137302380Y-106098809D01*
X137445238Y-106003571D01*
X137540476Y-105908333D01*
X137588095Y-105813095D01*
X138302380Y-107336904D02*
X138302380Y-106765476D01*
X138302380Y-107051190D02*
X137302380Y-107051190D01*
X137445238Y-106955952D01*
X137540476Y-106860714D01*
X137588095Y-106765476D01*
%TO.C,R6*%
X154302380Y-121133333D02*
X153826190Y-120800000D01*
X154302380Y-120561904D02*
X153302380Y-120561904D01*
X153302380Y-120942857D01*
X153350000Y-121038095D01*
X153397619Y-121085714D01*
X153492857Y-121133333D01*
X153635714Y-121133333D01*
X153730952Y-121085714D01*
X153778571Y-121038095D01*
X153826190Y-120942857D01*
X153826190Y-120561904D01*
X153302380Y-121990476D02*
X153302380Y-121800000D01*
X153350000Y-121704761D01*
X153397619Y-121657142D01*
X153540476Y-121561904D01*
X153730952Y-121514285D01*
X154111904Y-121514285D01*
X154207142Y-121561904D01*
X154254761Y-121609523D01*
X154302380Y-121704761D01*
X154302380Y-121895238D01*
X154254761Y-121990476D01*
X154207142Y-122038095D01*
X154111904Y-122085714D01*
X153873809Y-122085714D01*
X153778571Y-122038095D01*
X153730952Y-121990476D01*
X153683333Y-121895238D01*
X153683333Y-121704761D01*
X153730952Y-121609523D01*
X153778571Y-121561904D01*
X153873809Y-121514285D01*
%TO.C,D4*%
X154700595Y-69642380D02*
X154700595Y-68642380D01*
X154462500Y-68642380D01*
X154319642Y-68690000D01*
X154224404Y-68785238D01*
X154176785Y-68880476D01*
X154129166Y-69070952D01*
X154129166Y-69213809D01*
X154176785Y-69404285D01*
X154224404Y-69499523D01*
X154319642Y-69594761D01*
X154462500Y-69642380D01*
X154700595Y-69642380D01*
X153272023Y-68975714D02*
X153272023Y-69642380D01*
X153510119Y-68594761D02*
X153748214Y-69309047D01*
X153129166Y-69309047D01*
%TO.C,C7*%
X152791666Y-66057142D02*
X152839285Y-66104761D01*
X152982142Y-66152380D01*
X153077380Y-66152380D01*
X153220238Y-66104761D01*
X153315476Y-66009523D01*
X153363095Y-65914285D01*
X153410714Y-65723809D01*
X153410714Y-65580952D01*
X153363095Y-65390476D01*
X153315476Y-65295238D01*
X153220238Y-65200000D01*
X153077380Y-65152380D01*
X152982142Y-65152380D01*
X152839285Y-65200000D01*
X152791666Y-65247619D01*
X152458333Y-65152380D02*
X151791666Y-65152380D01*
X152220238Y-66152380D01*
%TO.C,U2*%
X146352380Y-113538095D02*
X147161904Y-113538095D01*
X147257142Y-113585714D01*
X147304761Y-113633333D01*
X147352380Y-113728571D01*
X147352380Y-113919047D01*
X147304761Y-114014285D01*
X147257142Y-114061904D01*
X147161904Y-114109523D01*
X146352380Y-114109523D01*
X146447619Y-114538095D02*
X146400000Y-114585714D01*
X146352380Y-114680952D01*
X146352380Y-114919047D01*
X146400000Y-115014285D01*
X146447619Y-115061904D01*
X146542857Y-115109523D01*
X146638095Y-115109523D01*
X146780952Y-115061904D01*
X147352380Y-114490476D01*
X147352380Y-115109523D01*
%TO.C,R18*%
X137092857Y-161402380D02*
X137426190Y-160926190D01*
X137664285Y-161402380D02*
X137664285Y-160402380D01*
X137283333Y-160402380D01*
X137188095Y-160450000D01*
X137140476Y-160497619D01*
X137092857Y-160592857D01*
X137092857Y-160735714D01*
X137140476Y-160830952D01*
X137188095Y-160878571D01*
X137283333Y-160926190D01*
X137664285Y-160926190D01*
X136140476Y-161402380D02*
X136711904Y-161402380D01*
X136426190Y-161402380D02*
X136426190Y-160402380D01*
X136521428Y-160545238D01*
X136616666Y-160640476D01*
X136711904Y-160688095D01*
X135569047Y-160830952D02*
X135664285Y-160783333D01*
X135711904Y-160735714D01*
X135759523Y-160640476D01*
X135759523Y-160592857D01*
X135711904Y-160497619D01*
X135664285Y-160450000D01*
X135569047Y-160402380D01*
X135378571Y-160402380D01*
X135283333Y-160450000D01*
X135235714Y-160497619D01*
X135188095Y-160592857D01*
X135188095Y-160640476D01*
X135235714Y-160735714D01*
X135283333Y-160783333D01*
X135378571Y-160830952D01*
X135569047Y-160830952D01*
X135664285Y-160878571D01*
X135711904Y-160926190D01*
X135759523Y-161021428D01*
X135759523Y-161211904D01*
X135711904Y-161307142D01*
X135664285Y-161354761D01*
X135569047Y-161402380D01*
X135378571Y-161402380D01*
X135283333Y-161354761D01*
X135235714Y-161307142D01*
X135188095Y-161211904D01*
X135188095Y-161021428D01*
X135235714Y-160926190D01*
X135283333Y-160878571D01*
X135378571Y-160830952D01*
%TO.C,R12*%
X152792857Y-135922380D02*
X153126190Y-135446190D01*
X153364285Y-135922380D02*
X153364285Y-134922380D01*
X152983333Y-134922380D01*
X152888095Y-134970000D01*
X152840476Y-135017619D01*
X152792857Y-135112857D01*
X152792857Y-135255714D01*
X152840476Y-135350952D01*
X152888095Y-135398571D01*
X152983333Y-135446190D01*
X153364285Y-135446190D01*
X151840476Y-135922380D02*
X152411904Y-135922380D01*
X152126190Y-135922380D02*
X152126190Y-134922380D01*
X152221428Y-135065238D01*
X152316666Y-135160476D01*
X152411904Y-135208095D01*
X151459523Y-135017619D02*
X151411904Y-134970000D01*
X151316666Y-134922380D01*
X151078571Y-134922380D01*
X150983333Y-134970000D01*
X150935714Y-135017619D01*
X150888095Y-135112857D01*
X150888095Y-135208095D01*
X150935714Y-135350952D01*
X151507142Y-135922380D01*
X150888095Y-135922380D01*
%TO.C,C13*%
X144042857Y-156782142D02*
X144090476Y-156829761D01*
X144233333Y-156877380D01*
X144328571Y-156877380D01*
X144471428Y-156829761D01*
X144566666Y-156734523D01*
X144614285Y-156639285D01*
X144661904Y-156448809D01*
X144661904Y-156305952D01*
X144614285Y-156115476D01*
X144566666Y-156020238D01*
X144471428Y-155925000D01*
X144328571Y-155877380D01*
X144233333Y-155877380D01*
X144090476Y-155925000D01*
X144042857Y-155972619D01*
X143090476Y-156877380D02*
X143661904Y-156877380D01*
X143376190Y-156877380D02*
X143376190Y-155877380D01*
X143471428Y-156020238D01*
X143566666Y-156115476D01*
X143661904Y-156163095D01*
X142757142Y-155877380D02*
X142138095Y-155877380D01*
X142471428Y-156258333D01*
X142328571Y-156258333D01*
X142233333Y-156305952D01*
X142185714Y-156353571D01*
X142138095Y-156448809D01*
X142138095Y-156686904D01*
X142185714Y-156782142D01*
X142233333Y-156829761D01*
X142328571Y-156877380D01*
X142614285Y-156877380D01*
X142709523Y-156829761D01*
X142757142Y-156782142D01*
D12*
%TO.C,C17*%
X146378733Y-71910000D02*
X146671267Y-71910000D01*
X146378733Y-70890000D02*
X146671267Y-70890000D01*
%TO.C,C4*%
X138871267Y-92565000D02*
X138578733Y-92565000D01*
X138871267Y-93585000D02*
X138578733Y-93585000D01*
%TO.C,R22*%
X150245276Y-158927500D02*
X150754724Y-158927500D01*
X150245276Y-159972500D02*
X150754724Y-159972500D01*
%TO.C,C2*%
X141853733Y-80140000D02*
X142146267Y-80140000D01*
X141853733Y-81160000D02*
X142146267Y-81160000D01*
%TO.C,R13*%
X149304724Y-131852500D02*
X148795276Y-131852500D01*
X149304724Y-132897500D02*
X148795276Y-132897500D01*
%TO.C,U1*%
X144050000Y-81640000D02*
X142100000Y-81640000D01*
X144050000Y-81640000D02*
X147500000Y-81640000D01*
X144050000Y-86760000D02*
X142100000Y-86760000D01*
X144050000Y-86760000D02*
X146000000Y-86760000D01*
%TO.C,U3*%
X145000000Y-158855000D02*
X148450000Y-158855000D01*
X145000000Y-163975000D02*
X143050000Y-163975000D01*
X145000000Y-163975000D02*
X146950000Y-163975000D01*
X145000000Y-158855000D02*
X143050000Y-158855000D01*
%TO.C,R10*%
X149304724Y-134422500D02*
X148795276Y-134422500D01*
X149304724Y-133377500D02*
X148795276Y-133377500D01*
%TO.C,J2*%
X135557500Y-129490000D02*
X144677500Y-129490000D01*
X135557500Y-121250000D02*
X136867500Y-121250000D01*
X143367500Y-128190000D02*
X143367500Y-110210000D01*
X136867500Y-110210000D02*
X136867500Y-117150000D01*
X134167500Y-123780000D02*
X135167500Y-124280000D01*
X144677500Y-129490000D02*
X144677500Y-108910000D01*
X143367500Y-110210000D02*
X136867500Y-110210000D01*
X136867500Y-128190000D02*
X143367500Y-128190000D01*
X144677500Y-108910000D02*
X135557500Y-108910000D01*
X136867500Y-117150000D02*
X136867500Y-117150000D01*
X134167500Y-124780000D02*
X134167500Y-123780000D01*
X136867500Y-121250000D02*
X136867500Y-128190000D01*
X135557500Y-108910000D02*
X135557500Y-129490000D01*
X135167500Y-124280000D02*
X134167500Y-124780000D01*
X136867500Y-117150000D02*
X135557500Y-117150000D01*
%TO.C,C11*%
X146190000Y-119028733D02*
X146190000Y-119321267D01*
X147210000Y-119028733D02*
X147210000Y-119321267D01*
%TO.C,R4*%
X150622500Y-83404724D02*
X150622500Y-82895276D01*
X149577500Y-83404724D02*
X149577500Y-82895276D01*
%TO.C,R15*%
X139245276Y-162027500D02*
X139754724Y-162027500D01*
X139245276Y-163072500D02*
X139754724Y-163072500D01*
%TO.C,U4*%
X138315000Y-133775000D02*
X138315000Y-130325000D01*
X138315000Y-133775000D02*
X138315000Y-135725000D01*
X147185000Y-133775000D02*
X147185000Y-131825000D01*
X147185000Y-133775000D02*
X147185000Y-135725000D01*
%TO.C,R23*%
X152795276Y-71772500D02*
X153304724Y-71772500D01*
X152795276Y-70727500D02*
X153304724Y-70727500D01*
%TO.C,C14*%
X146746267Y-165510000D02*
X146453733Y-165510000D01*
X146746267Y-164490000D02*
X146453733Y-164490000D01*
%TO.C,D5*%
X148000000Y-64800000D02*
X144100000Y-64800000D01*
X148000000Y-62800000D02*
X148000000Y-64800000D01*
X148000000Y-62800000D02*
X144100000Y-62800000D01*
%TO.C,R8*%
X139422500Y-139504724D02*
X139422500Y-138995276D01*
X138377500Y-139504724D02*
X138377500Y-138995276D01*
%TO.C,R19*%
X139754724Y-159922500D02*
X139245276Y-159922500D01*
X139754724Y-158877500D02*
X139245276Y-158877500D01*
%TO.C,D1*%
X152150000Y-125900000D02*
X152150000Y-127900000D01*
X152150000Y-125900000D02*
X148250000Y-125900000D01*
X152150000Y-127900000D02*
X148250000Y-127900000D01*
%TO.C,C15*%
X137860000Y-139396267D02*
X137860000Y-139103733D01*
X136840000Y-139396267D02*
X136840000Y-139103733D01*
%TO.C,Q3*%
X138725000Y-67215000D02*
X138075000Y-67215000D01*
X138725000Y-70335000D02*
X138075000Y-70335000D01*
X138725000Y-67215000D02*
X140400000Y-67215000D01*
X138725000Y-70335000D02*
X139375000Y-70335000D01*
%TO.C,C3*%
X152160000Y-83296267D02*
X152160000Y-83003733D01*
X151140000Y-83296267D02*
X151140000Y-83003733D01*
%TO.C,C1*%
X149494113Y-90252000D02*
X149494113Y-92448000D01*
X151054113Y-88895000D02*
X151054113Y-90310000D01*
X149894113Y-92390000D02*
X149894113Y-93049000D01*
X154659888Y-89875000D02*
X154159888Y-89875000D01*
X150134113Y-89413000D02*
X150134113Y-90310000D01*
X149934113Y-89607000D02*
X149934113Y-90310000D01*
X154409888Y-89625000D02*
X154409888Y-90125000D01*
X151575113Y-92390000D02*
X151575113Y-93915000D01*
X151455113Y-88800000D02*
X151455113Y-90310000D01*
X150774113Y-92390000D02*
X150774113Y-93698000D01*
X149814113Y-89745000D02*
X149814113Y-90310000D01*
X150254113Y-92390000D02*
X150254113Y-93385000D01*
X149614113Y-90031000D02*
X149614113Y-90310000D01*
X151175113Y-92390000D02*
X151175113Y-93841000D01*
X150534113Y-92390000D02*
X150534113Y-93574000D01*
X149614113Y-92390000D02*
X149614113Y-92669000D01*
X149574113Y-90099000D02*
X149574113Y-90310000D01*
X150854113Y-88968000D02*
X150854113Y-90310000D01*
X150894113Y-88952000D02*
X150894113Y-90310000D01*
X150694113Y-89040000D02*
X150694113Y-90310000D01*
X149654113Y-89967000D02*
X149654113Y-90310000D01*
X151175113Y-88859000D02*
X151175113Y-90310000D01*
X150214113Y-92390000D02*
X150214113Y-93354000D01*
X151455113Y-92390000D02*
X151455113Y-93900000D01*
X151535113Y-88789000D02*
X151535113Y-90310000D01*
X150934113Y-88936000D02*
X150934113Y-90310000D01*
X151215113Y-92390000D02*
X151215113Y-93851000D01*
X150014113Y-89524000D02*
X150014113Y-90310000D01*
X150894113Y-92390000D02*
X150894113Y-93748000D01*
X151255113Y-88839000D02*
X151255113Y-90310000D01*
X150774113Y-89002000D02*
X150774113Y-90310000D01*
X151375113Y-92390000D02*
X151375113Y-93886000D01*
X150494113Y-89150000D02*
X150494113Y-90310000D01*
X151415113Y-88807000D02*
X151415113Y-90310000D01*
X149934113Y-92390000D02*
X149934113Y-93093000D01*
X150094113Y-89449000D02*
X150094113Y-90310000D01*
X150654113Y-89060000D02*
X150654113Y-90310000D01*
X151655113Y-88777000D02*
X151655113Y-93923000D01*
X151495113Y-92390000D02*
X151495113Y-93906000D01*
X149534113Y-90172000D02*
X149534113Y-92528000D01*
X150174113Y-89379000D02*
X150174113Y-90310000D01*
X150694113Y-92390000D02*
X150694113Y-93660000D01*
X150294113Y-89285000D02*
X150294113Y-90310000D01*
X151295113Y-92390000D02*
X151295113Y-93870000D01*
X150614113Y-89082000D02*
X150614113Y-90310000D01*
X151094113Y-88882000D02*
X151094113Y-90310000D01*
X150934113Y-92390000D02*
X150934113Y-93764000D01*
X150614113Y-92390000D02*
X150614113Y-93618000D01*
X149294113Y-90832000D02*
X149294113Y-91868000D01*
X151375113Y-88814000D02*
X151375113Y-90310000D01*
X150854113Y-92390000D02*
X150854113Y-93732000D01*
X149774113Y-92390000D02*
X149774113Y-92904000D01*
X151735113Y-88772000D02*
X151735113Y-93928000D01*
X149774113Y-89796000D02*
X149774113Y-90310000D01*
X150334113Y-92390000D02*
X150334113Y-93445000D01*
X151014113Y-88908000D02*
X151014113Y-90310000D01*
X149574113Y-92390000D02*
X149574113Y-92601000D01*
X151775113Y-88771000D02*
X151775113Y-93929000D01*
X150014113Y-92390000D02*
X150014113Y-93176000D01*
X150174113Y-92390000D02*
X150174113Y-93321000D01*
X151335113Y-92390000D02*
X151335113Y-93878000D01*
X149894113Y-89651000D02*
X149894113Y-90310000D01*
X151575113Y-88785000D02*
X151575113Y-90310000D01*
X151295113Y-88830000D02*
X151295113Y-90310000D01*
X149334113Y-90673000D02*
X149334113Y-92027000D01*
X151014113Y-92390000D02*
X151014113Y-93792000D01*
X149414113Y-90435000D02*
X149414113Y-92265000D01*
X151335113Y-88822000D02*
X151335113Y-90310000D01*
X150334113Y-89255000D02*
X150334113Y-90310000D01*
X150454113Y-92390000D02*
X150454113Y-93525000D01*
X150414113Y-92390000D02*
X150414113Y-93499000D01*
X150094113Y-92390000D02*
X150094113Y-93251000D01*
X151134113Y-92390000D02*
X151134113Y-93830000D01*
X151695113Y-88774000D02*
X151695113Y-93926000D01*
X150454113Y-89175000D02*
X150454113Y-90310000D01*
X150494113Y-92390000D02*
X150494113Y-93550000D01*
X150294113Y-92390000D02*
X150294113Y-93415000D01*
X150134113Y-92390000D02*
X150134113Y-93287000D01*
X150374113Y-89228000D02*
X150374113Y-90310000D01*
X151535113Y-92390000D02*
X151535113Y-93911000D01*
X149694113Y-89907000D02*
X149694113Y-90310000D01*
X149734113Y-92390000D02*
X149734113Y-92850000D01*
X150734113Y-89021000D02*
X150734113Y-90310000D01*
X149254113Y-91066000D02*
X149254113Y-91634000D01*
X149854113Y-89697000D02*
X149854113Y-90310000D01*
X151815113Y-88770000D02*
X151815113Y-93930000D01*
X151054113Y-92390000D02*
X151054113Y-93805000D01*
X151855113Y-88770000D02*
X151855113Y-93930000D01*
X150374113Y-92390000D02*
X150374113Y-93472000D01*
X150814113Y-92390000D02*
X150814113Y-93715000D01*
X149734113Y-89850000D02*
X149734113Y-90310000D01*
X151415113Y-92390000D02*
X151415113Y-93893000D01*
X149374113Y-90545000D02*
X149374113Y-92155000D01*
X150054113Y-92390000D02*
X150054113Y-93214000D01*
X150054113Y-89486000D02*
X150054113Y-90310000D01*
X150654113Y-92390000D02*
X150654113Y-93640000D01*
X150814113Y-88985000D02*
X150814113Y-90310000D01*
X150534113Y-89126000D02*
X150534113Y-90310000D01*
X149974113Y-89565000D02*
X149974113Y-90310000D01*
X150254113Y-89315000D02*
X150254113Y-90310000D01*
X149974113Y-92390000D02*
X149974113Y-93135000D01*
X150574113Y-92390000D02*
X150574113Y-93597000D01*
X149654113Y-92390000D02*
X149654113Y-92733000D01*
X151094113Y-92390000D02*
X151094113Y-93818000D01*
X149854113Y-92390000D02*
X149854113Y-93003000D01*
X150974113Y-88922000D02*
X150974113Y-90310000D01*
X149814113Y-92390000D02*
X149814113Y-92955000D01*
X151615113Y-88781000D02*
X151615113Y-90310000D01*
X150574113Y-89103000D02*
X150574113Y-90310000D01*
X150734113Y-92390000D02*
X150734113Y-93679000D01*
X151215113Y-88849000D02*
X151215113Y-90310000D01*
X150414113Y-89201000D02*
X150414113Y-90310000D01*
X151255113Y-92390000D02*
X151255113Y-93861000D01*
X150974113Y-92390000D02*
X150974113Y-93778000D01*
X149694113Y-92390000D02*
X149694113Y-92793000D01*
X149454113Y-90339000D02*
X149454113Y-92361000D01*
X151495113Y-88794000D02*
X151495113Y-90310000D01*
X151615113Y-92390000D02*
X151615113Y-93919000D01*
X151134113Y-88870000D02*
X151134113Y-90310000D01*
X150214113Y-89346000D02*
X150214113Y-90310000D01*
X154475113Y-91350000D02*
G75*
G03*
X154475113Y-91350000I-2620000J0D01*
G01*
%TO.C,R27*%
X152877500Y-103345276D02*
X152877500Y-103854724D01*
X153922500Y-103345276D02*
X153922500Y-103854724D01*
%TO.C,R2*%
X142254724Y-78577500D02*
X141745276Y-78577500D01*
X142254724Y-79622500D02*
X141745276Y-79622500D01*
%TO.C,U5*%
X144425000Y-65240000D02*
X147875000Y-65240000D01*
X144425000Y-70360000D02*
X146375000Y-70360000D01*
X144425000Y-70360000D02*
X142475000Y-70360000D01*
X144425000Y-65240000D02*
X142475000Y-65240000D01*
%TO.C,R14*%
X143454724Y-164477500D02*
X142945276Y-164477500D01*
X143454724Y-165522500D02*
X142945276Y-165522500D01*
%TO.C,R20*%
X149732776Y-67722500D02*
X150242224Y-67722500D01*
X149732776Y-66677500D02*
X150242224Y-66677500D01*
%TO.C,R29*%
X148886250Y-111154724D02*
X148886250Y-110645276D01*
X147841250Y-111154724D02*
X147841250Y-110645276D01*
%TO.C,R9*%
X150345276Y-128377500D02*
X150854724Y-128377500D01*
X150345276Y-129422500D02*
X150854724Y-129422500D01*
%TO.C,C8*%
X146896267Y-106660000D02*
X146603733Y-106660000D01*
X146896267Y-105640000D02*
X146603733Y-105640000D01*
%TO.C,TP1*%
X135900000Y-101550000D02*
X135900000Y-103950000D01*
X138300000Y-103950000D02*
X138300000Y-101550000D01*
X135900000Y-103950000D02*
X138300000Y-103950000D01*
X138300000Y-101550000D02*
X135900000Y-101550000D01*
%TO.C,R5*%
X149072500Y-82895276D02*
X149072500Y-83404724D01*
X148027500Y-82895276D02*
X148027500Y-83404724D01*
%TO.C,C12*%
X154210000Y-114853733D02*
X154210000Y-115146267D01*
X153190000Y-114853733D02*
X153190000Y-115146267D01*
%TO.C,C18*%
X135490000Y-72053733D02*
X135490000Y-72346267D01*
X136510000Y-72053733D02*
X136510000Y-72346267D01*
%TO.C,R1*%
X142254724Y-78072500D02*
X141745276Y-78072500D01*
X142254724Y-77027500D02*
X141745276Y-77027500D01*
%TO.C,U6*%
X148800000Y-105160000D02*
X146850000Y-105160000D01*
X148800000Y-105160000D02*
X150750000Y-105160000D01*
X148800000Y-100040000D02*
X146850000Y-100040000D01*
X148800000Y-100040000D02*
X152250000Y-100040000D01*
%TO.C,R21*%
X150754724Y-161572500D02*
X150245276Y-161572500D01*
X150754724Y-160527500D02*
X150245276Y-160527500D01*
%TO.C,Q1*%
X139760000Y-78020000D02*
X139760000Y-81620000D01*
X136811193Y-77463600D02*
G75*
G03*
X135310000Y-79820000I1098807J-2356400D01*
G01*
X139760000Y-78020000D02*
G75*
G03*
X139032795Y-77495816I-1850000J-1800000D01*
G01*
X135310000Y-79820000D02*
G75*
G03*
X136811193Y-82176400I2600000J0D01*
G01*
X139032795Y-82144184D02*
G75*
G03*
X139760000Y-81620000I-1122795J2324184D01*
G01*
%TO.C,R3*%
X148027500Y-86295276D02*
X148027500Y-86804724D01*
X149072500Y-86295276D02*
X149072500Y-86804724D01*
%TO.C,RV1*%
X138121000Y-90510000D02*
X140085000Y-90510000D01*
X135345000Y-83560000D02*
X135345000Y-90510000D01*
X135345000Y-90510000D02*
X137131000Y-90510000D01*
X135345000Y-83560000D02*
X137131000Y-83560000D01*
X140085000Y-83560000D02*
X140085000Y-90510000D01*
X138121000Y-83560000D02*
X140085000Y-83560000D01*
%TO.C,R7*%
X138979724Y-91002500D02*
X138470276Y-91002500D01*
X138979724Y-92047500D02*
X138470276Y-92047500D01*
%TO.C,R16*%
X147154724Y-157327500D02*
X146645276Y-157327500D01*
X147154724Y-158372500D02*
X146645276Y-158372500D01*
%TO.C,C10*%
X146246267Y-88260000D02*
X145953733Y-88260000D01*
X146246267Y-87240000D02*
X145953733Y-87240000D01*
%TO.C,Q2*%
X147700000Y-121050000D02*
X151300000Y-121050000D01*
X149500000Y-125500000D02*
G75*
G03*
X151856400Y-123998807I0J2600000D01*
G01*
X147143600Y-123998807D02*
G75*
G03*
X149500000Y-125500000I2356400J1098807D01*
G01*
X147700000Y-121050000D02*
G75*
G03*
X147175816Y-121777205I1800000J-1850000D01*
G01*
X151824184Y-121777205D02*
G75*
G03*
X151300000Y-121050000I-2324184J-1122795D01*
G01*
%TO.C,C9*%
X147510000Y-78353733D02*
X147510000Y-78646267D01*
X146490000Y-78353733D02*
X146490000Y-78646267D01*
%TO.C,R17*%
X150754724Y-163172500D02*
X150245276Y-163172500D01*
X150754724Y-162127500D02*
X150245276Y-162127500D01*
%TO.C,R24*%
X139229724Y-66797500D02*
X138720276Y-66797500D01*
X139229724Y-65752500D02*
X138720276Y-65752500D01*
%TO.C,R28*%
X149304724Y-130277500D02*
X148795276Y-130277500D01*
X149304724Y-131322500D02*
X148795276Y-131322500D01*
%TO.C,R11*%
X135827500Y-105795276D02*
X135827500Y-106304724D01*
X136872500Y-105795276D02*
X136872500Y-106304724D01*
%TO.C,R6*%
X153327500Y-123645276D02*
X153327500Y-124154724D01*
X154372500Y-123645276D02*
X154372500Y-124154724D01*
%TO.C,D4*%
X148375000Y-70200000D02*
X152275000Y-70200000D01*
X148375000Y-70200000D02*
X148375000Y-68200000D01*
X148375000Y-68200000D02*
X152275000Y-68200000D01*
%TO.C,C7*%
X150133767Y-65190000D02*
X149841233Y-65190000D01*
X150133767Y-66210000D02*
X149841233Y-66210000D01*
%TO.C,U2*%
X152760000Y-117100000D02*
X152760000Y-115150000D01*
X147640000Y-117100000D02*
X147640000Y-113650000D01*
X152760000Y-117100000D02*
X152760000Y-119050000D01*
X147640000Y-117100000D02*
X147640000Y-119050000D01*
%TO.C,R18*%
X139245276Y-161522500D02*
X139754724Y-161522500D01*
X139245276Y-160477500D02*
X139754724Y-160477500D01*
%TO.C,R12*%
X148795276Y-135972500D02*
X149304724Y-135972500D01*
X148795276Y-134927500D02*
X149304724Y-134927500D01*
%TO.C,C13*%
X143253733Y-158335000D02*
X143546267Y-158335000D01*
X143253733Y-157315000D02*
X143546267Y-157315000D01*
%TD*%
M02*
