%TF.GenerationSoftware,KiCad,Pcbnew,6.0.11+dfsg-1~bpo11+1*%
%TF.CreationDate,2023-06-07T14:09:25+08:00*%
%TF.ProjectId,MiniSNH v1.0 - Main,4d696e69-534e-4482-9076-312e30202d20,rev?*%
%TF.SameCoordinates,Original*%
%TF.FileFunction,Soldermask,Top*%
%TF.FilePolarity,Negative*%
%FSLAX46Y46*%
G04 Gerber Fmt 4.6, Leading zero omitted, Abs format (unit mm)*
G04 Created by KiCad (PCBNEW 6.0.11+dfsg-1~bpo11+1) date 2023-06-07 14:09:25*
%MOMM*%
%LPD*%
G01*
G04 APERTURE LIST*
G04 Aperture macros list*
%AMRoundRect*
0 Rectangle with rounded corners*
0 $1 Rounding radius*
0 $2 $3 $4 $5 $6 $7 $8 $9 X,Y pos of 4 corners*
0 Add a 4 corners polygon primitive as box body*
4,1,4,$2,$3,$4,$5,$6,$7,$8,$9,$2,$3,0*
0 Add four circle primitives for the rounded corners*
1,1,$1+$1,$2,$3*
1,1,$1+$1,$4,$5*
1,1,$1+$1,$6,$7*
1,1,$1+$1,$8,$9*
0 Add four rect primitives between the rounded corners*
20,1,$1+$1,$2,$3,$4,$5,0*
20,1,$1+$1,$4,$5,$6,$7,0*
20,1,$1+$1,$6,$7,$8,$9,0*
20,1,$1+$1,$8,$9,$2,$3,0*%
G04 Aperture macros list end*
%ADD10RoundRect,0.237500X-0.250000X-0.237500X0.250000X-0.237500X0.250000X0.237500X-0.250000X0.237500X0*%
%ADD11R,1.930000X1.830000*%
%ADD12C,2.130000*%
%ADD13RoundRect,0.250000X0.337500X0.475000X-0.337500X0.475000X-0.337500X-0.475000X0.337500X-0.475000X0*%
%ADD14R,1.800000X1.800000*%
%ADD15C,1.800000*%
%ADD16RoundRect,0.237500X-0.300000X-0.237500X0.300000X-0.237500X0.300000X0.237500X-0.300000X0.237500X0*%
%ADD17RoundRect,0.250000X-0.475000X0.337500X-0.475000X-0.337500X0.475000X-0.337500X0.475000X0.337500X0*%
%ADD18RoundRect,0.237500X0.250000X0.237500X-0.250000X0.237500X-0.250000X-0.237500X0.250000X-0.237500X0*%
%ADD19RoundRect,0.237500X-0.237500X0.300000X-0.237500X-0.300000X0.237500X-0.300000X0.237500X0.300000X0*%
%ADD20RoundRect,0.250000X-0.600000X-0.600000X0.600000X-0.600000X0.600000X0.600000X-0.600000X0.600000X0*%
%ADD21C,1.700000*%
%ADD22R,1.600000X1.600000*%
%ADD23C,1.600000*%
%ADD24R,1.500000X1.500000*%
%ADD25C,1.500000*%
%ADD26C,1.440000*%
G04 APERTURE END LIST*
D10*
%TO.C,R25*%
X142187500Y-111725000D03*
X144012500Y-111725000D03*
%TD*%
D11*
%TO.C,SNH_OUT1*%
X150000000Y-95350000D03*
D12*
X150000000Y-106750000D03*
X150000000Y-98450000D03*
%TD*%
D13*
%TO.C,C5*%
X140537500Y-110000000D03*
X138462500Y-110000000D03*
%TD*%
D14*
%TO.C,D6*%
X152888750Y-111500000D03*
D15*
X150348750Y-111500000D03*
%TD*%
D11*
%TO.C,GATE_IN1*%
X150000000Y-75080000D03*
D12*
X150000000Y-63680000D03*
X150000000Y-71980000D03*
%TD*%
D14*
%TO.C,D3*%
X152500000Y-146000000D03*
D15*
X152500000Y-143460000D03*
%TD*%
D14*
%TO.C,PROBABILITY1*%
X142500000Y-139075000D03*
D15*
X145000000Y-139075000D03*
X147500000Y-139075000D03*
%TD*%
D14*
%TO.C,D2*%
X137500000Y-146100000D03*
D15*
X137500000Y-143560000D03*
%TD*%
D11*
%TO.C,PROB_IN1*%
X145000000Y-153300000D03*
D12*
X145000000Y-141900000D03*
X145000000Y-150200000D03*
%TD*%
D16*
%TO.C,FB1*%
X138837500Y-111800000D03*
X140562500Y-111800000D03*
%TD*%
D17*
%TO.C,C6*%
X143550000Y-122212500D03*
X143550000Y-124287500D03*
%TD*%
D11*
%TO.C,GATE_OUT2*%
X150050000Y-167950000D03*
D12*
X150050000Y-156550000D03*
X150050000Y-164850000D03*
%TD*%
D11*
%TO.C,SIGNAL_IN1*%
X140000000Y-75080000D03*
D12*
X140000000Y-63680000D03*
X140000000Y-71980000D03*
%TD*%
D18*
%TO.C,R26*%
X144012500Y-110200000D03*
X142187500Y-110200000D03*
%TD*%
D11*
%TO.C,NOISE_OUT1*%
X140000000Y-95350000D03*
D12*
X140000000Y-106750000D03*
X140000000Y-98450000D03*
%TD*%
D19*
%TO.C,FB2*%
X137750000Y-127237500D03*
X137750000Y-128962500D03*
%TD*%
D14*
%TO.C,SIGNAL_AMOUNT1*%
X142500000Y-89875000D03*
D15*
X145000000Y-89875000D03*
X147500000Y-89875000D03*
%TD*%
D11*
%TO.C,GATE_OUT1*%
X140000000Y-167930000D03*
D12*
X140000000Y-156530000D03*
X140000000Y-164830000D03*
%TD*%
D20*
%TO.C,J2*%
X138847500Y-124280000D03*
D21*
X141387500Y-124280000D03*
X138847500Y-121740000D03*
X141387500Y-121740000D03*
X138847500Y-119200000D03*
X141387500Y-119200000D03*
X138847500Y-116660000D03*
X141387500Y-116660000D03*
X138847500Y-114120000D03*
X141387500Y-114120000D03*
%TD*%
D22*
%TO.C,C1*%
X153105113Y-91350000D03*
D23*
X150605113Y-91350000D03*
%TD*%
D24*
%TO.C,Q1*%
X137910000Y-77280000D03*
D25*
X137910000Y-79820000D03*
X137910000Y-82360000D03*
%TD*%
D26*
%TO.C,RV1*%
X137625000Y-89575000D03*
X137625000Y-87035000D03*
X137625000Y-84495000D03*
%TD*%
D24*
%TO.C,Q2*%
X146960000Y-122900000D03*
D25*
X149500000Y-122900000D03*
X152040000Y-122900000D03*
%TD*%
M02*
