M48
; DRILL file {KiCad 6.0.11+dfsg-1~bpo11+1} date Wednesday, 07 June, 2023 02:09:26 PM
; FORMAT={-:-/ absolute / inch / decimal}
; #@! TF.CreationDate,2023-06-07T14:09:26+08:00
; #@! TF.GenerationSoftware,Kicad,Pcbnew,6.0.11+dfsg-1~bpo11+1
; #@! TF.FileFunction,Plated,1,2,PTH
FMAT,2
INCH
; #@! TA.AperFunction,Plated,PTH,ViaDrill
T1C0.0157
; #@! TA.AperFunction,Plated,PTH,ComponentDrill
T2C0.0315
; #@! TA.AperFunction,Plated,PTH,ComponentDrill
T3C0.0354
; #@! TA.AperFunction,Plated,PTH,ComponentDrill
T4C0.0394
; #@! TA.AperFunction,Plated,PTH,ComponentDrill
T5C0.0480
; #@! TA.AperFunction,Plated,PTH,ComponentDrill
T6C0.0559
; #@! TA.AperFunction,Plated,PTH,ComponentDrill
T7C0.0563
%
G90
G05
T1
X5.3701Y-2.6102
X5.4035Y-4.3563
X5.4153Y-5.2849
X5.437Y-4.3091
X5.4375Y-2.9355
X5.4606Y-4.3406
X5.5157Y-3.2598
X5.5965Y-3.0098
X5.5984Y-2.4764
X5.5984Y-4.3976
X5.6136Y-6.114
X5.6149Y-6.1626
X5.6186Y-2.5438
X5.6299Y-3.4503
X5.6319Y-3.7559
X5.6339Y-2.8406
X5.6496Y-3.2205
X5.6516Y-3.6516
X5.6654Y-4.0157
X5.6673Y-2.874
X5.6772Y-2.6378
X5.685Y-2.7165
X5.687Y-3.3361
X5.6941Y-5.2976
X5.7008Y-2.5787
X5.7372Y-4.4488
X5.7382Y-2.811
X5.752Y-2.8681
X5.7559Y-2.4921
X5.7579Y-4.2303
X5.7697Y-5.1516
X5.7697Y-5.185
X5.7758Y-5.268
X5.7795Y-4.659
X5.7835Y-6.5512
X5.7953Y-3.6417
X5.7953Y-4.311
X5.7992Y-4.564
X5.7996Y-5.4028
X5.8169Y-4.2303
X5.8248Y-5.065
X5.8297Y-5.5541
X5.8307Y-4.9016
X5.8324Y-5.2714
X5.8898Y-5.4941
X5.8949Y-3.0749
X5.9144Y-4.5817
X5.9429Y-2.6496
X5.9488Y-4.9134
X5.9577Y-4.4439
X5.9646Y-5.187
X5.9646Y-5.2264
X5.9646Y-5.2677
X5.9823Y-2.624
X5.9862Y-2.4941
X5.9882Y-4.1673
X5.9882Y-4.6122
X5.998Y-2.6575
X6.002Y-2.5236
X6.0315Y-4.6437
X6.0349Y-4.968
X6.0374Y-5.0317
X6.0453Y-4.2362
T2
X5.4183Y-3.3266
X5.4183Y-3.4266
X5.4183Y-3.5266
X5.4295Y-3.0425
X5.4295Y-3.1425
X5.4295Y-3.2425
X5.7858Y-4.8386
X5.8858Y-4.8386
X5.9293Y-3.5965
X5.9858Y-4.8386
X6.0278Y-3.5965
T3
X5.4134Y-5.652
X5.4134Y-5.752
X5.9192Y-4.3898
X6.0039Y-5.648
X6.0039Y-5.748
X6.0192Y-4.3898
T4
X5.4664Y-4.4929
X5.4664Y-4.5929
X5.4664Y-4.6929
X5.4664Y-4.7929
X5.4664Y-4.8929
X5.5664Y-4.4929
X5.5664Y-4.5929
X5.5664Y-4.6929
X5.5664Y-4.7929
X5.5664Y-4.8929
X5.6102Y-3.5384
X5.6102Y-5.4754
X5.7087Y-3.5384
X5.7087Y-5.4754
X5.8071Y-3.5384
X5.8071Y-5.4754
T5
X5.5118Y-2.9559
X5.5118Y-3.7539
X5.5118Y-6.6114
X5.7087Y-6.0354
X5.9055Y-2.9559
X5.9055Y-3.7539
X5.9075Y-6.6122
T6
X5.5118Y-2.8339
X5.5118Y-3.876
X5.5118Y-6.4894
X5.7087Y-5.9134
X5.9055Y-2.8339
X5.9055Y-3.876
X5.9075Y-6.4902
T7
X5.5118Y-2.5071
X5.5118Y-4.2028
X5.5118Y-6.1626
X5.7087Y-5.5866
X5.9055Y-2.5071
X5.9055Y-4.2028
X5.9075Y-6.1634
T0
M30
