%TF.GenerationSoftware,KiCad,Pcbnew,6.0.11+dfsg-1~bpo11+1*%
%TF.CreationDate,2023-06-07T14:09:27+08:00*%
%TF.ProjectId,MiniSNH v1.0 - Main,4d696e69-534e-4482-9076-312e30202d20,rev?*%
%TF.SameCoordinates,Original*%
%TF.FileFunction,Drillmap*%
%TF.FilePolarity,Positive*%
%FSLAX45Y45*%
G04 Gerber Fmt 4.5, Leading zero omitted, Abs format (unit mm)*
G04 Created by KiCad (PCBNEW 6.0.11+dfsg-1~bpo11+1) date 2023-06-07 14:09:27*
%MOMM*%
%LPD*%
G01*
G04 APERTURE LIST*
%ADD10C,0.100000*%
%ADD11C,0.200000*%
%ADD12C,0.040000*%
%ADD13C,0.080000*%
%ADD14C,0.090000*%
%ADD15C,0.122000*%
%ADD16C,0.142000*%
%ADD17C,0.143000*%
G04 APERTURE END LIST*
D10*
X15500000Y-6210000D02*
X15500000Y-17000000D01*
X15500000Y-17000000D02*
X13500000Y-17000000D01*
X13500000Y-17000000D02*
X13500000Y-6210000D01*
X13500000Y-6210000D02*
X15500000Y-6210000D01*
D11*
D12*
X13620000Y-6610000D02*
X13660000Y-6650000D01*
X13660000Y-6610000D02*
X13620000Y-6650000D01*
X13705000Y-11045000D02*
X13745000Y-11085000D01*
X13745000Y-11045000D02*
X13705000Y-11085000D01*
X13734809Y-13403594D02*
X13774809Y-13443594D01*
X13774809Y-13403594D02*
X13734809Y-13443594D01*
X13790000Y-10925000D02*
X13830000Y-10965000D01*
X13830000Y-10925000D02*
X13790000Y-10965000D01*
X13791230Y-7436230D02*
X13831230Y-7476230D01*
X13831230Y-7436230D02*
X13791230Y-7476230D01*
X13850000Y-11005000D02*
X13890000Y-11045000D01*
X13890000Y-11005000D02*
X13850000Y-11045000D01*
X13990000Y-8260000D02*
X14030000Y-8300000D01*
X14030000Y-8260000D02*
X13990000Y-8300000D01*
X14195000Y-7625000D02*
X14235000Y-7665000D01*
X14235000Y-7625000D02*
X14195000Y-7665000D01*
X14200000Y-6270000D02*
X14240000Y-6310000D01*
X14240000Y-6270000D02*
X14200000Y-6310000D01*
X14200000Y-11150000D02*
X14240000Y-11190000D01*
X14240000Y-11150000D02*
X14200000Y-11190000D01*
X14238525Y-15509554D02*
X14278525Y-15549554D01*
X14278525Y-15509554D02*
X14238525Y-15549554D01*
X14241917Y-15633083D02*
X14281917Y-15673083D01*
X14281917Y-15633083D02*
X14241917Y-15673083D01*
X14251230Y-6441230D02*
X14291230Y-6481230D01*
X14291230Y-6441230D02*
X14251230Y-6481230D01*
X14280050Y-8743789D02*
X14320050Y-8783789D01*
X14320050Y-8743789D02*
X14280050Y-8783789D01*
X14285000Y-9520000D02*
X14325000Y-9560000D01*
X14325000Y-9520000D02*
X14285000Y-9560000D01*
X14290000Y-7195000D02*
X14330000Y-7235000D01*
X14330000Y-7195000D02*
X14290000Y-7235000D01*
X14330000Y-8160000D02*
X14370000Y-8200000D01*
X14370000Y-8160000D02*
X14330000Y-8200000D01*
X14335000Y-9255000D02*
X14375000Y-9295000D01*
X14375000Y-9255000D02*
X14335000Y-9295000D01*
X14370000Y-10180000D02*
X14410000Y-10220000D01*
X14410000Y-10180000D02*
X14370000Y-10220000D01*
X14375000Y-7280000D02*
X14415000Y-7320000D01*
X14415000Y-7280000D02*
X14375000Y-7320000D01*
X14400000Y-6680000D02*
X14440000Y-6720000D01*
X14440000Y-6680000D02*
X14400000Y-6720000D01*
X14420000Y-6880000D02*
X14460000Y-6920000D01*
X14460000Y-6880000D02*
X14420000Y-6920000D01*
X14424950Y-8453601D02*
X14464950Y-8493601D01*
X14464950Y-8453601D02*
X14424950Y-8493601D01*
X14443000Y-13436000D02*
X14483000Y-13476000D01*
X14483000Y-13436000D02*
X14443000Y-13476000D01*
X14460000Y-6530000D02*
X14500000Y-6570000D01*
X14500000Y-6530000D02*
X14460000Y-6570000D01*
X14552550Y-11280000D02*
X14592550Y-11320000D01*
X14592550Y-11280000D02*
X14552550Y-11320000D01*
X14555000Y-7120000D02*
X14595000Y-7160000D01*
X14595000Y-7120000D02*
X14555000Y-7160000D01*
X14590000Y-7265000D02*
X14630000Y-7305000D01*
X14630000Y-7265000D02*
X14590000Y-7305000D01*
X14600000Y-6310000D02*
X14640000Y-6350000D01*
X14640000Y-6310000D02*
X14600000Y-6350000D01*
X14605000Y-10725000D02*
X14645000Y-10765000D01*
X14645000Y-10725000D02*
X14605000Y-10765000D01*
X14635000Y-13065000D02*
X14675000Y-13105000D01*
X14675000Y-13065000D02*
X14635000Y-13105000D01*
X14635000Y-13150000D02*
X14675000Y-13190000D01*
X14675000Y-13150000D02*
X14635000Y-13190000D01*
X14650625Y-13360625D02*
X14690625Y-13400625D01*
X14690625Y-13360625D02*
X14650625Y-13400625D01*
X14660050Y-11813836D02*
X14700050Y-11853836D01*
X14700050Y-11813836D02*
X14660050Y-11853836D01*
X14670000Y-16620000D02*
X14710000Y-16660000D01*
X14710000Y-16620000D02*
X14670000Y-16660000D01*
X14700000Y-9230000D02*
X14740000Y-9270000D01*
X14740000Y-9230000D02*
X14700000Y-9270000D01*
X14700000Y-10930000D02*
X14740000Y-10970000D01*
X14740000Y-10930000D02*
X14700000Y-10970000D01*
X14710000Y-11572500D02*
X14750000Y-11612500D01*
X14750000Y-11572500D02*
X14710000Y-11612500D01*
X14711000Y-13703000D02*
X14751000Y-13743000D01*
X14751000Y-13703000D02*
X14711000Y-13743000D01*
X14755000Y-10725000D02*
X14795000Y-10765000D01*
X14795000Y-10725000D02*
X14755000Y-10765000D01*
X14775000Y-12845000D02*
X14815000Y-12885000D01*
X14815000Y-12845000D02*
X14775000Y-12885000D01*
X14787500Y-14087500D02*
X14827500Y-14127500D01*
X14827500Y-14087500D02*
X14787500Y-14127500D01*
X14790000Y-12430000D02*
X14830000Y-12470000D01*
X14830000Y-12430000D02*
X14790000Y-12470000D01*
X14794375Y-13369375D02*
X14834375Y-13409375D01*
X14834375Y-13369375D02*
X14794375Y-13409375D01*
X14940000Y-13935000D02*
X14980000Y-13975000D01*
X14980000Y-13935000D02*
X14940000Y-13975000D01*
X14952962Y-7790284D02*
X14992962Y-7830284D01*
X14992962Y-7790284D02*
X14952962Y-7830284D01*
X15002500Y-11617500D02*
X15042500Y-11657500D01*
X15042500Y-11617500D02*
X15002500Y-11657500D01*
X15075000Y-6710000D02*
X15115000Y-6750000D01*
X15115000Y-6710000D02*
X15075000Y-6750000D01*
X15090000Y-12460000D02*
X15130000Y-12500000D01*
X15130000Y-12460000D02*
X15090000Y-12500000D01*
X15112500Y-11267500D02*
X15152500Y-11307500D01*
X15152500Y-11267500D02*
X15112500Y-11307500D01*
X15130000Y-13155000D02*
X15170000Y-13195000D01*
X15170000Y-13155000D02*
X15130000Y-13195000D01*
X15130000Y-13255000D02*
X15170000Y-13295000D01*
X15170000Y-13255000D02*
X15130000Y-13295000D01*
X15130000Y-13360000D02*
X15170000Y-13400000D01*
X15170000Y-13360000D02*
X15130000Y-13400000D01*
X15175000Y-6645000D02*
X15215000Y-6685000D01*
X15215000Y-6645000D02*
X15175000Y-6685000D01*
X15185000Y-6315000D02*
X15225000Y-6355000D01*
X15225000Y-6315000D02*
X15185000Y-6355000D01*
X15190000Y-10565000D02*
X15230000Y-10605000D01*
X15230000Y-10565000D02*
X15190000Y-10605000D01*
X15190000Y-11695000D02*
X15230000Y-11735000D01*
X15230000Y-11695000D02*
X15190000Y-11735000D01*
X15215000Y-6730000D02*
X15255000Y-6770000D01*
X15255000Y-6730000D02*
X15215000Y-6770000D01*
X15225000Y-6390000D02*
X15265000Y-6430000D01*
X15265000Y-6390000D02*
X15225000Y-6430000D01*
X15300000Y-11775000D02*
X15340000Y-11815000D01*
X15340000Y-11775000D02*
X15300000Y-11815000D01*
X15308730Y-12598730D02*
X15348730Y-12638730D01*
X15348730Y-12598730D02*
X15308730Y-12638730D01*
X15314888Y-12760545D02*
X15354888Y-12800545D01*
X15354888Y-12760545D02*
X15314888Y-12800545D01*
X15335000Y-10740000D02*
X15375000Y-10780000D01*
X15375000Y-10740000D02*
X15335000Y-10780000D01*
D13*
X13802500Y-8449500D02*
G75*
G03*
X13802500Y-8449500I-40000J0D01*
G01*
X13802500Y-8703500D02*
G75*
G03*
X13802500Y-8703500I-40000J0D01*
G01*
X13802500Y-8957500D02*
G75*
G03*
X13802500Y-8957500I-40000J0D01*
G01*
X13831000Y-7728000D02*
G75*
G03*
X13831000Y-7728000I-40000J0D01*
G01*
X13831000Y-7982000D02*
G75*
G03*
X13831000Y-7982000I-40000J0D01*
G01*
X13831000Y-8236000D02*
G75*
G03*
X13831000Y-8236000I-40000J0D01*
G01*
X14736000Y-12290000D02*
G75*
G03*
X14736000Y-12290000I-40000J0D01*
G01*
X14990000Y-12290000D02*
G75*
G03*
X14990000Y-12290000I-40000J0D01*
G01*
X15100511Y-9135000D02*
G75*
G03*
X15100511Y-9135000I-40000J0D01*
G01*
X15244000Y-12290000D02*
G75*
G03*
X15244000Y-12290000I-40000J0D01*
G01*
X15350511Y-9135000D02*
G75*
G03*
X15350511Y-9135000I-40000J0D01*
G01*
D14*
X13750000Y-14311000D02*
X13750000Y-14401000D01*
X13705000Y-14356000D02*
X13795000Y-14356000D01*
X13750000Y-14565000D02*
X13750000Y-14655000D01*
X13705000Y-14610000D02*
X13795000Y-14610000D01*
X15034875Y-11105000D02*
X15034875Y-11195000D01*
X14989875Y-11150000D02*
X15079875Y-11150000D01*
X15250000Y-14301000D02*
X15250000Y-14391000D01*
X15205000Y-14346000D02*
X15295000Y-14346000D01*
X15250000Y-14555000D02*
X15250000Y-14645000D01*
X15205000Y-14600000D02*
X15295000Y-14600000D01*
X15288875Y-11105000D02*
X15288875Y-11195000D01*
X15243875Y-11150000D02*
X15333875Y-11150000D01*
D10*
X13920106Y-11447356D02*
X13920106Y-11376644D01*
X13849394Y-11376644D01*
X13849394Y-11447356D01*
X13920106Y-11447356D01*
X13920106Y-11701356D02*
X13920106Y-11630644D01*
X13849394Y-11630644D01*
X13849394Y-11701356D01*
X13920106Y-11701356D01*
X13920106Y-11955356D02*
X13920106Y-11884644D01*
X13849394Y-11884644D01*
X13849394Y-11955356D01*
X13920106Y-11955356D01*
X13920106Y-12209356D02*
X13920106Y-12138644D01*
X13849394Y-12138644D01*
X13849394Y-12209356D01*
X13920106Y-12209356D01*
X13920106Y-12463356D02*
X13920106Y-12392644D01*
X13849394Y-12392644D01*
X13849394Y-12463356D01*
X13920106Y-12463356D01*
X14174106Y-11447356D02*
X14174106Y-11376644D01*
X14103394Y-11376644D01*
X14103394Y-11447356D01*
X14174106Y-11447356D01*
X14174106Y-11701356D02*
X14174106Y-11630644D01*
X14103394Y-11630644D01*
X14103394Y-11701356D01*
X14174106Y-11701356D01*
X14174106Y-11955356D02*
X14174106Y-11884644D01*
X14103394Y-11884644D01*
X14103394Y-11955356D01*
X14174106Y-11955356D01*
X14174106Y-12209356D02*
X14174106Y-12138644D01*
X14103394Y-12138644D01*
X14103394Y-12209356D01*
X14174106Y-12209356D01*
X14174106Y-12463356D02*
X14174106Y-12392644D01*
X14103394Y-12392644D01*
X14103394Y-12463356D01*
X14174106Y-12463356D01*
X14285356Y-9022856D02*
X14285356Y-8952144D01*
X14214644Y-8952144D01*
X14214644Y-9022856D01*
X14285356Y-9022856D01*
X14285356Y-13942856D02*
X14285356Y-13872144D01*
X14214644Y-13872144D01*
X14214644Y-13942856D01*
X14285356Y-13942856D01*
X14535356Y-9022856D02*
X14535356Y-8952144D01*
X14464644Y-8952144D01*
X14464644Y-9022856D01*
X14535356Y-9022856D01*
X14535356Y-13942856D02*
X14535356Y-13872144D01*
X14464644Y-13872144D01*
X14464644Y-13942856D01*
X14535356Y-13942856D01*
X14785356Y-9022856D02*
X14785356Y-8952144D01*
X14714644Y-8952144D01*
X14714644Y-9022856D01*
X14785356Y-9022856D01*
X14785356Y-13942856D02*
X14785356Y-13872144D01*
X14714644Y-13872144D01*
X14714644Y-13942856D01*
X14785356Y-13942856D01*
D15*
X14000000Y-7569000D02*
X14061000Y-7508000D01*
X14000000Y-7447000D01*
X13939000Y-7508000D01*
X14000000Y-7569000D01*
X14000000Y-9596000D02*
X14061000Y-9535000D01*
X14000000Y-9474000D01*
X13939000Y-9535000D01*
X14000000Y-9596000D01*
X14000000Y-16854000D02*
X14061000Y-16793000D01*
X14000000Y-16732000D01*
X13939000Y-16793000D01*
X14000000Y-16854000D01*
X14500000Y-15391000D02*
X14561000Y-15330000D01*
X14500000Y-15269000D01*
X14439000Y-15330000D01*
X14500000Y-15391000D01*
X15000000Y-7569000D02*
X15061000Y-7508000D01*
X15000000Y-7447000D01*
X14939000Y-7508000D01*
X15000000Y-7569000D01*
X15000000Y-9596000D02*
X15061000Y-9535000D01*
X15000000Y-9474000D01*
X14939000Y-9535000D01*
X15000000Y-9596000D01*
X15005000Y-16856000D02*
X15066000Y-16795000D01*
X15005000Y-16734000D01*
X14944000Y-16795000D01*
X15005000Y-16856000D01*
D16*
X13929000Y-7127000D02*
X14071000Y-7269000D01*
X14071000Y-7127000D02*
X13929000Y-7269000D01*
X14071000Y-7198000D02*
G75*
G03*
X14071000Y-7198000I-71000J0D01*
G01*
X13929000Y-9774000D02*
X14071000Y-9916000D01*
X14071000Y-9774000D02*
X13929000Y-9916000D01*
X14071000Y-9845000D02*
G75*
G03*
X14071000Y-9845000I-71000J0D01*
G01*
X13929000Y-16412000D02*
X14071000Y-16554000D01*
X14071000Y-16412000D02*
X13929000Y-16554000D01*
X14071000Y-16483000D02*
G75*
G03*
X14071000Y-16483000I-71000J0D01*
G01*
X14429000Y-14949000D02*
X14571000Y-15091000D01*
X14571000Y-14949000D02*
X14429000Y-15091000D01*
X14571000Y-15020000D02*
G75*
G03*
X14571000Y-15020000I-71000J0D01*
G01*
X14929000Y-7127000D02*
X15071000Y-7269000D01*
X15071000Y-7127000D02*
X14929000Y-7269000D01*
X15071000Y-7198000D02*
G75*
G03*
X15071000Y-7198000I-71000J0D01*
G01*
X14929000Y-9774000D02*
X15071000Y-9916000D01*
X15071000Y-9774000D02*
X14929000Y-9916000D01*
X15071000Y-9845000D02*
G75*
G03*
X15071000Y-9845000I-71000J0D01*
G01*
X14934000Y-16414000D02*
X15076000Y-16556000D01*
X15076000Y-16414000D02*
X14934000Y-16556000D01*
X15076000Y-16485000D02*
G75*
G03*
X15076000Y-16485000I-71000J0D01*
G01*
D17*
X13928500Y-6296500D02*
X14071500Y-6439500D01*
X14071500Y-6296500D02*
X13928500Y-6439500D01*
X14000000Y-6296500D02*
X14000000Y-6439500D01*
X13928500Y-6368000D02*
X14071500Y-6368000D01*
X13928500Y-10603500D02*
X14071500Y-10746500D01*
X14071500Y-10603500D02*
X13928500Y-10746500D01*
X14000000Y-10603500D02*
X14000000Y-10746500D01*
X13928500Y-10675000D02*
X14071500Y-10675000D01*
X13928500Y-15581500D02*
X14071500Y-15724500D01*
X14071500Y-15581500D02*
X13928500Y-15724500D01*
X14000000Y-15581500D02*
X14000000Y-15724500D01*
X13928500Y-15653000D02*
X14071500Y-15653000D01*
X14428500Y-14118500D02*
X14571500Y-14261500D01*
X14571500Y-14118500D02*
X14428500Y-14261500D01*
X14500000Y-14118500D02*
X14500000Y-14261500D01*
X14428500Y-14190000D02*
X14571500Y-14190000D01*
X14928500Y-6296500D02*
X15071500Y-6439500D01*
X15071500Y-6296500D02*
X14928500Y-6439500D01*
X15000000Y-6296500D02*
X15000000Y-6439500D01*
X14928500Y-6368000D02*
X15071500Y-6368000D01*
X14928500Y-10603500D02*
X15071500Y-10746500D01*
X15071500Y-10603500D02*
X14928500Y-10746500D01*
X15000000Y-10603500D02*
X15000000Y-10746500D01*
X14928500Y-10675000D02*
X15071500Y-10675000D01*
X14933500Y-15583500D02*
X15076500Y-15726500D01*
X15076500Y-15583500D02*
X14933500Y-15726500D01*
X15005000Y-15583500D02*
X15005000Y-15726500D01*
X14933500Y-15655000D02*
X15076500Y-15655000D01*
D11*
X13752619Y-17315476D02*
X13752619Y-17115476D01*
X13800238Y-17115476D01*
X13828809Y-17125000D01*
X13847857Y-17144048D01*
X13857381Y-17163095D01*
X13866905Y-17201190D01*
X13866905Y-17229762D01*
X13857381Y-17267857D01*
X13847857Y-17286905D01*
X13828809Y-17305952D01*
X13800238Y-17315476D01*
X13752619Y-17315476D01*
X13952619Y-17315476D02*
X13952619Y-17182143D01*
X13952619Y-17220238D02*
X13962143Y-17201190D01*
X13971667Y-17191667D01*
X13990714Y-17182143D01*
X14009762Y-17182143D01*
X14076428Y-17315476D02*
X14076428Y-17182143D01*
X14076428Y-17115476D02*
X14066905Y-17125000D01*
X14076428Y-17134524D01*
X14085952Y-17125000D01*
X14076428Y-17115476D01*
X14076428Y-17134524D01*
X14200238Y-17315476D02*
X14181190Y-17305952D01*
X14171667Y-17286905D01*
X14171667Y-17115476D01*
X14305000Y-17315476D02*
X14285952Y-17305952D01*
X14276428Y-17286905D01*
X14276428Y-17115476D01*
X14533571Y-17315476D02*
X14533571Y-17115476D01*
X14600238Y-17258333D01*
X14666905Y-17115476D01*
X14666905Y-17315476D01*
X14847857Y-17315476D02*
X14847857Y-17210714D01*
X14838333Y-17191667D01*
X14819286Y-17182143D01*
X14781190Y-17182143D01*
X14762143Y-17191667D01*
X14847857Y-17305952D02*
X14828809Y-17315476D01*
X14781190Y-17315476D01*
X14762143Y-17305952D01*
X14752619Y-17286905D01*
X14752619Y-17267857D01*
X14762143Y-17248810D01*
X14781190Y-17239286D01*
X14828809Y-17239286D01*
X14847857Y-17229762D01*
X14943095Y-17182143D02*
X14943095Y-17382143D01*
X14943095Y-17191667D02*
X14962143Y-17182143D01*
X15000238Y-17182143D01*
X15019286Y-17191667D01*
X15028809Y-17201190D01*
X15038333Y-17220238D01*
X15038333Y-17277381D01*
X15028809Y-17296429D01*
X15019286Y-17305952D01*
X15000238Y-17315476D01*
X14962143Y-17315476D01*
X14943095Y-17305952D01*
X15124048Y-17296429D02*
X15133571Y-17305952D01*
X15124048Y-17315476D01*
X15114524Y-17305952D01*
X15124048Y-17296429D01*
X15124048Y-17315476D01*
X15124048Y-17191667D02*
X15133571Y-17201190D01*
X15124048Y-17210714D01*
X15114524Y-17201190D01*
X15124048Y-17191667D01*
X15124048Y-17210714D01*
D12*
X13455000Y-17625000D02*
X13495000Y-17665000D01*
X13495000Y-17625000D02*
X13455000Y-17665000D01*
D11*
X13790714Y-17535476D02*
X13809762Y-17535476D01*
X13828809Y-17545000D01*
X13838333Y-17554524D01*
X13847857Y-17573571D01*
X13857381Y-17611667D01*
X13857381Y-17659286D01*
X13847857Y-17697381D01*
X13838333Y-17716429D01*
X13828809Y-17725952D01*
X13809762Y-17735476D01*
X13790714Y-17735476D01*
X13771667Y-17725952D01*
X13762143Y-17716429D01*
X13752619Y-17697381D01*
X13743095Y-17659286D01*
X13743095Y-17611667D01*
X13752619Y-17573571D01*
X13762143Y-17554524D01*
X13771667Y-17545000D01*
X13790714Y-17535476D01*
X13943095Y-17716429D02*
X13952619Y-17725952D01*
X13943095Y-17735476D01*
X13933571Y-17725952D01*
X13943095Y-17716429D01*
X13943095Y-17735476D01*
X14124048Y-17602143D02*
X14124048Y-17735476D01*
X14076428Y-17525952D02*
X14028809Y-17668810D01*
X14152619Y-17668810D01*
X14266905Y-17535476D02*
X14285952Y-17535476D01*
X14305000Y-17545000D01*
X14314524Y-17554524D01*
X14324048Y-17573571D01*
X14333571Y-17611667D01*
X14333571Y-17659286D01*
X14324048Y-17697381D01*
X14314524Y-17716429D01*
X14305000Y-17725952D01*
X14285952Y-17735476D01*
X14266905Y-17735476D01*
X14247857Y-17725952D01*
X14238333Y-17716429D01*
X14228809Y-17697381D01*
X14219286Y-17659286D01*
X14219286Y-17611667D01*
X14228809Y-17573571D01*
X14238333Y-17554524D01*
X14247857Y-17545000D01*
X14266905Y-17535476D01*
X14457381Y-17535476D02*
X14476428Y-17535476D01*
X14495476Y-17545000D01*
X14505000Y-17554524D01*
X14514524Y-17573571D01*
X14524048Y-17611667D01*
X14524048Y-17659286D01*
X14514524Y-17697381D01*
X14505000Y-17716429D01*
X14495476Y-17725952D01*
X14476428Y-17735476D01*
X14457381Y-17735476D01*
X14438333Y-17725952D01*
X14428809Y-17716429D01*
X14419286Y-17697381D01*
X14409762Y-17659286D01*
X14409762Y-17611667D01*
X14419286Y-17573571D01*
X14428809Y-17554524D01*
X14438333Y-17545000D01*
X14457381Y-17535476D01*
X14609762Y-17735476D02*
X14609762Y-17602143D01*
X14609762Y-17621190D02*
X14619286Y-17611667D01*
X14638333Y-17602143D01*
X14666905Y-17602143D01*
X14685952Y-17611667D01*
X14695476Y-17630714D01*
X14695476Y-17735476D01*
X14695476Y-17630714D02*
X14705000Y-17611667D01*
X14724048Y-17602143D01*
X14752619Y-17602143D01*
X14771667Y-17611667D01*
X14781190Y-17630714D01*
X14781190Y-17735476D01*
X14876428Y-17735476D02*
X14876428Y-17602143D01*
X14876428Y-17621190D02*
X14885952Y-17611667D01*
X14905000Y-17602143D01*
X14933571Y-17602143D01*
X14952619Y-17611667D01*
X14962143Y-17630714D01*
X14962143Y-17735476D01*
X14962143Y-17630714D02*
X14971667Y-17611667D01*
X14990714Y-17602143D01*
X15019286Y-17602143D01*
X15038333Y-17611667D01*
X15047857Y-17630714D01*
X15047857Y-17735476D01*
X15438333Y-17525952D02*
X15266905Y-17783095D01*
X15695476Y-17535476D02*
X15714524Y-17535476D01*
X15733571Y-17545000D01*
X15743095Y-17554524D01*
X15752619Y-17573571D01*
X15762143Y-17611667D01*
X15762143Y-17659286D01*
X15752619Y-17697381D01*
X15743095Y-17716429D01*
X15733571Y-17725952D01*
X15714524Y-17735476D01*
X15695476Y-17735476D01*
X15676428Y-17725952D01*
X15666905Y-17716429D01*
X15657381Y-17697381D01*
X15647857Y-17659286D01*
X15647857Y-17611667D01*
X15657381Y-17573571D01*
X15666905Y-17554524D01*
X15676428Y-17545000D01*
X15695476Y-17535476D01*
X15847857Y-17716429D02*
X15857381Y-17725952D01*
X15847857Y-17735476D01*
X15838333Y-17725952D01*
X15847857Y-17716429D01*
X15847857Y-17735476D01*
X15981190Y-17535476D02*
X16000238Y-17535476D01*
X16019286Y-17545000D01*
X16028809Y-17554524D01*
X16038333Y-17573571D01*
X16047857Y-17611667D01*
X16047857Y-17659286D01*
X16038333Y-17697381D01*
X16028809Y-17716429D01*
X16019286Y-17725952D01*
X16000238Y-17735476D01*
X15981190Y-17735476D01*
X15962143Y-17725952D01*
X15952619Y-17716429D01*
X15943095Y-17697381D01*
X15933571Y-17659286D01*
X15933571Y-17611667D01*
X15943095Y-17573571D01*
X15952619Y-17554524D01*
X15962143Y-17545000D01*
X15981190Y-17535476D01*
X16238333Y-17735476D02*
X16124048Y-17735476D01*
X16181190Y-17735476D02*
X16181190Y-17535476D01*
X16162143Y-17564048D01*
X16143095Y-17583095D01*
X16124048Y-17592619D01*
X16419286Y-17535476D02*
X16324048Y-17535476D01*
X16314524Y-17630714D01*
X16324048Y-17621190D01*
X16343095Y-17611667D01*
X16390714Y-17611667D01*
X16409762Y-17621190D01*
X16419286Y-17630714D01*
X16428809Y-17649762D01*
X16428809Y-17697381D01*
X16419286Y-17716429D01*
X16409762Y-17725952D01*
X16390714Y-17735476D01*
X16343095Y-17735476D01*
X16324048Y-17725952D01*
X16314524Y-17716429D01*
X16495476Y-17535476D02*
X16628809Y-17535476D01*
X16543095Y-17735476D01*
X16695476Y-17535476D02*
X16695476Y-17573571D01*
X16771667Y-17535476D02*
X16771667Y-17573571D01*
X17066905Y-17811667D02*
X17057381Y-17802143D01*
X17038333Y-17773571D01*
X17028810Y-17754524D01*
X17019286Y-17725952D01*
X17009762Y-17678333D01*
X17009762Y-17640238D01*
X17019286Y-17592619D01*
X17028810Y-17564048D01*
X17038333Y-17545000D01*
X17057381Y-17516429D01*
X17066905Y-17506905D01*
X17228810Y-17535476D02*
X17190714Y-17535476D01*
X17171667Y-17545000D01*
X17162143Y-17554524D01*
X17143095Y-17583095D01*
X17133571Y-17621190D01*
X17133571Y-17697381D01*
X17143095Y-17716429D01*
X17152619Y-17725952D01*
X17171667Y-17735476D01*
X17209762Y-17735476D01*
X17228810Y-17725952D01*
X17238333Y-17716429D01*
X17247857Y-17697381D01*
X17247857Y-17649762D01*
X17238333Y-17630714D01*
X17228810Y-17621190D01*
X17209762Y-17611667D01*
X17171667Y-17611667D01*
X17152619Y-17621190D01*
X17143095Y-17630714D01*
X17133571Y-17649762D01*
X17314524Y-17535476D02*
X17438333Y-17535476D01*
X17371667Y-17611667D01*
X17400238Y-17611667D01*
X17419286Y-17621190D01*
X17428810Y-17630714D01*
X17438333Y-17649762D01*
X17438333Y-17697381D01*
X17428810Y-17716429D01*
X17419286Y-17725952D01*
X17400238Y-17735476D01*
X17343095Y-17735476D01*
X17324048Y-17725952D01*
X17314524Y-17716429D01*
X17676429Y-17735476D02*
X17676429Y-17535476D01*
X17762143Y-17735476D02*
X17762143Y-17630714D01*
X17752619Y-17611667D01*
X17733571Y-17602143D01*
X17705000Y-17602143D01*
X17685952Y-17611667D01*
X17676429Y-17621190D01*
X17885952Y-17735476D02*
X17866905Y-17725952D01*
X17857381Y-17716429D01*
X17847857Y-17697381D01*
X17847857Y-17640238D01*
X17857381Y-17621190D01*
X17866905Y-17611667D01*
X17885952Y-17602143D01*
X17914524Y-17602143D01*
X17933571Y-17611667D01*
X17943095Y-17621190D01*
X17952619Y-17640238D01*
X17952619Y-17697381D01*
X17943095Y-17716429D01*
X17933571Y-17725952D01*
X17914524Y-17735476D01*
X17885952Y-17735476D01*
X18066905Y-17735476D02*
X18047857Y-17725952D01*
X18038333Y-17706905D01*
X18038333Y-17535476D01*
X18219286Y-17725952D02*
X18200238Y-17735476D01*
X18162143Y-17735476D01*
X18143095Y-17725952D01*
X18133571Y-17706905D01*
X18133571Y-17630714D01*
X18143095Y-17611667D01*
X18162143Y-17602143D01*
X18200238Y-17602143D01*
X18219286Y-17611667D01*
X18228810Y-17630714D01*
X18228810Y-17649762D01*
X18133571Y-17668810D01*
X18305000Y-17725952D02*
X18324048Y-17735476D01*
X18362143Y-17735476D01*
X18381190Y-17725952D01*
X18390714Y-17706905D01*
X18390714Y-17697381D01*
X18381190Y-17678333D01*
X18362143Y-17668810D01*
X18333571Y-17668810D01*
X18314524Y-17659286D01*
X18305000Y-17640238D01*
X18305000Y-17630714D01*
X18314524Y-17611667D01*
X18333571Y-17602143D01*
X18362143Y-17602143D01*
X18381190Y-17611667D01*
X18457381Y-17811667D02*
X18466905Y-17802143D01*
X18485952Y-17773571D01*
X18495476Y-17754524D01*
X18505000Y-17725952D01*
X18514524Y-17678333D01*
X18514524Y-17640238D01*
X18505000Y-17592619D01*
X18495476Y-17564048D01*
X18485952Y-17545000D01*
X18466905Y-17516429D01*
X18457381Y-17506905D01*
D13*
X13495000Y-17909000D02*
G75*
G03*
X13495000Y-17909000I-40000J0D01*
G01*
D11*
X13790714Y-17799476D02*
X13809762Y-17799476D01*
X13828809Y-17809000D01*
X13838333Y-17818524D01*
X13847857Y-17837571D01*
X13857381Y-17875667D01*
X13857381Y-17923286D01*
X13847857Y-17961381D01*
X13838333Y-17980429D01*
X13828809Y-17989952D01*
X13809762Y-17999476D01*
X13790714Y-17999476D01*
X13771667Y-17989952D01*
X13762143Y-17980429D01*
X13752619Y-17961381D01*
X13743095Y-17923286D01*
X13743095Y-17875667D01*
X13752619Y-17837571D01*
X13762143Y-17818524D01*
X13771667Y-17809000D01*
X13790714Y-17799476D01*
X13943095Y-17980429D02*
X13952619Y-17989952D01*
X13943095Y-17999476D01*
X13933571Y-17989952D01*
X13943095Y-17980429D01*
X13943095Y-17999476D01*
X14066905Y-17885190D02*
X14047857Y-17875667D01*
X14038333Y-17866143D01*
X14028809Y-17847095D01*
X14028809Y-17837571D01*
X14038333Y-17818524D01*
X14047857Y-17809000D01*
X14066905Y-17799476D01*
X14105000Y-17799476D01*
X14124048Y-17809000D01*
X14133571Y-17818524D01*
X14143095Y-17837571D01*
X14143095Y-17847095D01*
X14133571Y-17866143D01*
X14124048Y-17875667D01*
X14105000Y-17885190D01*
X14066905Y-17885190D01*
X14047857Y-17894714D01*
X14038333Y-17904238D01*
X14028809Y-17923286D01*
X14028809Y-17961381D01*
X14038333Y-17980429D01*
X14047857Y-17989952D01*
X14066905Y-17999476D01*
X14105000Y-17999476D01*
X14124048Y-17989952D01*
X14133571Y-17980429D01*
X14143095Y-17961381D01*
X14143095Y-17923286D01*
X14133571Y-17904238D01*
X14124048Y-17894714D01*
X14105000Y-17885190D01*
X14266905Y-17799476D02*
X14285952Y-17799476D01*
X14305000Y-17809000D01*
X14314524Y-17818524D01*
X14324048Y-17837571D01*
X14333571Y-17875667D01*
X14333571Y-17923286D01*
X14324048Y-17961381D01*
X14314524Y-17980429D01*
X14305000Y-17989952D01*
X14285952Y-17999476D01*
X14266905Y-17999476D01*
X14247857Y-17989952D01*
X14238333Y-17980429D01*
X14228809Y-17961381D01*
X14219286Y-17923286D01*
X14219286Y-17875667D01*
X14228809Y-17837571D01*
X14238333Y-17818524D01*
X14247857Y-17809000D01*
X14266905Y-17799476D01*
X14457381Y-17799476D02*
X14476428Y-17799476D01*
X14495476Y-17809000D01*
X14505000Y-17818524D01*
X14514524Y-17837571D01*
X14524048Y-17875667D01*
X14524048Y-17923286D01*
X14514524Y-17961381D01*
X14505000Y-17980429D01*
X14495476Y-17989952D01*
X14476428Y-17999476D01*
X14457381Y-17999476D01*
X14438333Y-17989952D01*
X14428809Y-17980429D01*
X14419286Y-17961381D01*
X14409762Y-17923286D01*
X14409762Y-17875667D01*
X14419286Y-17837571D01*
X14428809Y-17818524D01*
X14438333Y-17809000D01*
X14457381Y-17799476D01*
X14609762Y-17999476D02*
X14609762Y-17866143D01*
X14609762Y-17885190D02*
X14619286Y-17875667D01*
X14638333Y-17866143D01*
X14666905Y-17866143D01*
X14685952Y-17875667D01*
X14695476Y-17894714D01*
X14695476Y-17999476D01*
X14695476Y-17894714D02*
X14705000Y-17875667D01*
X14724048Y-17866143D01*
X14752619Y-17866143D01*
X14771667Y-17875667D01*
X14781190Y-17894714D01*
X14781190Y-17999476D01*
X14876428Y-17999476D02*
X14876428Y-17866143D01*
X14876428Y-17885190D02*
X14885952Y-17875667D01*
X14905000Y-17866143D01*
X14933571Y-17866143D01*
X14952619Y-17875667D01*
X14962143Y-17894714D01*
X14962143Y-17999476D01*
X14962143Y-17894714D02*
X14971667Y-17875667D01*
X14990714Y-17866143D01*
X15019286Y-17866143D01*
X15038333Y-17875667D01*
X15047857Y-17894714D01*
X15047857Y-17999476D01*
X15438333Y-17789952D02*
X15266905Y-18047095D01*
X15695476Y-17799476D02*
X15714524Y-17799476D01*
X15733571Y-17809000D01*
X15743095Y-17818524D01*
X15752619Y-17837571D01*
X15762143Y-17875667D01*
X15762143Y-17923286D01*
X15752619Y-17961381D01*
X15743095Y-17980429D01*
X15733571Y-17989952D01*
X15714524Y-17999476D01*
X15695476Y-17999476D01*
X15676428Y-17989952D01*
X15666905Y-17980429D01*
X15657381Y-17961381D01*
X15647857Y-17923286D01*
X15647857Y-17875667D01*
X15657381Y-17837571D01*
X15666905Y-17818524D01*
X15676428Y-17809000D01*
X15695476Y-17799476D01*
X15847857Y-17980429D02*
X15857381Y-17989952D01*
X15847857Y-17999476D01*
X15838333Y-17989952D01*
X15847857Y-17980429D01*
X15847857Y-17999476D01*
X15981190Y-17799476D02*
X16000238Y-17799476D01*
X16019286Y-17809000D01*
X16028809Y-17818524D01*
X16038333Y-17837571D01*
X16047857Y-17875667D01*
X16047857Y-17923286D01*
X16038333Y-17961381D01*
X16028809Y-17980429D01*
X16019286Y-17989952D01*
X16000238Y-17999476D01*
X15981190Y-17999476D01*
X15962143Y-17989952D01*
X15952619Y-17980429D01*
X15943095Y-17961381D01*
X15933571Y-17923286D01*
X15933571Y-17875667D01*
X15943095Y-17837571D01*
X15952619Y-17818524D01*
X15962143Y-17809000D01*
X15981190Y-17799476D01*
X16114524Y-17799476D02*
X16238333Y-17799476D01*
X16171667Y-17875667D01*
X16200238Y-17875667D01*
X16219286Y-17885190D01*
X16228809Y-17894714D01*
X16238333Y-17913762D01*
X16238333Y-17961381D01*
X16228809Y-17980429D01*
X16219286Y-17989952D01*
X16200238Y-17999476D01*
X16143095Y-17999476D01*
X16124048Y-17989952D01*
X16114524Y-17980429D01*
X16428809Y-17999476D02*
X16314524Y-17999476D01*
X16371667Y-17999476D02*
X16371667Y-17799476D01*
X16352619Y-17828048D01*
X16333571Y-17847095D01*
X16314524Y-17856619D01*
X16609762Y-17799476D02*
X16514524Y-17799476D01*
X16505000Y-17894714D01*
X16514524Y-17885190D01*
X16533571Y-17875667D01*
X16581190Y-17875667D01*
X16600238Y-17885190D01*
X16609762Y-17894714D01*
X16619286Y-17913762D01*
X16619286Y-17961381D01*
X16609762Y-17980429D01*
X16600238Y-17989952D01*
X16581190Y-17999476D01*
X16533571Y-17999476D01*
X16514524Y-17989952D01*
X16505000Y-17980429D01*
X16695476Y-17799476D02*
X16695476Y-17837571D01*
X16771667Y-17799476D02*
X16771667Y-17837571D01*
X17066905Y-18075667D02*
X17057381Y-18066143D01*
X17038333Y-18037571D01*
X17028810Y-18018524D01*
X17019286Y-17989952D01*
X17009762Y-17942333D01*
X17009762Y-17904238D01*
X17019286Y-17856619D01*
X17028810Y-17828048D01*
X17038333Y-17809000D01*
X17057381Y-17780429D01*
X17066905Y-17770905D01*
X17247857Y-17999476D02*
X17133571Y-17999476D01*
X17190714Y-17999476D02*
X17190714Y-17799476D01*
X17171667Y-17828048D01*
X17152619Y-17847095D01*
X17133571Y-17856619D01*
X17438333Y-17999476D02*
X17324048Y-17999476D01*
X17381190Y-17999476D02*
X17381190Y-17799476D01*
X17362143Y-17828048D01*
X17343095Y-17847095D01*
X17324048Y-17856619D01*
X17676429Y-17999476D02*
X17676429Y-17799476D01*
X17762143Y-17999476D02*
X17762143Y-17894714D01*
X17752619Y-17875667D01*
X17733571Y-17866143D01*
X17705000Y-17866143D01*
X17685952Y-17875667D01*
X17676429Y-17885190D01*
X17885952Y-17999476D02*
X17866905Y-17989952D01*
X17857381Y-17980429D01*
X17847857Y-17961381D01*
X17847857Y-17904238D01*
X17857381Y-17885190D01*
X17866905Y-17875667D01*
X17885952Y-17866143D01*
X17914524Y-17866143D01*
X17933571Y-17875667D01*
X17943095Y-17885190D01*
X17952619Y-17904238D01*
X17952619Y-17961381D01*
X17943095Y-17980429D01*
X17933571Y-17989952D01*
X17914524Y-17999476D01*
X17885952Y-17999476D01*
X18066905Y-17999476D02*
X18047857Y-17989952D01*
X18038333Y-17970905D01*
X18038333Y-17799476D01*
X18219286Y-17989952D02*
X18200238Y-17999476D01*
X18162143Y-17999476D01*
X18143095Y-17989952D01*
X18133571Y-17970905D01*
X18133571Y-17894714D01*
X18143095Y-17875667D01*
X18162143Y-17866143D01*
X18200238Y-17866143D01*
X18219286Y-17875667D01*
X18228810Y-17894714D01*
X18228810Y-17913762D01*
X18133571Y-17932810D01*
X18305000Y-17989952D02*
X18324048Y-17999476D01*
X18362143Y-17999476D01*
X18381190Y-17989952D01*
X18390714Y-17970905D01*
X18390714Y-17961381D01*
X18381190Y-17942333D01*
X18362143Y-17932810D01*
X18333571Y-17932810D01*
X18314524Y-17923286D01*
X18305000Y-17904238D01*
X18305000Y-17894714D01*
X18314524Y-17875667D01*
X18333571Y-17866143D01*
X18362143Y-17866143D01*
X18381190Y-17875667D01*
X18457381Y-18075667D02*
X18466905Y-18066143D01*
X18485952Y-18037571D01*
X18495476Y-18018524D01*
X18505000Y-17989952D01*
X18514524Y-17942333D01*
X18514524Y-17904238D01*
X18505000Y-17856619D01*
X18495476Y-17828048D01*
X18485952Y-17809000D01*
X18466905Y-17780429D01*
X18457381Y-17770905D01*
D14*
X13450000Y-18128000D02*
X13450000Y-18218000D01*
X13405000Y-18173000D02*
X13495000Y-18173000D01*
D11*
X13790714Y-18063476D02*
X13809762Y-18063476D01*
X13828809Y-18073000D01*
X13838333Y-18082524D01*
X13847857Y-18101571D01*
X13857381Y-18139667D01*
X13857381Y-18187286D01*
X13847857Y-18225381D01*
X13838333Y-18244429D01*
X13828809Y-18253952D01*
X13809762Y-18263476D01*
X13790714Y-18263476D01*
X13771667Y-18253952D01*
X13762143Y-18244429D01*
X13752619Y-18225381D01*
X13743095Y-18187286D01*
X13743095Y-18139667D01*
X13752619Y-18101571D01*
X13762143Y-18082524D01*
X13771667Y-18073000D01*
X13790714Y-18063476D01*
X13943095Y-18244429D02*
X13952619Y-18253952D01*
X13943095Y-18263476D01*
X13933571Y-18253952D01*
X13943095Y-18244429D01*
X13943095Y-18263476D01*
X14047857Y-18263476D02*
X14085952Y-18263476D01*
X14105000Y-18253952D01*
X14114524Y-18244429D01*
X14133571Y-18215857D01*
X14143095Y-18177762D01*
X14143095Y-18101571D01*
X14133571Y-18082524D01*
X14124048Y-18073000D01*
X14105000Y-18063476D01*
X14066905Y-18063476D01*
X14047857Y-18073000D01*
X14038333Y-18082524D01*
X14028809Y-18101571D01*
X14028809Y-18149190D01*
X14038333Y-18168238D01*
X14047857Y-18177762D01*
X14066905Y-18187286D01*
X14105000Y-18187286D01*
X14124048Y-18177762D01*
X14133571Y-18168238D01*
X14143095Y-18149190D01*
X14266905Y-18063476D02*
X14285952Y-18063476D01*
X14305000Y-18073000D01*
X14314524Y-18082524D01*
X14324048Y-18101571D01*
X14333571Y-18139667D01*
X14333571Y-18187286D01*
X14324048Y-18225381D01*
X14314524Y-18244429D01*
X14305000Y-18253952D01*
X14285952Y-18263476D01*
X14266905Y-18263476D01*
X14247857Y-18253952D01*
X14238333Y-18244429D01*
X14228809Y-18225381D01*
X14219286Y-18187286D01*
X14219286Y-18139667D01*
X14228809Y-18101571D01*
X14238333Y-18082524D01*
X14247857Y-18073000D01*
X14266905Y-18063476D01*
X14457381Y-18063476D02*
X14476428Y-18063476D01*
X14495476Y-18073000D01*
X14505000Y-18082524D01*
X14514524Y-18101571D01*
X14524048Y-18139667D01*
X14524048Y-18187286D01*
X14514524Y-18225381D01*
X14505000Y-18244429D01*
X14495476Y-18253952D01*
X14476428Y-18263476D01*
X14457381Y-18263476D01*
X14438333Y-18253952D01*
X14428809Y-18244429D01*
X14419286Y-18225381D01*
X14409762Y-18187286D01*
X14409762Y-18139667D01*
X14419286Y-18101571D01*
X14428809Y-18082524D01*
X14438333Y-18073000D01*
X14457381Y-18063476D01*
X14609762Y-18263476D02*
X14609762Y-18130143D01*
X14609762Y-18149190D02*
X14619286Y-18139667D01*
X14638333Y-18130143D01*
X14666905Y-18130143D01*
X14685952Y-18139667D01*
X14695476Y-18158714D01*
X14695476Y-18263476D01*
X14695476Y-18158714D02*
X14705000Y-18139667D01*
X14724048Y-18130143D01*
X14752619Y-18130143D01*
X14771667Y-18139667D01*
X14781190Y-18158714D01*
X14781190Y-18263476D01*
X14876428Y-18263476D02*
X14876428Y-18130143D01*
X14876428Y-18149190D02*
X14885952Y-18139667D01*
X14905000Y-18130143D01*
X14933571Y-18130143D01*
X14952619Y-18139667D01*
X14962143Y-18158714D01*
X14962143Y-18263476D01*
X14962143Y-18158714D02*
X14971667Y-18139667D01*
X14990714Y-18130143D01*
X15019286Y-18130143D01*
X15038333Y-18139667D01*
X15047857Y-18158714D01*
X15047857Y-18263476D01*
X15438333Y-18053952D02*
X15266905Y-18311095D01*
X15695476Y-18063476D02*
X15714524Y-18063476D01*
X15733571Y-18073000D01*
X15743095Y-18082524D01*
X15752619Y-18101571D01*
X15762143Y-18139667D01*
X15762143Y-18187286D01*
X15752619Y-18225381D01*
X15743095Y-18244429D01*
X15733571Y-18253952D01*
X15714524Y-18263476D01*
X15695476Y-18263476D01*
X15676428Y-18253952D01*
X15666905Y-18244429D01*
X15657381Y-18225381D01*
X15647857Y-18187286D01*
X15647857Y-18139667D01*
X15657381Y-18101571D01*
X15666905Y-18082524D01*
X15676428Y-18073000D01*
X15695476Y-18063476D01*
X15847857Y-18244429D02*
X15857381Y-18253952D01*
X15847857Y-18263476D01*
X15838333Y-18253952D01*
X15847857Y-18244429D01*
X15847857Y-18263476D01*
X15981190Y-18063476D02*
X16000238Y-18063476D01*
X16019286Y-18073000D01*
X16028809Y-18082524D01*
X16038333Y-18101571D01*
X16047857Y-18139667D01*
X16047857Y-18187286D01*
X16038333Y-18225381D01*
X16028809Y-18244429D01*
X16019286Y-18253952D01*
X16000238Y-18263476D01*
X15981190Y-18263476D01*
X15962143Y-18253952D01*
X15952619Y-18244429D01*
X15943095Y-18225381D01*
X15933571Y-18187286D01*
X15933571Y-18139667D01*
X15943095Y-18101571D01*
X15952619Y-18082524D01*
X15962143Y-18073000D01*
X15981190Y-18063476D01*
X16114524Y-18063476D02*
X16238333Y-18063476D01*
X16171667Y-18139667D01*
X16200238Y-18139667D01*
X16219286Y-18149190D01*
X16228809Y-18158714D01*
X16238333Y-18177762D01*
X16238333Y-18225381D01*
X16228809Y-18244429D01*
X16219286Y-18253952D01*
X16200238Y-18263476D01*
X16143095Y-18263476D01*
X16124048Y-18253952D01*
X16114524Y-18244429D01*
X16419286Y-18063476D02*
X16324048Y-18063476D01*
X16314524Y-18158714D01*
X16324048Y-18149190D01*
X16343095Y-18139667D01*
X16390714Y-18139667D01*
X16409762Y-18149190D01*
X16419286Y-18158714D01*
X16428809Y-18177762D01*
X16428809Y-18225381D01*
X16419286Y-18244429D01*
X16409762Y-18253952D01*
X16390714Y-18263476D01*
X16343095Y-18263476D01*
X16324048Y-18253952D01*
X16314524Y-18244429D01*
X16600238Y-18130143D02*
X16600238Y-18263476D01*
X16552619Y-18053952D02*
X16505000Y-18196810D01*
X16628809Y-18196810D01*
X16695476Y-18063476D02*
X16695476Y-18101571D01*
X16771667Y-18063476D02*
X16771667Y-18101571D01*
X17066905Y-18339667D02*
X17057381Y-18330143D01*
X17038333Y-18301571D01*
X17028810Y-18282524D01*
X17019286Y-18253952D01*
X17009762Y-18206333D01*
X17009762Y-18168238D01*
X17019286Y-18120619D01*
X17028810Y-18092048D01*
X17038333Y-18073000D01*
X17057381Y-18044429D01*
X17066905Y-18034905D01*
X17228810Y-18063476D02*
X17190714Y-18063476D01*
X17171667Y-18073000D01*
X17162143Y-18082524D01*
X17143095Y-18111095D01*
X17133571Y-18149190D01*
X17133571Y-18225381D01*
X17143095Y-18244429D01*
X17152619Y-18253952D01*
X17171667Y-18263476D01*
X17209762Y-18263476D01*
X17228810Y-18253952D01*
X17238333Y-18244429D01*
X17247857Y-18225381D01*
X17247857Y-18177762D01*
X17238333Y-18158714D01*
X17228810Y-18149190D01*
X17209762Y-18139667D01*
X17171667Y-18139667D01*
X17152619Y-18149190D01*
X17143095Y-18158714D01*
X17133571Y-18177762D01*
X17485952Y-18263476D02*
X17485952Y-18063476D01*
X17571667Y-18263476D02*
X17571667Y-18158714D01*
X17562143Y-18139667D01*
X17543095Y-18130143D01*
X17514524Y-18130143D01*
X17495476Y-18139667D01*
X17485952Y-18149190D01*
X17695476Y-18263476D02*
X17676429Y-18253952D01*
X17666905Y-18244429D01*
X17657381Y-18225381D01*
X17657381Y-18168238D01*
X17666905Y-18149190D01*
X17676429Y-18139667D01*
X17695476Y-18130143D01*
X17724048Y-18130143D01*
X17743095Y-18139667D01*
X17752619Y-18149190D01*
X17762143Y-18168238D01*
X17762143Y-18225381D01*
X17752619Y-18244429D01*
X17743095Y-18253952D01*
X17724048Y-18263476D01*
X17695476Y-18263476D01*
X17876429Y-18263476D02*
X17857381Y-18253952D01*
X17847857Y-18234905D01*
X17847857Y-18063476D01*
X18028810Y-18253952D02*
X18009762Y-18263476D01*
X17971667Y-18263476D01*
X17952619Y-18253952D01*
X17943095Y-18234905D01*
X17943095Y-18158714D01*
X17952619Y-18139667D01*
X17971667Y-18130143D01*
X18009762Y-18130143D01*
X18028810Y-18139667D01*
X18038333Y-18158714D01*
X18038333Y-18177762D01*
X17943095Y-18196810D01*
X18114524Y-18253952D02*
X18133571Y-18263476D01*
X18171667Y-18263476D01*
X18190714Y-18253952D01*
X18200238Y-18234905D01*
X18200238Y-18225381D01*
X18190714Y-18206333D01*
X18171667Y-18196810D01*
X18143095Y-18196810D01*
X18124048Y-18187286D01*
X18114524Y-18168238D01*
X18114524Y-18158714D01*
X18124048Y-18139667D01*
X18143095Y-18130143D01*
X18171667Y-18130143D01*
X18190714Y-18139667D01*
X18266905Y-18339667D02*
X18276429Y-18330143D01*
X18295476Y-18301571D01*
X18305000Y-18282524D01*
X18314524Y-18253952D01*
X18324048Y-18206333D01*
X18324048Y-18168238D01*
X18314524Y-18120619D01*
X18305000Y-18092048D01*
X18295476Y-18073000D01*
X18276429Y-18044429D01*
X18266905Y-18034905D01*
D10*
X13480356Y-18472356D02*
X13480356Y-18401644D01*
X13409644Y-18401644D01*
X13409644Y-18472356D01*
X13480356Y-18472356D01*
D11*
X13857381Y-18527476D02*
X13743095Y-18527476D01*
X13800238Y-18527476D02*
X13800238Y-18327476D01*
X13781190Y-18356048D01*
X13762143Y-18375095D01*
X13743095Y-18384619D01*
X13943095Y-18508429D02*
X13952619Y-18517952D01*
X13943095Y-18527476D01*
X13933571Y-18517952D01*
X13943095Y-18508429D01*
X13943095Y-18527476D01*
X14076428Y-18327476D02*
X14095476Y-18327476D01*
X14114524Y-18337000D01*
X14124048Y-18346524D01*
X14133571Y-18365571D01*
X14143095Y-18403667D01*
X14143095Y-18451286D01*
X14133571Y-18489381D01*
X14124048Y-18508429D01*
X14114524Y-18517952D01*
X14095476Y-18527476D01*
X14076428Y-18527476D01*
X14057381Y-18517952D01*
X14047857Y-18508429D01*
X14038333Y-18489381D01*
X14028809Y-18451286D01*
X14028809Y-18403667D01*
X14038333Y-18365571D01*
X14047857Y-18346524D01*
X14057381Y-18337000D01*
X14076428Y-18327476D01*
X14266905Y-18327476D02*
X14285952Y-18327476D01*
X14305000Y-18337000D01*
X14314524Y-18346524D01*
X14324048Y-18365571D01*
X14333571Y-18403667D01*
X14333571Y-18451286D01*
X14324048Y-18489381D01*
X14314524Y-18508429D01*
X14305000Y-18517952D01*
X14285952Y-18527476D01*
X14266905Y-18527476D01*
X14247857Y-18517952D01*
X14238333Y-18508429D01*
X14228809Y-18489381D01*
X14219286Y-18451286D01*
X14219286Y-18403667D01*
X14228809Y-18365571D01*
X14238333Y-18346524D01*
X14247857Y-18337000D01*
X14266905Y-18327476D01*
X14457381Y-18327476D02*
X14476428Y-18327476D01*
X14495476Y-18337000D01*
X14505000Y-18346524D01*
X14514524Y-18365571D01*
X14524048Y-18403667D01*
X14524048Y-18451286D01*
X14514524Y-18489381D01*
X14505000Y-18508429D01*
X14495476Y-18517952D01*
X14476428Y-18527476D01*
X14457381Y-18527476D01*
X14438333Y-18517952D01*
X14428809Y-18508429D01*
X14419286Y-18489381D01*
X14409762Y-18451286D01*
X14409762Y-18403667D01*
X14419286Y-18365571D01*
X14428809Y-18346524D01*
X14438333Y-18337000D01*
X14457381Y-18327476D01*
X14609762Y-18527476D02*
X14609762Y-18394143D01*
X14609762Y-18413190D02*
X14619286Y-18403667D01*
X14638333Y-18394143D01*
X14666905Y-18394143D01*
X14685952Y-18403667D01*
X14695476Y-18422714D01*
X14695476Y-18527476D01*
X14695476Y-18422714D02*
X14705000Y-18403667D01*
X14724048Y-18394143D01*
X14752619Y-18394143D01*
X14771667Y-18403667D01*
X14781190Y-18422714D01*
X14781190Y-18527476D01*
X14876428Y-18527476D02*
X14876428Y-18394143D01*
X14876428Y-18413190D02*
X14885952Y-18403667D01*
X14905000Y-18394143D01*
X14933571Y-18394143D01*
X14952619Y-18403667D01*
X14962143Y-18422714D01*
X14962143Y-18527476D01*
X14962143Y-18422714D02*
X14971667Y-18403667D01*
X14990714Y-18394143D01*
X15019286Y-18394143D01*
X15038333Y-18403667D01*
X15047857Y-18422714D01*
X15047857Y-18527476D01*
X15438333Y-18317952D02*
X15266905Y-18575095D01*
X15695476Y-18327476D02*
X15714524Y-18327476D01*
X15733571Y-18337000D01*
X15743095Y-18346524D01*
X15752619Y-18365571D01*
X15762143Y-18403667D01*
X15762143Y-18451286D01*
X15752619Y-18489381D01*
X15743095Y-18508429D01*
X15733571Y-18517952D01*
X15714524Y-18527476D01*
X15695476Y-18527476D01*
X15676428Y-18517952D01*
X15666905Y-18508429D01*
X15657381Y-18489381D01*
X15647857Y-18451286D01*
X15647857Y-18403667D01*
X15657381Y-18365571D01*
X15666905Y-18346524D01*
X15676428Y-18337000D01*
X15695476Y-18327476D01*
X15847857Y-18508429D02*
X15857381Y-18517952D01*
X15847857Y-18527476D01*
X15838333Y-18517952D01*
X15847857Y-18508429D01*
X15847857Y-18527476D01*
X15981190Y-18327476D02*
X16000238Y-18327476D01*
X16019286Y-18337000D01*
X16028809Y-18346524D01*
X16038333Y-18365571D01*
X16047857Y-18403667D01*
X16047857Y-18451286D01*
X16038333Y-18489381D01*
X16028809Y-18508429D01*
X16019286Y-18517952D01*
X16000238Y-18527476D01*
X15981190Y-18527476D01*
X15962143Y-18517952D01*
X15952619Y-18508429D01*
X15943095Y-18489381D01*
X15933571Y-18451286D01*
X15933571Y-18403667D01*
X15943095Y-18365571D01*
X15952619Y-18346524D01*
X15962143Y-18337000D01*
X15981190Y-18327476D01*
X16114524Y-18327476D02*
X16238333Y-18327476D01*
X16171667Y-18403667D01*
X16200238Y-18403667D01*
X16219286Y-18413190D01*
X16228809Y-18422714D01*
X16238333Y-18441762D01*
X16238333Y-18489381D01*
X16228809Y-18508429D01*
X16219286Y-18517952D01*
X16200238Y-18527476D01*
X16143095Y-18527476D01*
X16124048Y-18517952D01*
X16114524Y-18508429D01*
X16333571Y-18527476D02*
X16371667Y-18527476D01*
X16390714Y-18517952D01*
X16400238Y-18508429D01*
X16419286Y-18479857D01*
X16428809Y-18441762D01*
X16428809Y-18365571D01*
X16419286Y-18346524D01*
X16409762Y-18337000D01*
X16390714Y-18327476D01*
X16352619Y-18327476D01*
X16333571Y-18337000D01*
X16324048Y-18346524D01*
X16314524Y-18365571D01*
X16314524Y-18413190D01*
X16324048Y-18432238D01*
X16333571Y-18441762D01*
X16352619Y-18451286D01*
X16390714Y-18451286D01*
X16409762Y-18441762D01*
X16419286Y-18432238D01*
X16428809Y-18413190D01*
X16600238Y-18394143D02*
X16600238Y-18527476D01*
X16552619Y-18317952D02*
X16505000Y-18460810D01*
X16628809Y-18460810D01*
X16695476Y-18327476D02*
X16695476Y-18365571D01*
X16771667Y-18327476D02*
X16771667Y-18365571D01*
X17066905Y-18603667D02*
X17057381Y-18594143D01*
X17038333Y-18565571D01*
X17028810Y-18546524D01*
X17019286Y-18517952D01*
X17009762Y-18470333D01*
X17009762Y-18432238D01*
X17019286Y-18384619D01*
X17028810Y-18356048D01*
X17038333Y-18337000D01*
X17057381Y-18308429D01*
X17066905Y-18298905D01*
X17247857Y-18527476D02*
X17133571Y-18527476D01*
X17190714Y-18527476D02*
X17190714Y-18327476D01*
X17171667Y-18356048D01*
X17152619Y-18375095D01*
X17133571Y-18384619D01*
X17419286Y-18327476D02*
X17381190Y-18327476D01*
X17362143Y-18337000D01*
X17352619Y-18346524D01*
X17333571Y-18375095D01*
X17324048Y-18413190D01*
X17324048Y-18489381D01*
X17333571Y-18508429D01*
X17343095Y-18517952D01*
X17362143Y-18527476D01*
X17400238Y-18527476D01*
X17419286Y-18517952D01*
X17428810Y-18508429D01*
X17438333Y-18489381D01*
X17438333Y-18441762D01*
X17428810Y-18422714D01*
X17419286Y-18413190D01*
X17400238Y-18403667D01*
X17362143Y-18403667D01*
X17343095Y-18413190D01*
X17333571Y-18422714D01*
X17324048Y-18441762D01*
X17676429Y-18527476D02*
X17676429Y-18327476D01*
X17762143Y-18527476D02*
X17762143Y-18422714D01*
X17752619Y-18403667D01*
X17733571Y-18394143D01*
X17705000Y-18394143D01*
X17685952Y-18403667D01*
X17676429Y-18413190D01*
X17885952Y-18527476D02*
X17866905Y-18517952D01*
X17857381Y-18508429D01*
X17847857Y-18489381D01*
X17847857Y-18432238D01*
X17857381Y-18413190D01*
X17866905Y-18403667D01*
X17885952Y-18394143D01*
X17914524Y-18394143D01*
X17933571Y-18403667D01*
X17943095Y-18413190D01*
X17952619Y-18432238D01*
X17952619Y-18489381D01*
X17943095Y-18508429D01*
X17933571Y-18517952D01*
X17914524Y-18527476D01*
X17885952Y-18527476D01*
X18066905Y-18527476D02*
X18047857Y-18517952D01*
X18038333Y-18498905D01*
X18038333Y-18327476D01*
X18219286Y-18517952D02*
X18200238Y-18527476D01*
X18162143Y-18527476D01*
X18143095Y-18517952D01*
X18133571Y-18498905D01*
X18133571Y-18422714D01*
X18143095Y-18403667D01*
X18162143Y-18394143D01*
X18200238Y-18394143D01*
X18219286Y-18403667D01*
X18228810Y-18422714D01*
X18228810Y-18441762D01*
X18133571Y-18460810D01*
X18305000Y-18517952D02*
X18324048Y-18527476D01*
X18362143Y-18527476D01*
X18381190Y-18517952D01*
X18390714Y-18498905D01*
X18390714Y-18489381D01*
X18381190Y-18470333D01*
X18362143Y-18460810D01*
X18333571Y-18460810D01*
X18314524Y-18451286D01*
X18305000Y-18432238D01*
X18305000Y-18422714D01*
X18314524Y-18403667D01*
X18333571Y-18394143D01*
X18362143Y-18394143D01*
X18381190Y-18403667D01*
X18457381Y-18603667D02*
X18466905Y-18594143D01*
X18485952Y-18565571D01*
X18495476Y-18546524D01*
X18505000Y-18517952D01*
X18514524Y-18470333D01*
X18514524Y-18432238D01*
X18505000Y-18384619D01*
X18495476Y-18356048D01*
X18485952Y-18337000D01*
X18466905Y-18308429D01*
X18457381Y-18298905D01*
D15*
X13434000Y-18762000D02*
X13495000Y-18701000D01*
X13434000Y-18640000D01*
X13373000Y-18701000D01*
X13434000Y-18762000D01*
D11*
X13857381Y-18791476D02*
X13743095Y-18791476D01*
X13800238Y-18791476D02*
X13800238Y-18591476D01*
X13781190Y-18620048D01*
X13762143Y-18639095D01*
X13743095Y-18648619D01*
X13943095Y-18772429D02*
X13952619Y-18781952D01*
X13943095Y-18791476D01*
X13933571Y-18781952D01*
X13943095Y-18772429D01*
X13943095Y-18791476D01*
X14028809Y-18610524D02*
X14038333Y-18601000D01*
X14057381Y-18591476D01*
X14105000Y-18591476D01*
X14124048Y-18601000D01*
X14133571Y-18610524D01*
X14143095Y-18629571D01*
X14143095Y-18648619D01*
X14133571Y-18677190D01*
X14019286Y-18791476D01*
X14143095Y-18791476D01*
X14219286Y-18610524D02*
X14228809Y-18601000D01*
X14247857Y-18591476D01*
X14295476Y-18591476D01*
X14314524Y-18601000D01*
X14324048Y-18610524D01*
X14333571Y-18629571D01*
X14333571Y-18648619D01*
X14324048Y-18677190D01*
X14209762Y-18791476D01*
X14333571Y-18791476D01*
X14457381Y-18591476D02*
X14476428Y-18591476D01*
X14495476Y-18601000D01*
X14505000Y-18610524D01*
X14514524Y-18629571D01*
X14524048Y-18667667D01*
X14524048Y-18715286D01*
X14514524Y-18753381D01*
X14505000Y-18772429D01*
X14495476Y-18781952D01*
X14476428Y-18791476D01*
X14457381Y-18791476D01*
X14438333Y-18781952D01*
X14428809Y-18772429D01*
X14419286Y-18753381D01*
X14409762Y-18715286D01*
X14409762Y-18667667D01*
X14419286Y-18629571D01*
X14428809Y-18610524D01*
X14438333Y-18601000D01*
X14457381Y-18591476D01*
X14609762Y-18791476D02*
X14609762Y-18658143D01*
X14609762Y-18677190D02*
X14619286Y-18667667D01*
X14638333Y-18658143D01*
X14666905Y-18658143D01*
X14685952Y-18667667D01*
X14695476Y-18686714D01*
X14695476Y-18791476D01*
X14695476Y-18686714D02*
X14705000Y-18667667D01*
X14724048Y-18658143D01*
X14752619Y-18658143D01*
X14771667Y-18667667D01*
X14781190Y-18686714D01*
X14781190Y-18791476D01*
X14876428Y-18791476D02*
X14876428Y-18658143D01*
X14876428Y-18677190D02*
X14885952Y-18667667D01*
X14905000Y-18658143D01*
X14933571Y-18658143D01*
X14952619Y-18667667D01*
X14962143Y-18686714D01*
X14962143Y-18791476D01*
X14962143Y-18686714D02*
X14971667Y-18667667D01*
X14990714Y-18658143D01*
X15019286Y-18658143D01*
X15038333Y-18667667D01*
X15047857Y-18686714D01*
X15047857Y-18791476D01*
X15438333Y-18581952D02*
X15266905Y-18839095D01*
X15695476Y-18591476D02*
X15714524Y-18591476D01*
X15733571Y-18601000D01*
X15743095Y-18610524D01*
X15752619Y-18629571D01*
X15762143Y-18667667D01*
X15762143Y-18715286D01*
X15752619Y-18753381D01*
X15743095Y-18772429D01*
X15733571Y-18781952D01*
X15714524Y-18791476D01*
X15695476Y-18791476D01*
X15676428Y-18781952D01*
X15666905Y-18772429D01*
X15657381Y-18753381D01*
X15647857Y-18715286D01*
X15647857Y-18667667D01*
X15657381Y-18629571D01*
X15666905Y-18610524D01*
X15676428Y-18601000D01*
X15695476Y-18591476D01*
X15847857Y-18772429D02*
X15857381Y-18781952D01*
X15847857Y-18791476D01*
X15838333Y-18781952D01*
X15847857Y-18772429D01*
X15847857Y-18791476D01*
X15981190Y-18591476D02*
X16000238Y-18591476D01*
X16019286Y-18601000D01*
X16028809Y-18610524D01*
X16038333Y-18629571D01*
X16047857Y-18667667D01*
X16047857Y-18715286D01*
X16038333Y-18753381D01*
X16028809Y-18772429D01*
X16019286Y-18781952D01*
X16000238Y-18791476D01*
X15981190Y-18791476D01*
X15962143Y-18781952D01*
X15952619Y-18772429D01*
X15943095Y-18753381D01*
X15933571Y-18715286D01*
X15933571Y-18667667D01*
X15943095Y-18629571D01*
X15952619Y-18610524D01*
X15962143Y-18601000D01*
X15981190Y-18591476D01*
X16219286Y-18658143D02*
X16219286Y-18791476D01*
X16171667Y-18581952D02*
X16124048Y-18724810D01*
X16247857Y-18724810D01*
X16352619Y-18677190D02*
X16333571Y-18667667D01*
X16324048Y-18658143D01*
X16314524Y-18639095D01*
X16314524Y-18629571D01*
X16324048Y-18610524D01*
X16333571Y-18601000D01*
X16352619Y-18591476D01*
X16390714Y-18591476D01*
X16409762Y-18601000D01*
X16419286Y-18610524D01*
X16428809Y-18629571D01*
X16428809Y-18639095D01*
X16419286Y-18658143D01*
X16409762Y-18667667D01*
X16390714Y-18677190D01*
X16352619Y-18677190D01*
X16333571Y-18686714D01*
X16324048Y-18696238D01*
X16314524Y-18715286D01*
X16314524Y-18753381D01*
X16324048Y-18772429D01*
X16333571Y-18781952D01*
X16352619Y-18791476D01*
X16390714Y-18791476D01*
X16409762Y-18781952D01*
X16419286Y-18772429D01*
X16428809Y-18753381D01*
X16428809Y-18715286D01*
X16419286Y-18696238D01*
X16409762Y-18686714D01*
X16390714Y-18677190D01*
X16552619Y-18591476D02*
X16571667Y-18591476D01*
X16590714Y-18601000D01*
X16600238Y-18610524D01*
X16609762Y-18629571D01*
X16619286Y-18667667D01*
X16619286Y-18715286D01*
X16609762Y-18753381D01*
X16600238Y-18772429D01*
X16590714Y-18781952D01*
X16571667Y-18791476D01*
X16552619Y-18791476D01*
X16533571Y-18781952D01*
X16524048Y-18772429D01*
X16514524Y-18753381D01*
X16505000Y-18715286D01*
X16505000Y-18667667D01*
X16514524Y-18629571D01*
X16524048Y-18610524D01*
X16533571Y-18601000D01*
X16552619Y-18591476D01*
X16695476Y-18591476D02*
X16695476Y-18629571D01*
X16771667Y-18591476D02*
X16771667Y-18629571D01*
X17066905Y-18867667D02*
X17057381Y-18858143D01*
X17038333Y-18829571D01*
X17028810Y-18810524D01*
X17019286Y-18781952D01*
X17009762Y-18734333D01*
X17009762Y-18696238D01*
X17019286Y-18648619D01*
X17028810Y-18620048D01*
X17038333Y-18601000D01*
X17057381Y-18572429D01*
X17066905Y-18562905D01*
X17124048Y-18591476D02*
X17257381Y-18591476D01*
X17171667Y-18791476D01*
X17485952Y-18791476D02*
X17485952Y-18591476D01*
X17571667Y-18791476D02*
X17571667Y-18686714D01*
X17562143Y-18667667D01*
X17543095Y-18658143D01*
X17514524Y-18658143D01*
X17495476Y-18667667D01*
X17485952Y-18677190D01*
X17695476Y-18791476D02*
X17676429Y-18781952D01*
X17666905Y-18772429D01*
X17657381Y-18753381D01*
X17657381Y-18696238D01*
X17666905Y-18677190D01*
X17676429Y-18667667D01*
X17695476Y-18658143D01*
X17724048Y-18658143D01*
X17743095Y-18667667D01*
X17752619Y-18677190D01*
X17762143Y-18696238D01*
X17762143Y-18753381D01*
X17752619Y-18772429D01*
X17743095Y-18781952D01*
X17724048Y-18791476D01*
X17695476Y-18791476D01*
X17876429Y-18791476D02*
X17857381Y-18781952D01*
X17847857Y-18762905D01*
X17847857Y-18591476D01*
X18028810Y-18781952D02*
X18009762Y-18791476D01*
X17971667Y-18791476D01*
X17952619Y-18781952D01*
X17943095Y-18762905D01*
X17943095Y-18686714D01*
X17952619Y-18667667D01*
X17971667Y-18658143D01*
X18009762Y-18658143D01*
X18028810Y-18667667D01*
X18038333Y-18686714D01*
X18038333Y-18705762D01*
X17943095Y-18724810D01*
X18114524Y-18781952D02*
X18133571Y-18791476D01*
X18171667Y-18791476D01*
X18190714Y-18781952D01*
X18200238Y-18762905D01*
X18200238Y-18753381D01*
X18190714Y-18734333D01*
X18171667Y-18724810D01*
X18143095Y-18724810D01*
X18124048Y-18715286D01*
X18114524Y-18696238D01*
X18114524Y-18686714D01*
X18124048Y-18667667D01*
X18143095Y-18658143D01*
X18171667Y-18658143D01*
X18190714Y-18667667D01*
X18266905Y-18867667D02*
X18276429Y-18858143D01*
X18295476Y-18829571D01*
X18305000Y-18810524D01*
X18314524Y-18781952D01*
X18324048Y-18734333D01*
X18324048Y-18696238D01*
X18314524Y-18648619D01*
X18305000Y-18620048D01*
X18295476Y-18601000D01*
X18276429Y-18572429D01*
X18266905Y-18562905D01*
D16*
X13353000Y-18894000D02*
X13495000Y-19036000D01*
X13495000Y-18894000D02*
X13353000Y-19036000D01*
X13495000Y-18965000D02*
G75*
G03*
X13495000Y-18965000I-71000J0D01*
G01*
D11*
X13857381Y-19055476D02*
X13743095Y-19055476D01*
X13800238Y-19055476D02*
X13800238Y-18855476D01*
X13781190Y-18884048D01*
X13762143Y-18903095D01*
X13743095Y-18912619D01*
X13943095Y-19036429D02*
X13952619Y-19045952D01*
X13943095Y-19055476D01*
X13933571Y-19045952D01*
X13943095Y-19036429D01*
X13943095Y-19055476D01*
X14124048Y-18922143D02*
X14124048Y-19055476D01*
X14076428Y-18845952D02*
X14028809Y-18988810D01*
X14152619Y-18988810D01*
X14219286Y-18874524D02*
X14228809Y-18865000D01*
X14247857Y-18855476D01*
X14295476Y-18855476D01*
X14314524Y-18865000D01*
X14324048Y-18874524D01*
X14333571Y-18893571D01*
X14333571Y-18912619D01*
X14324048Y-18941190D01*
X14209762Y-19055476D01*
X14333571Y-19055476D01*
X14457381Y-18855476D02*
X14476428Y-18855476D01*
X14495476Y-18865000D01*
X14505000Y-18874524D01*
X14514524Y-18893571D01*
X14524048Y-18931667D01*
X14524048Y-18979286D01*
X14514524Y-19017381D01*
X14505000Y-19036429D01*
X14495476Y-19045952D01*
X14476428Y-19055476D01*
X14457381Y-19055476D01*
X14438333Y-19045952D01*
X14428809Y-19036429D01*
X14419286Y-19017381D01*
X14409762Y-18979286D01*
X14409762Y-18931667D01*
X14419286Y-18893571D01*
X14428809Y-18874524D01*
X14438333Y-18865000D01*
X14457381Y-18855476D01*
X14609762Y-19055476D02*
X14609762Y-18922143D01*
X14609762Y-18941190D02*
X14619286Y-18931667D01*
X14638333Y-18922143D01*
X14666905Y-18922143D01*
X14685952Y-18931667D01*
X14695476Y-18950714D01*
X14695476Y-19055476D01*
X14695476Y-18950714D02*
X14705000Y-18931667D01*
X14724048Y-18922143D01*
X14752619Y-18922143D01*
X14771667Y-18931667D01*
X14781190Y-18950714D01*
X14781190Y-19055476D01*
X14876428Y-19055476D02*
X14876428Y-18922143D01*
X14876428Y-18941190D02*
X14885952Y-18931667D01*
X14905000Y-18922143D01*
X14933571Y-18922143D01*
X14952619Y-18931667D01*
X14962143Y-18950714D01*
X14962143Y-19055476D01*
X14962143Y-18950714D02*
X14971667Y-18931667D01*
X14990714Y-18922143D01*
X15019286Y-18922143D01*
X15038333Y-18931667D01*
X15047857Y-18950714D01*
X15047857Y-19055476D01*
X15438333Y-18845952D02*
X15266905Y-19103095D01*
X15695476Y-18855476D02*
X15714524Y-18855476D01*
X15733571Y-18865000D01*
X15743095Y-18874524D01*
X15752619Y-18893571D01*
X15762143Y-18931667D01*
X15762143Y-18979286D01*
X15752619Y-19017381D01*
X15743095Y-19036429D01*
X15733571Y-19045952D01*
X15714524Y-19055476D01*
X15695476Y-19055476D01*
X15676428Y-19045952D01*
X15666905Y-19036429D01*
X15657381Y-19017381D01*
X15647857Y-18979286D01*
X15647857Y-18931667D01*
X15657381Y-18893571D01*
X15666905Y-18874524D01*
X15676428Y-18865000D01*
X15695476Y-18855476D01*
X15847857Y-19036429D02*
X15857381Y-19045952D01*
X15847857Y-19055476D01*
X15838333Y-19045952D01*
X15847857Y-19036429D01*
X15847857Y-19055476D01*
X15981190Y-18855476D02*
X16000238Y-18855476D01*
X16019286Y-18865000D01*
X16028809Y-18874524D01*
X16038333Y-18893571D01*
X16047857Y-18931667D01*
X16047857Y-18979286D01*
X16038333Y-19017381D01*
X16028809Y-19036429D01*
X16019286Y-19045952D01*
X16000238Y-19055476D01*
X15981190Y-19055476D01*
X15962143Y-19045952D01*
X15952619Y-19036429D01*
X15943095Y-19017381D01*
X15933571Y-18979286D01*
X15933571Y-18931667D01*
X15943095Y-18893571D01*
X15952619Y-18874524D01*
X15962143Y-18865000D01*
X15981190Y-18855476D01*
X16228809Y-18855476D02*
X16133571Y-18855476D01*
X16124048Y-18950714D01*
X16133571Y-18941190D01*
X16152619Y-18931667D01*
X16200238Y-18931667D01*
X16219286Y-18941190D01*
X16228809Y-18950714D01*
X16238333Y-18969762D01*
X16238333Y-19017381D01*
X16228809Y-19036429D01*
X16219286Y-19045952D01*
X16200238Y-19055476D01*
X16152619Y-19055476D01*
X16133571Y-19045952D01*
X16124048Y-19036429D01*
X16419286Y-18855476D02*
X16324048Y-18855476D01*
X16314524Y-18950714D01*
X16324048Y-18941190D01*
X16343095Y-18931667D01*
X16390714Y-18931667D01*
X16409762Y-18941190D01*
X16419286Y-18950714D01*
X16428809Y-18969762D01*
X16428809Y-19017381D01*
X16419286Y-19036429D01*
X16409762Y-19045952D01*
X16390714Y-19055476D01*
X16343095Y-19055476D01*
X16324048Y-19045952D01*
X16314524Y-19036429D01*
X16524048Y-19055476D02*
X16562143Y-19055476D01*
X16581190Y-19045952D01*
X16590714Y-19036429D01*
X16609762Y-19007857D01*
X16619286Y-18969762D01*
X16619286Y-18893571D01*
X16609762Y-18874524D01*
X16600238Y-18865000D01*
X16581190Y-18855476D01*
X16543095Y-18855476D01*
X16524048Y-18865000D01*
X16514524Y-18874524D01*
X16505000Y-18893571D01*
X16505000Y-18941190D01*
X16514524Y-18960238D01*
X16524048Y-18969762D01*
X16543095Y-18979286D01*
X16581190Y-18979286D01*
X16600238Y-18969762D01*
X16609762Y-18960238D01*
X16619286Y-18941190D01*
X16695476Y-18855476D02*
X16695476Y-18893571D01*
X16771667Y-18855476D02*
X16771667Y-18893571D01*
X17066905Y-19131667D02*
X17057381Y-19122143D01*
X17038333Y-19093571D01*
X17028810Y-19074524D01*
X17019286Y-19045952D01*
X17009762Y-18998333D01*
X17009762Y-18960238D01*
X17019286Y-18912619D01*
X17028810Y-18884048D01*
X17038333Y-18865000D01*
X17057381Y-18836429D01*
X17066905Y-18826905D01*
X17124048Y-18855476D02*
X17257381Y-18855476D01*
X17171667Y-19055476D01*
X17485952Y-19055476D02*
X17485952Y-18855476D01*
X17571667Y-19055476D02*
X17571667Y-18950714D01*
X17562143Y-18931667D01*
X17543095Y-18922143D01*
X17514524Y-18922143D01*
X17495476Y-18931667D01*
X17485952Y-18941190D01*
X17695476Y-19055476D02*
X17676429Y-19045952D01*
X17666905Y-19036429D01*
X17657381Y-19017381D01*
X17657381Y-18960238D01*
X17666905Y-18941190D01*
X17676429Y-18931667D01*
X17695476Y-18922143D01*
X17724048Y-18922143D01*
X17743095Y-18931667D01*
X17752619Y-18941190D01*
X17762143Y-18960238D01*
X17762143Y-19017381D01*
X17752619Y-19036429D01*
X17743095Y-19045952D01*
X17724048Y-19055476D01*
X17695476Y-19055476D01*
X17876429Y-19055476D02*
X17857381Y-19045952D01*
X17847857Y-19026905D01*
X17847857Y-18855476D01*
X18028810Y-19045952D02*
X18009762Y-19055476D01*
X17971667Y-19055476D01*
X17952619Y-19045952D01*
X17943095Y-19026905D01*
X17943095Y-18950714D01*
X17952619Y-18931667D01*
X17971667Y-18922143D01*
X18009762Y-18922143D01*
X18028810Y-18931667D01*
X18038333Y-18950714D01*
X18038333Y-18969762D01*
X17943095Y-18988810D01*
X18114524Y-19045952D02*
X18133571Y-19055476D01*
X18171667Y-19055476D01*
X18190714Y-19045952D01*
X18200238Y-19026905D01*
X18200238Y-19017381D01*
X18190714Y-18998333D01*
X18171667Y-18988810D01*
X18143095Y-18988810D01*
X18124048Y-18979286D01*
X18114524Y-18960238D01*
X18114524Y-18950714D01*
X18124048Y-18931667D01*
X18143095Y-18922143D01*
X18171667Y-18922143D01*
X18190714Y-18931667D01*
X18266905Y-19131667D02*
X18276429Y-19122143D01*
X18295476Y-19093571D01*
X18305000Y-19074524D01*
X18314524Y-19045952D01*
X18324048Y-18998333D01*
X18324048Y-18960238D01*
X18314524Y-18912619D01*
X18305000Y-18884048D01*
X18295476Y-18865000D01*
X18276429Y-18836429D01*
X18266905Y-18826905D01*
D17*
X13352000Y-19157500D02*
X13495000Y-19300500D01*
X13495000Y-19157500D02*
X13352000Y-19300500D01*
X13423500Y-19157500D02*
X13423500Y-19300500D01*
X13352000Y-19229000D02*
X13495000Y-19229000D01*
D11*
X13857381Y-19319476D02*
X13743095Y-19319476D01*
X13800238Y-19319476D02*
X13800238Y-19119476D01*
X13781190Y-19148048D01*
X13762143Y-19167095D01*
X13743095Y-19176619D01*
X13943095Y-19300429D02*
X13952619Y-19309952D01*
X13943095Y-19319476D01*
X13933571Y-19309952D01*
X13943095Y-19300429D01*
X13943095Y-19319476D01*
X14124048Y-19186143D02*
X14124048Y-19319476D01*
X14076428Y-19109952D02*
X14028809Y-19252810D01*
X14152619Y-19252810D01*
X14209762Y-19119476D02*
X14333571Y-19119476D01*
X14266905Y-19195667D01*
X14295476Y-19195667D01*
X14314524Y-19205190D01*
X14324048Y-19214714D01*
X14333571Y-19233762D01*
X14333571Y-19281381D01*
X14324048Y-19300429D01*
X14314524Y-19309952D01*
X14295476Y-19319476D01*
X14238333Y-19319476D01*
X14219286Y-19309952D01*
X14209762Y-19300429D01*
X14457381Y-19119476D02*
X14476428Y-19119476D01*
X14495476Y-19129000D01*
X14505000Y-19138524D01*
X14514524Y-19157571D01*
X14524048Y-19195667D01*
X14524048Y-19243286D01*
X14514524Y-19281381D01*
X14505000Y-19300429D01*
X14495476Y-19309952D01*
X14476428Y-19319476D01*
X14457381Y-19319476D01*
X14438333Y-19309952D01*
X14428809Y-19300429D01*
X14419286Y-19281381D01*
X14409762Y-19243286D01*
X14409762Y-19195667D01*
X14419286Y-19157571D01*
X14428809Y-19138524D01*
X14438333Y-19129000D01*
X14457381Y-19119476D01*
X14609762Y-19319476D02*
X14609762Y-19186143D01*
X14609762Y-19205190D02*
X14619286Y-19195667D01*
X14638333Y-19186143D01*
X14666905Y-19186143D01*
X14685952Y-19195667D01*
X14695476Y-19214714D01*
X14695476Y-19319476D01*
X14695476Y-19214714D02*
X14705000Y-19195667D01*
X14724048Y-19186143D01*
X14752619Y-19186143D01*
X14771667Y-19195667D01*
X14781190Y-19214714D01*
X14781190Y-19319476D01*
X14876428Y-19319476D02*
X14876428Y-19186143D01*
X14876428Y-19205190D02*
X14885952Y-19195667D01*
X14905000Y-19186143D01*
X14933571Y-19186143D01*
X14952619Y-19195667D01*
X14962143Y-19214714D01*
X14962143Y-19319476D01*
X14962143Y-19214714D02*
X14971667Y-19195667D01*
X14990714Y-19186143D01*
X15019286Y-19186143D01*
X15038333Y-19195667D01*
X15047857Y-19214714D01*
X15047857Y-19319476D01*
X15438333Y-19109952D02*
X15266905Y-19367095D01*
X15695476Y-19119476D02*
X15714524Y-19119476D01*
X15733571Y-19129000D01*
X15743095Y-19138524D01*
X15752619Y-19157571D01*
X15762143Y-19195667D01*
X15762143Y-19243286D01*
X15752619Y-19281381D01*
X15743095Y-19300429D01*
X15733571Y-19309952D01*
X15714524Y-19319476D01*
X15695476Y-19319476D01*
X15676428Y-19309952D01*
X15666905Y-19300429D01*
X15657381Y-19281381D01*
X15647857Y-19243286D01*
X15647857Y-19195667D01*
X15657381Y-19157571D01*
X15666905Y-19138524D01*
X15676428Y-19129000D01*
X15695476Y-19119476D01*
X15847857Y-19300429D02*
X15857381Y-19309952D01*
X15847857Y-19319476D01*
X15838333Y-19309952D01*
X15847857Y-19300429D01*
X15847857Y-19319476D01*
X15981190Y-19119476D02*
X16000238Y-19119476D01*
X16019286Y-19129000D01*
X16028809Y-19138524D01*
X16038333Y-19157571D01*
X16047857Y-19195667D01*
X16047857Y-19243286D01*
X16038333Y-19281381D01*
X16028809Y-19300429D01*
X16019286Y-19309952D01*
X16000238Y-19319476D01*
X15981190Y-19319476D01*
X15962143Y-19309952D01*
X15952619Y-19300429D01*
X15943095Y-19281381D01*
X15933571Y-19243286D01*
X15933571Y-19195667D01*
X15943095Y-19157571D01*
X15952619Y-19138524D01*
X15962143Y-19129000D01*
X15981190Y-19119476D01*
X16228809Y-19119476D02*
X16133571Y-19119476D01*
X16124048Y-19214714D01*
X16133571Y-19205190D01*
X16152619Y-19195667D01*
X16200238Y-19195667D01*
X16219286Y-19205190D01*
X16228809Y-19214714D01*
X16238333Y-19233762D01*
X16238333Y-19281381D01*
X16228809Y-19300429D01*
X16219286Y-19309952D01*
X16200238Y-19319476D01*
X16152619Y-19319476D01*
X16133571Y-19309952D01*
X16124048Y-19300429D01*
X16409762Y-19119476D02*
X16371667Y-19119476D01*
X16352619Y-19129000D01*
X16343095Y-19138524D01*
X16324048Y-19167095D01*
X16314524Y-19205190D01*
X16314524Y-19281381D01*
X16324048Y-19300429D01*
X16333571Y-19309952D01*
X16352619Y-19319476D01*
X16390714Y-19319476D01*
X16409762Y-19309952D01*
X16419286Y-19300429D01*
X16428809Y-19281381D01*
X16428809Y-19233762D01*
X16419286Y-19214714D01*
X16409762Y-19205190D01*
X16390714Y-19195667D01*
X16352619Y-19195667D01*
X16333571Y-19205190D01*
X16324048Y-19214714D01*
X16314524Y-19233762D01*
X16495476Y-19119476D02*
X16619286Y-19119476D01*
X16552619Y-19195667D01*
X16581190Y-19195667D01*
X16600238Y-19205190D01*
X16609762Y-19214714D01*
X16619286Y-19233762D01*
X16619286Y-19281381D01*
X16609762Y-19300429D01*
X16600238Y-19309952D01*
X16581190Y-19319476D01*
X16524048Y-19319476D01*
X16505000Y-19309952D01*
X16495476Y-19300429D01*
X16695476Y-19119476D02*
X16695476Y-19157571D01*
X16771667Y-19119476D02*
X16771667Y-19157571D01*
X17066905Y-19395667D02*
X17057381Y-19386143D01*
X17038333Y-19357571D01*
X17028810Y-19338524D01*
X17019286Y-19309952D01*
X17009762Y-19262333D01*
X17009762Y-19224238D01*
X17019286Y-19176619D01*
X17028810Y-19148048D01*
X17038333Y-19129000D01*
X17057381Y-19100429D01*
X17066905Y-19090905D01*
X17124048Y-19119476D02*
X17257381Y-19119476D01*
X17171667Y-19319476D01*
X17485952Y-19319476D02*
X17485952Y-19119476D01*
X17571667Y-19319476D02*
X17571667Y-19214714D01*
X17562143Y-19195667D01*
X17543095Y-19186143D01*
X17514524Y-19186143D01*
X17495476Y-19195667D01*
X17485952Y-19205190D01*
X17695476Y-19319476D02*
X17676429Y-19309952D01*
X17666905Y-19300429D01*
X17657381Y-19281381D01*
X17657381Y-19224238D01*
X17666905Y-19205190D01*
X17676429Y-19195667D01*
X17695476Y-19186143D01*
X17724048Y-19186143D01*
X17743095Y-19195667D01*
X17752619Y-19205190D01*
X17762143Y-19224238D01*
X17762143Y-19281381D01*
X17752619Y-19300429D01*
X17743095Y-19309952D01*
X17724048Y-19319476D01*
X17695476Y-19319476D01*
X17876429Y-19319476D02*
X17857381Y-19309952D01*
X17847857Y-19290905D01*
X17847857Y-19119476D01*
X18028810Y-19309952D02*
X18009762Y-19319476D01*
X17971667Y-19319476D01*
X17952619Y-19309952D01*
X17943095Y-19290905D01*
X17943095Y-19214714D01*
X17952619Y-19195667D01*
X17971667Y-19186143D01*
X18009762Y-19186143D01*
X18028810Y-19195667D01*
X18038333Y-19214714D01*
X18038333Y-19233762D01*
X17943095Y-19252810D01*
X18114524Y-19309952D02*
X18133571Y-19319476D01*
X18171667Y-19319476D01*
X18190714Y-19309952D01*
X18200238Y-19290905D01*
X18200238Y-19281381D01*
X18190714Y-19262333D01*
X18171667Y-19252810D01*
X18143095Y-19252810D01*
X18124048Y-19243286D01*
X18114524Y-19224238D01*
X18114524Y-19214714D01*
X18124048Y-19195667D01*
X18143095Y-19186143D01*
X18171667Y-19186143D01*
X18190714Y-19195667D01*
X18266905Y-19395667D02*
X18276429Y-19386143D01*
X18295476Y-19357571D01*
X18305000Y-19338524D01*
X18314524Y-19309952D01*
X18324048Y-19262333D01*
X18324048Y-19224238D01*
X18314524Y-19176619D01*
X18305000Y-19148048D01*
X18295476Y-19129000D01*
X18276429Y-19100429D01*
X18266905Y-19090905D01*
M02*
