%TF.GenerationSoftware,KiCad,Pcbnew,6.0.11+dfsg-1~bpo11+1*%
%TF.CreationDate,2023-06-07T14:09:25+08:00*%
%TF.ProjectId,MiniSNH v1.0 - Main,4d696e69-534e-4482-9076-312e30202d20,rev?*%
%TF.SameCoordinates,Original*%
%TF.FileFunction,Soldermask,Bot*%
%TF.FilePolarity,Negative*%
%FSLAX46Y46*%
G04 Gerber Fmt 4.6, Leading zero omitted, Abs format (unit mm)*
G04 Created by KiCad (PCBNEW 6.0.11+dfsg-1~bpo11+1) date 2023-06-07 14:09:25*
%MOMM*%
%LPD*%
G01*
G04 APERTURE LIST*
G04 Aperture macros list*
%AMRoundRect*
0 Rectangle with rounded corners*
0 $1 Rounding radius*
0 $2 $3 $4 $5 $6 $7 $8 $9 X,Y pos of 4 corners*
0 Add a 4 corners polygon primitive as box body*
4,1,4,$2,$3,$4,$5,$6,$7,$8,$9,$2,$3,0*
0 Add four circle primitives for the rounded corners*
1,1,$1+$1,$2,$3*
1,1,$1+$1,$4,$5*
1,1,$1+$1,$6,$7*
1,1,$1+$1,$8,$9*
0 Add four rect primitives between the rounded corners*
20,1,$1+$1,$2,$3,$4,$5,0*
20,1,$1+$1,$4,$5,$6,$7,0*
20,1,$1+$1,$6,$7,$8,$9,0*
20,1,$1+$1,$8,$9,$2,$3,0*%
G04 Aperture macros list end*
%ADD10R,1.930000X1.830000*%
%ADD11C,2.130000*%
%ADD12R,1.800000X1.800000*%
%ADD13C,1.800000*%
%ADD14RoundRect,0.237500X-0.300000X-0.237500X0.300000X-0.237500X0.300000X0.237500X-0.300000X0.237500X0*%
%ADD15RoundRect,0.237500X0.300000X0.237500X-0.300000X0.237500X-0.300000X-0.237500X0.300000X-0.237500X0*%
%ADD16RoundRect,0.237500X-0.250000X-0.237500X0.250000X-0.237500X0.250000X0.237500X-0.250000X0.237500X0*%
%ADD17RoundRect,0.237500X0.250000X0.237500X-0.250000X0.237500X-0.250000X-0.237500X0.250000X-0.237500X0*%
%ADD18RoundRect,0.150000X0.825000X0.150000X-0.825000X0.150000X-0.825000X-0.150000X0.825000X-0.150000X0*%
%ADD19RoundRect,0.250000X-0.600000X-0.600000X0.600000X-0.600000X0.600000X0.600000X-0.600000X0.600000X0*%
%ADD20C,1.700000*%
%ADD21RoundRect,0.237500X-0.237500X0.300000X-0.237500X-0.300000X0.237500X-0.300000X0.237500X0.300000X0*%
%ADD22RoundRect,0.237500X0.237500X-0.250000X0.237500X0.250000X-0.237500X0.250000X-0.237500X-0.250000X0*%
%ADD23RoundRect,0.150000X-0.150000X0.825000X-0.150000X-0.825000X0.150000X-0.825000X0.150000X0.825000X0*%
%ADD24R,0.900000X1.200000*%
%ADD25RoundRect,0.237500X0.237500X-0.300000X0.237500X0.300000X-0.237500X0.300000X-0.237500X-0.300000X0*%
%ADD26RoundRect,0.150000X0.587500X0.150000X-0.587500X0.150000X-0.587500X-0.150000X0.587500X-0.150000X0*%
%ADD27R,1.600000X1.600000*%
%ADD28C,1.600000*%
%ADD29RoundRect,0.237500X-0.237500X0.250000X-0.237500X-0.250000X0.237500X-0.250000X0.237500X0.250000X0*%
%ADD30R,2.000000X2.000000*%
%ADD31R,1.500000X1.500000*%
%ADD32C,1.500000*%
%ADD33C,1.440000*%
G04 APERTURE END LIST*
D10*
%TO.C,SNH_OUT1*%
X150000000Y-95350000D03*
D11*
X150000000Y-106750000D03*
X150000000Y-98450000D03*
%TD*%
D12*
%TO.C,D6*%
X152888750Y-111500000D03*
D13*
X150348750Y-111500000D03*
%TD*%
D10*
%TO.C,GATE_IN1*%
X150000000Y-75080000D03*
D11*
X150000000Y-63680000D03*
X150000000Y-71980000D03*
%TD*%
D12*
%TO.C,D3*%
X152500000Y-146000000D03*
D13*
X152500000Y-143460000D03*
%TD*%
D12*
%TO.C,PROBABILITY1*%
X142500000Y-139075000D03*
D13*
X145000000Y-139075000D03*
X147500000Y-139075000D03*
%TD*%
D12*
%TO.C,D2*%
X137500000Y-146100000D03*
D13*
X137500000Y-143560000D03*
%TD*%
D10*
%TO.C,PROB_IN1*%
X145000000Y-153300000D03*
D11*
X145000000Y-141900000D03*
X145000000Y-150200000D03*
%TD*%
D10*
%TO.C,GATE_OUT2*%
X150050000Y-167950000D03*
D11*
X150050000Y-156550000D03*
X150050000Y-164850000D03*
%TD*%
D10*
%TO.C,SIGNAL_IN1*%
X140000000Y-75080000D03*
D11*
X140000000Y-63680000D03*
X140000000Y-71980000D03*
%TD*%
D10*
%TO.C,NOISE_OUT1*%
X140000000Y-95350000D03*
D11*
X140000000Y-106750000D03*
X140000000Y-98450000D03*
%TD*%
D12*
%TO.C,SIGNAL_AMOUNT1*%
X142500000Y-89875000D03*
D13*
X145000000Y-89875000D03*
X147500000Y-89875000D03*
%TD*%
D10*
%TO.C,GATE_OUT1*%
X140000000Y-167930000D03*
D11*
X140000000Y-156530000D03*
X140000000Y-164830000D03*
%TD*%
D14*
%TO.C,C17*%
X145662500Y-71400000D03*
X147387500Y-71400000D03*
%TD*%
D15*
%TO.C,C4*%
X139587500Y-93075000D03*
X137862500Y-93075000D03*
%TD*%
D16*
%TO.C,R22*%
X149587500Y-159450000D03*
X151412500Y-159450000D03*
%TD*%
D14*
%TO.C,C2*%
X141137500Y-80650000D03*
X142862500Y-80650000D03*
%TD*%
D17*
%TO.C,R13*%
X149962500Y-132375000D03*
X148137500Y-132375000D03*
%TD*%
D18*
%TO.C,U1*%
X146525000Y-82295000D03*
X146525000Y-83565000D03*
X146525000Y-84835000D03*
X146525000Y-86105000D03*
X141575000Y-86105000D03*
X141575000Y-84835000D03*
X141575000Y-83565000D03*
X141575000Y-82295000D03*
%TD*%
%TO.C,U3*%
X147475000Y-159510000D03*
X147475000Y-160780000D03*
X147475000Y-162050000D03*
X147475000Y-163320000D03*
X142525000Y-163320000D03*
X142525000Y-162050000D03*
X142525000Y-160780000D03*
X142525000Y-159510000D03*
%TD*%
D17*
%TO.C,R10*%
X149962500Y-133900000D03*
X148137500Y-133900000D03*
%TD*%
D19*
%TO.C,J2*%
X138847500Y-124280000D03*
D20*
X141387500Y-124280000D03*
X138847500Y-121740000D03*
X141387500Y-121740000D03*
X138847500Y-119200000D03*
X141387500Y-119200000D03*
X138847500Y-116660000D03*
X141387500Y-116660000D03*
X138847500Y-114120000D03*
X141387500Y-114120000D03*
%TD*%
D21*
%TO.C,C11*%
X146700000Y-118312500D03*
X146700000Y-120037500D03*
%TD*%
D22*
%TO.C,R4*%
X150100000Y-84062500D03*
X150100000Y-82237500D03*
%TD*%
D16*
%TO.C,R15*%
X138587500Y-162550000D03*
X140412500Y-162550000D03*
%TD*%
D23*
%TO.C,U4*%
X138940000Y-131300000D03*
X140210000Y-131300000D03*
X141480000Y-131300000D03*
X142750000Y-131300000D03*
X144020000Y-131300000D03*
X145290000Y-131300000D03*
X146560000Y-131300000D03*
X146560000Y-136250000D03*
X145290000Y-136250000D03*
X144020000Y-136250000D03*
X142750000Y-136250000D03*
X141480000Y-136250000D03*
X140210000Y-136250000D03*
X138940000Y-136250000D03*
%TD*%
D16*
%TO.C,R23*%
X152137500Y-71250000D03*
X153962500Y-71250000D03*
%TD*%
D15*
%TO.C,C14*%
X147462500Y-165000000D03*
X145737500Y-165000000D03*
%TD*%
D24*
%TO.C,D5*%
X147400000Y-63800000D03*
X144100000Y-63800000D03*
%TD*%
D22*
%TO.C,R8*%
X138900000Y-140162500D03*
X138900000Y-138337500D03*
%TD*%
D17*
%TO.C,R19*%
X140412500Y-159400000D03*
X138587500Y-159400000D03*
%TD*%
D24*
%TO.C,D1*%
X151550000Y-126900000D03*
X148250000Y-126900000D03*
%TD*%
D25*
%TO.C,C15*%
X137350000Y-140112500D03*
X137350000Y-138387500D03*
%TD*%
D26*
%TO.C,Q3*%
X139662500Y-67825000D03*
X139662500Y-69725000D03*
X137787500Y-68775000D03*
%TD*%
D25*
%TO.C,C3*%
X151650000Y-84012500D03*
X151650000Y-82287500D03*
%TD*%
D27*
%TO.C,C1*%
X153105113Y-91350000D03*
D28*
X150605113Y-91350000D03*
%TD*%
D29*
%TO.C,R27*%
X153400000Y-102687500D03*
X153400000Y-104512500D03*
%TD*%
D17*
%TO.C,R2*%
X142912500Y-79100000D03*
X141087500Y-79100000D03*
%TD*%
D18*
%TO.C,U5*%
X146900000Y-65895000D03*
X146900000Y-67165000D03*
X146900000Y-68435000D03*
X146900000Y-69705000D03*
X141950000Y-69705000D03*
X141950000Y-68435000D03*
X141950000Y-67165000D03*
X141950000Y-65895000D03*
%TD*%
D17*
%TO.C,R14*%
X144112500Y-165000000D03*
X142287500Y-165000000D03*
%TD*%
D16*
%TO.C,R20*%
X149075000Y-67200000D03*
X150900000Y-67200000D03*
%TD*%
D22*
%TO.C,R29*%
X148363750Y-111812500D03*
X148363750Y-109987500D03*
%TD*%
D16*
%TO.C,R9*%
X149687500Y-128900000D03*
X151512500Y-128900000D03*
%TD*%
D15*
%TO.C,C8*%
X147612500Y-106150000D03*
X145887500Y-106150000D03*
%TD*%
D30*
%TO.C,TP1*%
X137100000Y-102750000D03*
%TD*%
D29*
%TO.C,R5*%
X148550000Y-82237500D03*
X148550000Y-84062500D03*
%TD*%
D21*
%TO.C,C12*%
X153700000Y-114137500D03*
X153700000Y-115862500D03*
%TD*%
%TO.C,C18*%
X136000000Y-71337500D03*
X136000000Y-73062500D03*
%TD*%
D17*
%TO.C,R1*%
X142912500Y-77550000D03*
X141087500Y-77550000D03*
%TD*%
D18*
%TO.C,U6*%
X151275000Y-100695000D03*
X151275000Y-101965000D03*
X151275000Y-103235000D03*
X151275000Y-104505000D03*
X146325000Y-104505000D03*
X146325000Y-103235000D03*
X146325000Y-101965000D03*
X146325000Y-100695000D03*
%TD*%
D17*
%TO.C,R21*%
X151412500Y-161050000D03*
X149587500Y-161050000D03*
%TD*%
D31*
%TO.C,Q1*%
X137910000Y-77280000D03*
D32*
X137910000Y-79820000D03*
X137910000Y-82360000D03*
%TD*%
D29*
%TO.C,R3*%
X148550000Y-85637500D03*
X148550000Y-87462500D03*
%TD*%
D33*
%TO.C,RV1*%
X137625000Y-89575000D03*
X137625000Y-87035000D03*
X137625000Y-84495000D03*
%TD*%
D17*
%TO.C,R7*%
X139637500Y-91525000D03*
X137812500Y-91525000D03*
%TD*%
%TO.C,R16*%
X147812500Y-157850000D03*
X145987500Y-157850000D03*
%TD*%
D15*
%TO.C,C10*%
X146962500Y-87750000D03*
X145237500Y-87750000D03*
%TD*%
D31*
%TO.C,Q2*%
X146960000Y-122900000D03*
D32*
X149500000Y-122900000D03*
X152040000Y-122900000D03*
%TD*%
D21*
%TO.C,C9*%
X147000000Y-77637500D03*
X147000000Y-79362500D03*
%TD*%
D17*
%TO.C,R17*%
X151412500Y-162650000D03*
X149587500Y-162650000D03*
%TD*%
%TO.C,R24*%
X139887500Y-66275000D03*
X138062500Y-66275000D03*
%TD*%
%TO.C,R28*%
X149962500Y-130800000D03*
X148137500Y-130800000D03*
%TD*%
D29*
%TO.C,R11*%
X136350000Y-105137500D03*
X136350000Y-106962500D03*
%TD*%
%TO.C,R6*%
X153850000Y-122987500D03*
X153850000Y-124812500D03*
%TD*%
D24*
%TO.C,D4*%
X148975000Y-69200000D03*
X152275000Y-69200000D03*
%TD*%
D15*
%TO.C,C7*%
X150850000Y-65700000D03*
X149125000Y-65700000D03*
%TD*%
D23*
%TO.C,U2*%
X148295000Y-114625000D03*
X149565000Y-114625000D03*
X150835000Y-114625000D03*
X152105000Y-114625000D03*
X152105000Y-119575000D03*
X150835000Y-119575000D03*
X149565000Y-119575000D03*
X148295000Y-119575000D03*
%TD*%
D16*
%TO.C,R18*%
X138587500Y-161000000D03*
X140412500Y-161000000D03*
%TD*%
%TO.C,R12*%
X148137500Y-135450000D03*
X149962500Y-135450000D03*
%TD*%
D14*
%TO.C,C13*%
X142537500Y-157825000D03*
X144262500Y-157825000D03*
%TD*%
M02*
